SourceSerifPro_1.ufo
<glyph name="exclam" format="1">
  <advance width="328"/>
  <unicode hex="0021"/>
  <outline>
    <contour>
      <point x="164" y="-15" type="curve" smooth="yes"/>
      <point x="211" y="-15"/>
      <point x="248" y="23"/>
      <point x="248" y="69" type="curve" smooth="yes"/>
      <point x="248" y="116"/>
      <point x="211" y="154"/>
      <point x="164" y="154" type="curve" smooth="yes"/>
      <point x="117" y="154"/>
      <point x="80" y="116"/>
      <point x="80" y="69" type="curve" smooth="yes"/>
      <point x="80" y="23"/>
      <point x="117" y="-15"/>
    </contour>
    <contour>
      <point x="164" y="670" type="curve" smooth="yes"/>
      <point x="119" y="670"/>
      <point x="81" y="643"/>
      <point x="81" y="587" type="curve" smooth="yes"/>
      <point x="81" y="552"/>
      <point x="94" y="479"/>
      <point x="119" y="352" type="curve" smooth="yes"/>
      <point x="140" y="245" type="line"/>
      <point x="188" y="245" type="line"/>
      <point x="209" y="352" type="line" smooth="yes"/>
      <point x="234" y="479"/>
      <point x="247" y="552"/>
      <point x="247" y="587" type="curve" smooth="yes"/>
      <point x="247" y="643"/>
      <point x="209" y="670"/>
    </contour>
  </outline>
</glyph>
<glyph name="numbersign" format="1">
  <advance width="540"/>
  <unicode hex="0023"/>
  <outline>
    <contour>
      <point x="80" y="0" type="line"/>
      <point x="150" y="0" type="line"/>
      <point x="253" y="650" type="line"/>
      <point x="183" y="650" type="line"/>
    </contour>
    <contour>
      <point x="25" y="266" type="line"/>
      <point x="25" y="162" type="line"/>
      <point x="491" y="162" type="line"/>
      <point x="491" y="266" type="line"/>
    </contour>
    <contour>
      <point x="515" y="375" type="line"/>
      <point x="515" y="480" type="line"/>
      <point x="49" y="480" type="line"/>
      <point x="49" y="375" type="line"/>
    </contour>
    <contour>
      <point x="280" y="0" type="line"/>
      <point x="350" y="0" type="line"/>
      <point x="453" y="650" type="line"/>
      <point x="383" y="650" type="line"/>
    </contour>
  </outline>
</glyph>
<glyph name="dollar" format="1">
  <advance width="528"/>
  <unicode hex="0024"/>
  <outline>
    <contour>
      <point x="257" y="35" type="curve" smooth="yes"/>
      <point x="195" y="35"/>
      <point x="163" y="39"/>
      <point x="111" y="65" type="curve"/>
      <point x="174" y="20" type="line"/>
      <point x="166" y="104" type="line" smooth="yes"/>
      <point x="162" y="153"/>
      <point x="137" y="170"/>
      <point x="105" y="170" type="curve" smooth="yes"/>
      <point x="81" y="170"/>
      <point x="56" y="160"/>
      <point x="44" y="128" type="curve"/>
      <point x="44" y="40"/>
      <point x="122" y="-15"/>
      <point x="248" y="-15" type="curve" smooth="yes"/>
      <point x="405" y="-15"/>
      <point x="483" y="66"/>
      <point x="483" y="176" type="curve" smooth="yes"/>
      <point x="483" y="274"/>
      <point x="441" y="331"/>
      <point x="299" y="380" type="curve" smooth="yes"/>
      <point x="261" y="393" type="line" smooth="yes"/>
      <point x="197" y="415"/>
      <point x="160" y="441"/>
      <point x="160" y="501" type="curve" smooth="yes"/>
      <point x="160" y="572"/>
      <point x="210" y="603"/>
      <point x="267" y="603" type="curve" smooth="yes"/>
      <point x="310" y="603"/>
      <point x="346" y="600"/>
      <point x="392" y="578" type="curve"/>
      <point x="333" y="618" type="line"/>
      <point x="339" y="546" type="line" smooth="yes"/>
      <point x="344" y="481"/>
      <point x="377" y="468"/>
      <point x="404" y="468" type="curve" smooth="yes"/>
      <point x="427" y="468"/>
      <point x="452" y="478"/>
      <point x="462" y="512" type="curve"/>
      <point x="454" y="605"/>
      <point x="390" y="653"/>
      <point x="267" y="653" type="curve" smooth="yes"/>
      <point x="129" y="653"/>
      <point x="48" y="569"/>
      <point x="48" y="472" type="curve" smooth="yes"/>
      <point x="48" y="362"/>
      <point x="111" y="311"/>
      <point x="219" y="273" type="curve" smooth="yes"/>
      <point x="256" y="260" type="line" smooth="yes"/>
      <point x="334" y="232"/>
      <point x="367" y="207"/>
      <point x="367" y="138" type="curve" smooth="yes"/>
      <point x="367" y="77"/>
      <point x="327" y="35"/>
    </contour>
    <contour>
      <point x="288" y="311" type="line"/>
      <point x="288" y="740" type="line"/>
      <point x="233" y="740" type="line"/>
      <point x="233" y="325" type="line"/>
    </contour>
    <contour>
      <point x="236" y="-115" type="line"/>
      <point x="291" y="-115" type="line"/>
      <point x="291" y="311" type="line"/>
      <point x="236" y="325" type="line"/>
    </contour>
  </outline>
</glyph>
<glyph name="ampersand" format="1">
  <advance width="720"/>
  <unicode hex="0026"/>
  <outline>
    <contour>
      <point x="312" y="220" type="curve" smooth="yes"/>
      <point x="364" y="162"/>
      <point x="412" y="109"/>
      <point x="478" y="36" type="curve" smooth="yes"/>
      <point x="510" y="2"/>
      <point x="541" y="-10"/>
      <point x="593" y="-10" type="curve" smooth="yes"/>
      <point x="619" y="-10"/>
      <point x="639" y="-7"/>
      <point x="668" y="0" type="curve"/>
      <point x="672" y="42" type="line"/>
      <point x="543" y="58" type="line"/>
      <point x="593" y="35" type="line"/>
      <point x="488" y="147"/>
      <point x="429" y="208"/>
      <point x="350" y="294" type="curve" smooth="yes"/>
      <point x="288" y="362"/>
      <point x="258" y="394"/>
      <point x="219" y="442" type="curve" smooth="yes"/>
      <point x="182" y="489"/>
      <point x="174" y="520"/>
      <point x="174" y="556" type="curve" smooth="yes"/>
      <point x="174" y="610"/>
      <point x="215" y="650"/>
      <point x="266" y="650" type="curve" smooth="yes"/>
      <point x="316" y="650"/>
      <point x="354" y="614"/>
      <point x="354" y="555" type="curve" smooth="yes"/>
      <point x="354" y="491"/>
      <point x="301" y="444"/>
      <point x="229" y="398" type="curve"/>
      <point x="245" y="370" type="line"/>
      <point x="365" y="431"/>
      <point x="418" y="483"/>
      <point x="418" y="557" type="curve" smooth="yes"/>
      <point x="418" y="632"/>
      <point x="365" y="685"/>
      <point x="267" y="685" type="curve" smooth="yes"/>
      <point x="174" y="685"/>
      <point x="105" y="631"/>
      <point x="105" y="544" type="curve" smooth="yes"/>
      <point x="105" y="491"/>
      <point x="124" y="440"/>
      <point x="174" y="383" type="curve" smooth="yes"/>
      <point x="221" y="329"/>
      <point x="254" y="289"/>
    </contour>
    <contour>
      <point x="441" y="130" type="curve"/>
      <point x="473" y="110" type="line"/>
      <point x="533" y="194"/>
      <point x="577" y="282"/>
      <point x="602" y="398" type="curve"/>
      <point x="556" y="398" type="line"/>
      <point x="534" y="291"/>
      <point x="496" y="208"/>
    </contour>
    <contour>
      <point x="226" y="362" type="curve"/>
      <point x="206" y="391" type="line"/>
      <point x="89" y="340"/>
      <point x="27" y="268"/>
      <point x="27" y="170" type="curve" smooth="yes"/>
      <point x="27" y="68"/>
      <point x="114" y="-15"/>
      <point x="239" y="-15" type="curve" smooth="yes"/>
      <point x="356" y="-15"/>
      <point x="427" y="43"/>
      <point x="469" y="107" type="curve"/>
      <point x="439" y="132" type="line"/>
      <point x="403" y="81"/>
      <point x="334" y="48"/>
      <point x="263" y="48" type="curve" smooth="yes"/>
      <point x="165" y="48"/>
      <point x="111" y="123"/>
      <point x="111" y="196" type="curve" smooth="yes"/>
      <point x="111" y="251"/>
      <point x="134" y="320"/>
    </contour>
    <contour>
      <point x="587" y="374" type="line"/>
      <point x="674" y="389" type="line"/>
      <point x="674" y="429" type="line"/>
      <point x="472" y="429" type="line"/>
      <point x="472" y="389" type="line"/>
      <point x="567" y="374" type="line"/>
    </contour>
  </outline>
</glyph>
<glyph name="quotesingle" format="1">
  <advance width="218"/>
  <unicode hex="0027"/>
  <outline>
    <contour>
      <point x="109" y="732" type="curve" smooth="yes"/>
      <point x="66" y="732"/>
      <point x="40" y="707"/>
      <point x="40" y="655" type="curve" smooth="yes"/>
      <point x="40" y="610"/>
      <point x="61" y="529"/>
      <point x="66" y="501" type="curve" smooth="yes"/>
      <point x="85" y="405" type="line"/>
      <point x="133" y="405" type="line"/>
      <point x="152" y="501" type="line" smooth="yes"/>
      <point x="158" y="530"/>
      <point x="178" y="610"/>
      <point x="178" y="655" type="curve" smooth="yes"/>
      <point x="178" y="707"/>
      <point x="152" y="732"/>
    </contour>
  </outline>
</glyph>
<glyph name="parenleft" format="1">
  <advance width="365"/>
  <unicode hex="0028"/>
  <outline>
    <contour>
      <point x="181" y="278" type="curve" smooth="yes"/>
      <point x="181" y="412"/>
      <point x="225" y="535"/>
      <point x="335" y="697" type="curve"/>
      <point x="297" y="730" type="line"/>
      <point x="144" y="605"/>
      <point x="60" y="454"/>
      <point x="60" y="278" type="curve" smooth="yes"/>
      <point x="60" y="102"/>
      <point x="144" y="-49"/>
      <point x="297" y="-174" type="curve"/>
      <point x="335" y="-141" type="line"/>
      <point x="225" y="21"/>
      <point x="181" y="144"/>
    </contour>
  </outline>
</glyph>
<glyph name="asterisk" format="1">
  <advance width="434"/>
  <unicode hex="002A"/>
  <outline>
    <contour>
      <point x="217" y="740" type="curve" smooth="yes"/>
      <point x="188" y="740"/>
      <point x="168" y="724"/>
      <point x="168" y="685" type="curve" smooth="yes"/>
      <point x="168" y="666"/>
      <point x="176" y="637"/>
      <point x="187" y="600" type="curve" smooth="yes"/>
      <point x="199" y="560" type="line"/>
      <point x="165" y="584" type="line" smooth="yes"/>
      <point x="115" y="619"/>
      <point x="93" y="634"/>
      <point x="69" y="634" type="curve" smooth="yes"/>
      <point x="39" y="634"/>
      <point x="20" y="610"/>
      <point x="20" y="580" type="curve" smooth="yes"/>
      <point x="20" y="544"/>
      <point x="47" y="529"/>
      <point x="147" y="527" type="curve" smooth="yes"/>
      <point x="188" y="526" type="line"/>
      <point x="155" y="502" type="line" smooth="yes"/>
      <point x="91" y="456"/>
      <point x="75" y="434"/>
      <point x="75" y="409" type="curve" smooth="yes"/>
      <point x="75" y="381"/>
      <point x="100" y="360"/>
      <point x="127" y="360" type="curve" smooth="yes"/>
      <point x="154" y="360"/>
      <point x="175" y="382"/>
      <point x="204" y="467" type="curve" smooth="yes"/>
      <point x="217" y="505" type="line"/>
      <point x="230" y="467" type="line" smooth="yes"/>
      <point x="260" y="378"/>
      <point x="279" y="360"/>
      <point x="306" y="360" type="curve" smooth="yes"/>
      <point x="334" y="360"/>
      <point x="358" y="379"/>
      <point x="358" y="408" type="curve" smooth="yes"/>
      <point x="358" y="433"/>
      <point x="338" y="459"/>
      <point x="279" y="502" type="curve" smooth="yes"/>
      <point x="246" y="526" type="line"/>
      <point x="287" y="527" type="line" smooth="yes"/>
      <point x="390" y="529"/>
      <point x="414" y="544"/>
      <point x="414" y="580" type="curve" smooth="yes"/>
      <point x="414" y="611"/>
      <point x="395" y="633"/>
      <point x="366" y="633" type="curve" smooth="yes"/>
      <point x="342" y="633"/>
      <point x="315" y="617"/>
      <point x="269" y="584" type="curve" smooth="yes"/>
      <point x="235" y="560" type="line"/>
      <point x="247" y="600" type="line" smooth="yes"/>
      <point x="259" y="639"/>
      <point x="267" y="666"/>
      <point x="267" y="685" type="curve" smooth="yes"/>
      <point x="267" y="724"/>
      <point x="246" y="740"/>
    </contour>
  </outline>
</glyph>
<glyph name="plus" format="1">
  <advance width="530"/>
  <unicode hex="002B"/>
  <outline>
    <contour>
      <point x="223" y="72" type="line"/>
      <point x="307" y="72" type="line"/>
      <point x="307" y="573" type="line"/>
      <point x="223" y="573" type="line"/>
    </contour>
    <contour>
      <point x="500" y="285" type="line"/>
      <point x="500" y="365" type="line"/>
      <point x="30" y="365" type="line"/>
      <point x="30" y="285" type="line"/>
    </contour>
  </outline>
</glyph>
<glyph name="comma" format="1">
  <advance width="300"/>
  <unicode hex="002C"/>
  <outline>
    <contour>
      <point x="233" y="42" type="curve" smooth="yes"/>
      <point x="233" y="73"/>
      <point x="227" y="96"/>
      <point x="220" y="124" type="curve"/>
      <point x="197" y="148"/>
      <point x="173" y="154"/>
      <point x="153" y="154" type="curve" smooth="yes"/>
      <point x="102" y="154"/>
      <point x="68" y="115"/>
      <point x="68" y="71" type="curve" smooth="yes"/>
      <point x="68" y="42"/>
      <point x="83" y="10"/>
      <point x="121" y="-14" type="curve"/>
      <point x="183" y="-53" type="line"/>
      <point x="164" y="-5" type="line"/>
      <point x="143" y="-76"/>
      <point x="94" y="-130"/>
      <point x="19" y="-169" type="curve"/>
      <point x="33" y="-208" type="line"/>
      <point x="127" y="-182"/>
      <point x="233" y="-87"/>
    </contour>
  </outline>
</glyph>
<glyph name="hyphen" format="1">
  <advance width="330"/>
  <unicode hex="002D"/>
  <outline>
    <contour>
      <point x="40" y="209" type="line"/>
      <point x="290" y="209" type="line"/>
      <point x="290" y="293" type="line"/>
      <point x="40" y="293" type="line"/>
    </contour>
  </outline>
</glyph>
<glyph name="period" format="1">
  <advance width="300"/>
  <unicode hex="002E"/>
  <outline>
    <contour>
      <point x="150" y="-15" type="curve" smooth="yes"/>
      <point x="197" y="-15"/>
      <point x="234" y="23"/>
      <point x="234" y="69" type="curve" smooth="yes"/>
      <point x="234" y="116"/>
      <point x="197" y="154"/>
      <point x="150" y="154" type="curve" smooth="yes"/>
      <point x="103" y="154"/>
      <point x="66" y="116"/>
      <point x="66" y="69" type="curve" smooth="yes"/>
      <point x="66" y="23"/>
      <point x="103" y="-15"/>
    </contour>
  </outline>
</glyph>
<glyph name="slash" format="1">
  <advance width="368"/>
  <unicode hex="002F"/>
  <outline>
    <contour>
      <point x="4" y="-160" type="line"/>
      <point x="97" y="-160" type="line"/>
      <point x="364" y="710" type="line"/>
      <point x="271" y="710" type="line"/>
    </contour>
  </outline>
</glyph>
<glyph name="zero" format="1">
  <advance width="528"/>
  <unicode hex="0030"/>
  <outline>
    <contour>
      <point x="175" y="319" type="curve" smooth="yes"/>
      <point x="175" y="564"/>
      <point x="212" y="603"/>
      <point x="264" y="603" type="curve" smooth="yes"/>
      <point x="316" y="603"/>
      <point x="353" y="563"/>
      <point x="353" y="319" type="curve" smooth="yes"/>
      <point x="353" y="75"/>
      <point x="316" y="35"/>
      <point x="264" y="35" type="curve" smooth="yes"/>
      <point x="212" y="35"/>
      <point x="175" y="74"/>
    </contour>
    <contour>
      <point x="264" y="653" type="curve" smooth="yes"/>
      <point x="148" y="653"/>
      <point x="37" y="556"/>
      <point x="37" y="319" type="curve" smooth="yes"/>
      <point x="37" y="82"/>
      <point x="148" y="-15"/>
      <point x="264" y="-15" type="curve" smooth="yes"/>
      <point x="380" y="-15"/>
      <point x="491" y="82"/>
      <point x="491" y="319" type="curve" smooth="yes"/>
      <point x="491" y="556"/>
      <point x="380" y="653"/>
    </contour>
  </outline>
</glyph>
<glyph name="one" format="1">
  <advance width="528"/>
  <unicode hex="0031"/>
  <outline>
    <contour>
      <point x="110" y="597" type="line"/>
      <point x="110" y="547" type="line"/>
      <point x="198" y="557" type="line"/>
      <point x="198" y="209" type="line" smooth="yes"/>
      <point x="198" y="140"/>
      <point x="197" y="69"/>
      <point x="195" y="0" type="curve"/>
      <point x="337" y="0" type="line"/>
      <point x="335" y="69"/>
      <point x="334" y="140"/>
      <point x="334" y="209" type="curve" smooth="yes"/>
      <point x="334" y="497" type="line"/>
      <point x="338" y="639" type="line"/>
      <point x="324" y="648" type="line"/>
    </contour>
    <contour>
      <point x="332" y="71" type="line"/>
      <point x="202" y="71" type="line"/>
      <point x="69" y="44" type="line"/>
      <point x="69" y="0" type="line"/>
      <point x="460" y="0" type="line"/>
      <point x="460" y="44" type="line"/>
    </contour>
  </outline>
</glyph>
<glyph name="less" format="1">
  <advance width="530"/>
  <unicode hex="003C"/>
  <outline>
    <contour>
      <point x="35" y="292" type="line"/>
      <point x="418" y="73" type="line"/>
      <point x="462" y="150" type="line"/>
      <point x="96" y="348" type="line"/>
      <point x="96" y="302" type="line"/>
      <point x="462" y="500" type="line"/>
      <point x="418" y="577" type="line"/>
      <point x="35" y="358" type="line"/>
    </contour>
  </outline>
</glyph>
<glyph name="question" format="1">
  <advance width="471"/>
  <unicode hex="003F"/>
  <outline>
    <contour>
      <point x="159" y="-15" type="curve" smooth="yes"/>
      <point x="206" y="-15"/>
      <point x="243" y="23"/>
      <point x="243" y="69" type="curve" smooth="yes"/>
      <point x="243" y="116"/>
      <point x="206" y="154"/>
      <point x="159" y="154" type="curve" smooth="yes"/>
      <point x="112" y="154"/>
      <point x="75" y="116"/>
      <point x="75" y="69" type="curve" smooth="yes"/>
      <point x="75" y="23"/>
      <point x="112" y="-15"/>
    </contour>
    <contour>
      <point x="401" y="453" type="curve" smooth="yes"/>
      <point x="401" y="554"/>
      <point x="330" y="644"/>
      <point x="138" y="670" type="curve"/>
      <point x="97" y="668"/>
      <point x="71" y="640"/>
      <point x="71" y="605" type="curve" smooth="yes"/>
      <point x="71" y="565"/>
      <point x="103" y="534"/>
      <point x="165" y="534" type="curve" smooth="yes"/>
      <point x="205" y="534"/>
      <point x="274" y="544"/>
      <point x="324" y="551" type="curve"/>
      <point x="273" y="615" type="line"/>
      <point x="303" y="563"/>
      <point x="321" y="539"/>
      <point x="321" y="509" type="curve" smooth="yes"/>
      <point x="321" y="484"/>
      <point x="308" y="469"/>
      <point x="267" y="451" type="curve" smooth="yes"/>
      <point x="182" y="414" type="line" smooth="yes"/>
      <point x="134" y="393"/>
      <point x="115" y="373"/>
      <point x="115" y="330" type="curve" smooth="yes"/>
      <point x="115" y="313"/>
      <point x="118" y="299"/>
      <point x="123" y="274" type="curve" smooth="yes"/>
      <point x="131" y="235" type="line"/>
      <point x="173" y="235" type="line"/>
      <point x="178" y="256" type="line" smooth="yes"/>
      <point x="183" y="277"/>
      <point x="189" y="287"/>
      <point x="231" y="302" type="curve" smooth="yes"/>
      <point x="296" y="325" type="line" smooth="yes"/>
      <point x="363" y="349"/>
      <point x="401" y="384"/>
    </contour>
  </outline>
</glyph>
<glyph name="at" format="1">
  <advance width="929"/>
  <unicode hex="0040"/>
  <outline>
    <contour>
      <point x="438" y="114" type="curve" smooth="yes"/>
      <point x="396" y="114"/>
      <point x="370" y="145"/>
      <point x="370" y="207" type="curve" smooth="yes"/>
      <point x="370" y="270"/>
      <point x="389" y="320"/>
      <point x="421" y="361" type="curve" smooth="yes"/>
      <point x="452" y="401"/>
      <point x="485" y="417"/>
      <point x="519" y="417" type="curve" smooth="yes"/>
      <point x="548" y="417"/>
      <point x="574" y="404"/>
      <point x="596" y="353" type="curve"/>
      <point x="635" y="407" type="line"/>
      <point x="608" y="453"/>
      <point x="566" y="480"/>
      <point x="511" y="480" type="curve" smooth="yes"/>
      <point x="456" y="480"/>
      <point x="396" y="449"/>
      <point x="349" y="401" type="curve" smooth="yes"/>
      <point x="292" y="342"/>
      <point x="256" y="260"/>
      <point x="256" y="173" type="curve" smooth="yes"/>
      <point x="256" y="77"/>
      <point x="308" y="34"/>
      <point x="374" y="34" type="curve" smooth="yes"/>
      <point x="449" y="34"/>
      <point x="504" y="80"/>
      <point x="571" y="176" type="curve"/>
      <point x="566" y="200" type="line"/>
      <point x="496" y="132"/>
      <point x="471" y="114"/>
    </contour>
    <contour>
      <point x="508" y="608" type="curve" smooth="yes"/>
      <point x="685" y="608"/>
      <point x="803" y="526"/>
      <point x="803" y="326" type="curve" smooth="yes"/>
      <point x="803" y="170"/>
      <point x="744" y="104"/>
      <point x="672" y="104" type="curve" smooth="yes"/>
      <point x="630" y="104"/>
      <point x="619" y="127"/>
      <point x="629" y="182" type="curve" smooth="yes"/>
      <point x="681" y="456" type="line"/>
      <point x="662" y="473" type="line"/>
      <point x="561" y="423" type="line"/>
      <point x="513" y="165" type="line" smooth="yes"/>
      <point x="502" y="105"/>
      <point x="538" y="34"/>
      <point x="635" y="34" type="curve" smooth="yes"/>
      <point x="776" y="34"/>
      <point x="894" y="150"/>
      <point x="894" y="338" type="curve" smooth="yes"/>
      <point x="894" y="537"/>
      <point x="750" y="670"/>
      <point x="528" y="670" type="curve" smooth="yes"/>
      <point x="253" y="670"/>
      <point x="35" y="484"/>
      <point x="35" y="191" type="curve" smooth="yes"/>
      <point x="35" y="-30"/>
      <point x="175" y="-185"/>
      <point x="423" y="-185" type="curve" smooth="yes"/>
      <point x="511" y="-185"/>
      <point x="581" y="-168"/>
      <point x="644" y="-131" type="curve"/>
      <point x="626" y="-85" type="line"/>
      <point x="574" y="-108"/>
      <point x="528" y="-123"/>
      <point x="439" y="-123" type="curve" smooth="yes"/>
      <point x="230" y="-123"/>
      <point x="126" y="25"/>
      <point x="126" y="194" type="curve" smooth="yes"/>
      <point x="126" y="457"/>
      <point x="324" y="608"/>
    </contour>
  </outline>
</glyph>
<glyph name="A" format="1">
  <advance width="673"/>
  <unicode hex="0041"/>
  <outline>
    <contour>
      <point x="492" y="64" type="line"/>
      <point x="375" y="49" type="line"/>
      <point x="375" y="0" type="line"/>
      <point x="669" y="0" type="line"/>
      <point x="669" y="49" type="line"/>
      <point x="542" y="64" type="line"/>
    </contour>
    <contour>
      <point x="107" y="65" type="line"/>
      <point x="5" y="50" type="line"/>
      <point x="5" y="0" type="line"/>
      <point x="230" y="0" type="line"/>
      <point x="230" y="50" type="line"/>
      <point x="126" y="65" type="line"/>
    </contour>
    <contour>
      <point x="476" y="204" type="line"/>
      <point x="456" y="259" type="line"/>
      <point x="195" y="259" type="line"/>
      <point x="174" y="204" type="line"/>
    </contour>
    <contour>
      <point x="316" y="655" type="line"/>
      <point x="70" y="0" type="line"/>
      <point x="126" y="0" type="line"/>
      <point x="318" y="516" type="line"/>
      <point x="293" y="516" type="line"/>
      <point x="478" y="0" type="line"/>
      <point x="625" y="0" type="line"/>
      <point x="376" y="655" type="line"/>
    </contour>
  </outline>
</glyph>
<glyph name="B" format="1">
  <advance width="636"/>
  <unicode hex="0042"/>
  <outline>
    <contour>
      <point x="115" y="310" type="line" smooth="yes"/>
      <point x="115" y="205"/>
      <point x="115" y="101"/>
      <point x="112" y="0" type="curve"/>
      <point x="264" y="0" type="line"/>
      <point x="261" y="103"/>
      <point x="261" y="207"/>
      <point x="261" y="322" type="curve" smooth="yes"/>
      <point x="261" y="345" type="line" smooth="yes"/>
      <point x="261" y="450"/>
      <point x="261" y="554"/>
      <point x="264" y="655" type="curve"/>
      <point x="112" y="655" type="line"/>
      <point x="115" y="552"/>
      <point x="115" y="448"/>
      <point x="115" y="345" type="curve" smooth="yes"/>
    </contour>
    <contour>
      <point x="175" y="590" type="line"/>
      <point x="188" y="590" type="line"/>
      <point x="188" y="655" type="line"/>
      <point x="32" y="655" type="line"/>
      <point x="32" y="605" type="line"/>
    </contour>
    <contour>
      <point x="175" y="65" type="line"/>
      <point x="32" y="50" type="line"/>
      <point x="32" y="0" type="line"/>
      <point x="188" y="0" type="line"/>
      <point x="188" y="65" type="line"/>
    </contour>
    <contour>
      <point x="188" y="318" type="line"/>
      <point x="301" y="318" type="line" smooth="yes"/>
      <point x="422" y="318"/>
      <point x="466" y="279"/>
      <point x="466" y="188" type="curve" smooth="yes"/>
      <point x="466" y="105"/>
      <point x="433" y="55"/>
      <point x="293" y="55" type="curve" smooth="yes"/>
      <point x="188" y="55" type="line"/>
      <point x="188" y="0" type="line"/>
      <point x="298" y="0" type="line" smooth="yes"/>
      <point x="557" y="0"/>
      <point x="611" y="96"/>
      <point x="611" y="186" type="curve" smooth="yes"/>
      <point x="611" y="270"/>
      <point x="562" y="339"/>
      <point x="417" y="352" type="curve"/>
      <point x="417" y="340" type="line"/>
      <point x="534" y="355"/>
      <point x="574" y="418"/>
      <point x="574" y="491" type="curve" smooth="yes"/>
      <point x="574" y="590"/>
      <point x="504" y="655"/>
      <point x="346" y="655" type="curve" smooth="yes"/>
      <point x="188" y="655" type="line"/>
      <point x="188" y="600" type="line"/>
      <point x="312" y="600" type="line" smooth="yes"/>
      <point x="398" y="600"/>
      <point x="436" y="563"/>
      <point x="436" y="487" type="curve" smooth="yes"/>
      <point x="436" y="412"/>
      <point x="394" y="371"/>
      <point x="298" y="371" type="curve" smooth="yes"/>
      <point x="188" y="371" type="line"/>
    </contour>
  </outline>
</glyph>
<glyph name="C" format="1">
  <advance width="622"/>
  <unicode hex="0043"/>
  <outline>
    <contour>
      <point x="393" y="40" type="curve" smooth="yes"/>
      <point x="275" y="40"/>
      <point x="183" y="140"/>
      <point x="183" y="327" type="curve" smooth="yes"/>
      <point x="183" y="515"/>
      <point x="275" y="615"/>
      <point x="393" y="615" type="curve" smooth="yes"/>
      <point x="449" y="615"/>
      <point x="500" y="592"/>
      <point x="554" y="552" type="curve"/>
      <point x="473" y="626" type="line"/>
      <point x="498" y="471" type="line"/>
      <point x="577" y="471" type="line"/>
      <point x="573" y="623" type="line"/>
      <point x="512" y="658"/>
      <point x="456" y="670"/>
      <point x="392" y="670" type="curve" smooth="yes"/>
      <point x="184" y="670"/>
      <point x="30" y="554"/>
      <point x="30" y="327" type="curve" smooth="yes"/>
      <point x="30" y="100"/>
      <point x="177" y="-15"/>
      <point x="382" y="-15" type="curve" smooth="yes"/>
      <point x="457" y="-15"/>
      <point x="527" y="2"/>
      <point x="583" y="32" type="curve"/>
      <point x="587" y="184" type="line"/>
      <point x="507" y="184" type="line"/>
      <point x="483" y="29" type="line"/>
      <point x="564" y="103" type="line"/>
      <point x="516" y="63"/>
      <point x="451" y="40"/>
    </contour>
  </outline>
</glyph>
<glyph name="D" format="1">
  <advance width="692"/>
  <unicode hex="0044"/>
  <outline>
    <contour>
      <point x="115" y="320" type="line" smooth="yes"/>
      <point x="115" y="205"/>
      <point x="115" y="101"/>
      <point x="112" y="0" type="curve"/>
      <point x="264" y="0" type="line"/>
      <point x="261" y="103"/>
      <point x="261" y="207"/>
      <point x="261" y="320" type="curve" smooth="yes"/>
      <point x="261" y="345" type="line" smooth="yes"/>
      <point x="261" y="450"/>
      <point x="261" y="554"/>
      <point x="264" y="655" type="curve"/>
      <point x="112" y="655" type="line"/>
      <point x="115" y="552"/>
      <point x="115" y="448"/>
      <point x="115" y="345" type="curve" smooth="yes"/>
    </contour>
    <contour>
      <point x="175" y="590" type="line"/>
      <point x="188" y="590" type="line"/>
      <point x="188" y="655" type="line"/>
      <point x="32" y="655" type="line"/>
      <point x="32" y="605" type="line"/>
    </contour>
    <contour>
      <point x="175" y="65" type="line"/>
      <point x="32" y="50" type="line"/>
      <point x="32" y="0" type="line"/>
      <point x="188" y="0" type="line"/>
      <point x="188" y="65" type="line"/>
    </contour>
    <contour>
      <point x="188" y="0" type="line"/>
      <point x="314" y="0" type="line" smooth="yes"/>
      <point x="515" y="0"/>
      <point x="662" y="115"/>
      <point x="662" y="332" type="curve" smooth="yes"/>
      <point x="662" y="540"/>
      <point x="530" y="655"/>
      <point x="334" y="655" type="curve"/>
      <point x="188" y="655" type="line"/>
      <point x="188" y="600" type="line"/>
      <point x="298" y="600" type="line" smooth="yes"/>
      <point x="425" y="600"/>
      <point x="509" y="505"/>
      <point x="509" y="328" type="curve" smooth="yes"/>
      <point x="509" y="151"/>
      <point x="425" y="55"/>
      <point x="299" y="55" type="curve" smooth="yes"/>
      <point x="188" y="55" type="line"/>
    </contour>
  </outline>
</glyph>
<glyph name="E" format="1">
  <advance width="598"/>
  <unicode hex="0045"/>
  <outline>
    <contour>
      <point x="175" y="590" type="line"/>
      <point x="188" y="590" type="line"/>
      <point x="188" y="655" type="line"/>
      <point x="32" y="655" type="line"/>
      <point x="32" y="605" type="line"/>
    </contour>
    <contour>
      <point x="175" y="65" type="line"/>
      <point x="32" y="50" type="line"/>
      <point x="32" y="0" type="line"/>
      <point x="188" y="0" type="line"/>
      <point x="188" y="65" type="line"/>
    </contour>
    <contour>
      <point x="115" y="310" type="line" smooth="yes"/>
      <point x="115" y="205"/>
      <point x="115" y="101"/>
      <point x="112" y="0" type="curve"/>
      <point x="264" y="0" type="line"/>
      <point x="261" y="103"/>
      <point x="261" y="207"/>
      <point x="261" y="320" type="curve" smooth="yes"/>
      <point x="261" y="345" type="line" smooth="yes"/>
      <point x="261" y="450"/>
      <point x="261" y="554"/>
      <point x="264" y="655" type="curve"/>
      <point x="112" y="655" type="line"/>
      <point x="115" y="552"/>
      <point x="115" y="448"/>
      <point x="115" y="345" type="curve" smooth="yes"/>
    </contour>
    <contour>
      <point x="387" y="333" type="line"/>
      <point x="402" y="224" type="line"/>
      <point x="456" y="224" type="line"/>
      <point x="456" y="456" type="line"/>
      <point x="402" y="456" type="line"/>
      <point x="387" y="352" type="line"/>
    </contour>
    <contour>
      <point x="498" y="174" type="line"/>
      <point x="468" y="0" type="line"/>
      <point x="532" y="54" type="line"/>
      <point x="188" y="54" type="line"/>
      <point x="188" y="0" type="line"/>
      <point x="566" y="0" type="line"/>
      <point x="573" y="174" type="line"/>
    </contour>
    <contour>
      <point x="478" y="481" type="line"/>
      <point x="553" y="481" type="line"/>
      <point x="546" y="655" type="line"/>
      <point x="188" y="655" type="line"/>
      <point x="188" y="600" type="line"/>
      <point x="512" y="600" type="line"/>
      <point x="448" y="655" type="line"/>
    </contour>
    <contour>
      <point x="418" y="367" type="line"/>
      <point x="188" y="367" type="line"/>
      <point x="188" y="312" type="line"/>
      <point x="418" y="312" type="line"/>
    </contour>
  </outline>
</glyph>
<glyph name="F" format="1">
  <advance width="583"/>
  <unicode hex="0046"/>
  <outline>
    <contour>
      <point x="175" y="65" type="line"/>
      <point x="32" y="50" type="line"/>
      <point x="32" y="0" type="line"/>
      <point x="354" y="0" type="line"/>
      <point x="354" y="50" type="line"/>
      <point x="219" y="65" type="line"/>
    </contour>
    <contour>
      <point x="115" y="310" type="line" smooth="yes"/>
      <point x="115" y="205"/>
      <point x="115" y="101"/>
      <point x="112" y="0" type="curve"/>
      <point x="264" y="0" type="line"/>
      <point x="261" y="103"/>
      <point x="261" y="207"/>
      <point x="261" y="320" type="curve" smooth="yes"/>
      <point x="261" y="345" type="line" smooth="yes"/>
      <point x="261" y="450"/>
      <point x="261" y="554"/>
      <point x="264" y="655" type="curve"/>
      <point x="112" y="655" type="line"/>
      <point x="115" y="552"/>
      <point x="115" y="448"/>
      <point x="115" y="345" type="curve" smooth="yes"/>
    </contour>
    <contour>
      <point x="175" y="590" type="line"/>
      <point x="188" y="590" type="line"/>
      <point x="188" y="655" type="line"/>
      <point x="32" y="655" type="line"/>
      <point x="32" y="605" type="line"/>
    </contour>
    <contour>
      <point x="478" y="481" type="line"/>
      <point x="553" y="481" type="line"/>
      <point x="546" y="655" type="line"/>
      <point x="188" y="655" type="line"/>
      <point x="188" y="600" type="line"/>
      <point x="512" y="600" type="line"/>
      <point x="448" y="655" type="line"/>
    </contour>
    <contour>
      <point x="392" y="323" type="line"/>
      <point x="407" y="214" type="line"/>
      <point x="461" y="214" type="line"/>
      <point x="461" y="456" type="line"/>
      <point x="407" y="456" type="line"/>
      <point x="392" y="352" type="line"/>
    </contour>
    <contour>
      <point x="423" y="367" type="line"/>
      <point x="188" y="367" type="line"/>
      <point x="188" y="312" type="line"/>
      <point x="423" y="312" type="line"/>
    </contour>
  </outline>
</glyph>
<glyph name="G" format="1">
  <advance width="674"/>
  <unicode hex="0047"/>
  <outline>
    <contour>
      <point x="499" y="246" type="line"/>
      <point x="535" y="246" type="line"/>
      <point x="650" y="261" type="line"/>
      <point x="650" y="311" type="line"/>
      <point x="374" y="311" type="line"/>
      <point x="374" y="261" type="line"/>
    </contour>
    <contour>
      <point x="594" y="86" type="line" smooth="yes"/>
      <point x="594" y="162"/>
      <point x="595" y="237"/>
      <point x="597" y="311" type="curve"/>
      <point x="447" y="311" type="line"/>
      <point x="449" y="236"/>
      <point x="450" y="160"/>
      <point x="450" y="86" type="curve" smooth="yes"/>
      <point x="450" y="7" type="line"/>
      <point x="522" y="77" type="line"/>
      <point x="484" y="54"/>
      <point x="442" y="40"/>
      <point x="397" y="40" type="curve" smooth="yes"/>
      <point x="275" y="40"/>
      <point x="183" y="145"/>
      <point x="183" y="327" type="curve" smooth="yes"/>
      <point x="183" y="510"/>
      <point x="265" y="615"/>
      <point x="394" y="615" type="curve" smooth="yes"/>
      <point x="450" y="615"/>
      <point x="498" y="595"/>
      <point x="565" y="544" type="curve"/>
      <point x="484" y="626" type="line"/>
      <point x="508" y="481" type="line"/>
      <point x="588" y="481" type="line"/>
      <point x="584" y="623" type="line"/>
      <point x="514" y="658"/>
      <point x="451" y="670"/>
      <point x="387" y="670" type="curve" smooth="yes"/>
      <point x="168" y="670"/>
      <point x="30" y="524"/>
      <point x="30" y="327" type="curve" smooth="yes"/>
      <point x="30" y="131"/>
      <point x="167" y="-15"/>
      <point x="377" y="-15" type="curve" smooth="yes"/>
      <point x="456" y="-15"/>
      <point x="524" y="5"/>
      <point x="594" y="43" type="curve"/>
    </contour>
  </outline>
</glyph>
<glyph name="H" format="1">
  <advance width="795"/>
  <unicode hex="0048"/>
  <outline>
    <contour>
      <point x="594" y="590" type="line"/>
      <point x="620" y="590" type="line"/>
      <point x="763" y="605" type="line"/>
      <point x="763" y="655" type="line"/>
      <point x="451" y="655" type="line"/>
      <point x="451" y="605" type="line"/>
    </contour>
    <contour>
      <point x="594" y="65" type="line"/>
      <point x="451" y="50" type="line"/>
      <point x="451" y="0" type="line"/>
      <point x="763" y="0" type="line"/>
      <point x="763" y="50" type="line"/>
      <point x="620" y="65" type="line"/>
    </contour>
    <contour>
      <point x="534" y="320" type="line" smooth="yes"/>
      <point x="534" y="205"/>
      <point x="534" y="101"/>
      <point x="531" y="0" type="curve"/>
      <point x="683" y="0" type="line"/>
      <point x="680" y="103"/>
      <point x="680" y="207"/>
      <point x="680" y="310" type="curve" smooth="yes"/>
      <point x="680" y="345" type="line" smooth="yes"/>
      <point x="680" y="450"/>
      <point x="680" y="554"/>
      <point x="683" y="655" type="curve"/>
      <point x="531" y="655" type="line"/>
      <point x="534" y="552"/>
      <point x="534" y="448"/>
      <point x="534" y="345" type="curve" smooth="yes"/>
    </contour>
    <contour>
      <point x="115" y="310" type="line" smooth="yes"/>
      <point x="115" y="205"/>
      <point x="115" y="101"/>
      <point x="112" y="0" type="curve"/>
      <point x="264" y="0" type="line"/>
      <point x="261" y="103"/>
      <point x="261" y="207"/>
      <point x="261" y="320" type="curve" smooth="yes"/>
      <point x="261" y="345" type="line" smooth="yes"/>
      <point x="261" y="450"/>
      <point x="261" y="554"/>
      <point x="264" y="655" type="curve"/>
      <point x="112" y="655" type="line"/>
      <point x="115" y="552"/>
      <point x="115" y="448"/>
      <point x="115" y="345" type="curve" smooth="yes"/>
    </contour>
    <contour>
      <point x="175" y="590" type="line"/>
      <point x="201" y="590" type="line"/>
      <point x="344" y="605" type="line"/>
      <point x="344" y="655" type="line"/>
      <point x="32" y="655" type="line"/>
      <point x="32" y="605" type="line"/>
    </contour>
    <contour>
      <point x="175" y="65" type="line"/>
      <point x="32" y="50" type="line"/>
      <point x="32" y="0" type="line"/>
      <point x="344" y="0" type="line"/>
      <point x="344" y="50" type="line"/>
      <point x="201" y="65" type="line"/>
    </contour>
    <contour>
      <point x="607" y="311" type="line"/>
      <point x="607" y="366" type="line"/>
      <point x="188" y="366" type="line"/>
      <point x="188" y="311" type="line"/>
    </contour>
  </outline>
</glyph>
<glyph name="I" format="1">
  <advance width="376"/>
  <unicode hex="0049"/>
  <outline>
    <contour>
      <point x="175" y="65" type="line"/>
      <point x="32" y="50" type="line"/>
      <point x="32" y="0" type="line"/>
      <point x="344" y="0" type="line"/>
      <point x="344" y="50" type="line"/>
      <point x="201" y="65" type="line"/>
    </contour>
    <contour>
      <point x="175" y="590" type="line"/>
      <point x="201" y="590" type="line"/>
      <point x="344" y="605" type="line"/>
      <point x="344" y="655" type="line"/>
      <point x="32" y="655" type="line"/>
      <point x="32" y="605" type="line"/>
    </contour>
    <contour>
      <point x="115" y="310" type="line" smooth="yes"/>
      <point x="115" y="205"/>
      <point x="115" y="101"/>
      <point x="112" y="0" type="curve"/>
      <point x="264" y="0" type="line"/>
      <point x="261" y="103"/>
      <point x="261" y="207"/>
      <point x="261" y="310" type="curve" smooth="yes"/>
      <point x="261" y="345" type="line" smooth="yes"/>
      <point x="261" y="450"/>
      <point x="261" y="554"/>
      <point x="264" y="655" type="curve"/>
      <point x="112" y="655" type="line"/>
      <point x="115" y="552"/>
      <point x="115" y="448"/>
      <point x="115" y="345" type="curve" smooth="yes"/>
    </contour>
  </outline>
</glyph>
<glyph name="J" format="1">
  <advance width="390"/>
  <unicode hex="004A"/>
  <outline>
    <contour>
      <point x="179" y="590" type="line"/>
      <point x="215" y="590" type="line"/>
      <point x="358" y="605" type="line"/>
      <point x="358" y="655" type="line"/>
      <point x="36" y="655" type="line"/>
      <point x="36" y="605" type="line"/>
    </contour>
    <contour>
      <point x="129" y="266"/>
      <point x="131" y="80"/>
      <point x="131" y="4" type="curve" smooth="yes"/>
      <point x="131" y="-81"/>
      <point x="115" y="-116"/>
      <point x="83" y="-156" type="curve"/>
      <point x="127" y="-151" type="line"/>
      <point x="80" y="-95" type="line" smooth="yes"/>
      <point x="56" y="-67"/>
      <point x="36" y="-57"/>
      <point x="10" y="-57" type="curve" smooth="yes"/>
      <point x="-27" y="-57"/>
      <point x="-60" y="-78"/>
      <point x="-60" y="-119" type="curve"/>
      <point x="-40" y="-167"/>
      <point x="17" y="-180"/>
      <point x="60" y="-180" type="curve" smooth="yes"/>
      <point x="146" y="-180"/>
      <point x="221" y="-130"/>
      <point x="254" y="-25" type="curve" smooth="yes"/>
      <point x="271" y="31"/>
      <point x="275" y="97"/>
      <point x="275" y="205" type="curve" smooth="yes"/>
      <point x="275" y="351" type="line" smooth="yes"/>
      <point x="275" y="454"/>
      <point x="275" y="556"/>
      <point x="278" y="655" type="curve"/>
      <point x="125" y="655" type="line"/>
    </contour>
  </outline>
</glyph>
<glyph name="K" format="1">
  <advance width="701"/>
  <unicode hex="004B"/>
  <outline>
    <contour>
      <point x="115" y="310" type="line" smooth="yes"/>
      <point x="115" y="205"/>
      <point x="115" y="101"/>
      <point x="112" y="0" type="curve"/>
      <point x="264" y="0" type="line"/>
      <point x="261" y="103"/>
      <point x="261" y="207"/>
      <point x="261" y="310" type="curve" smooth="yes"/>
      <point x="261" y="345" type="line" smooth="yes"/>
      <point x="261" y="450"/>
      <point x="261" y="554"/>
      <point x="264" y="655" type="curve"/>
      <point x="112" y="655" type="line"/>
      <point x="115" y="552"/>
      <point x="115" y="448"/>
      <point x="115" y="345" type="curve" smooth="yes"/>
    </contour>
    <contour>
      <point x="175" y="65" type="line"/>
      <point x="32" y="50" type="line"/>
      <point x="32" y="0" type="line"/>
      <point x="344" y="0" type="line"/>
      <point x="344" y="50" type="line"/>
      <point x="201" y="65" type="line"/>
    </contour>
    <contour>
      <point x="175" y="590" type="line"/>
      <point x="201" y="590" type="line"/>
      <point x="344" y="605" type="line"/>
      <point x="344" y="655" type="line"/>
      <point x="32" y="655" type="line"/>
      <point x="32" y="605" type="line"/>
    </contour>
    <contour>
      <point x="510" y="590" type="line"/>
      <point x="536" y="590" type="line"/>
      <point x="655" y="605" type="line"/>
      <point x="655" y="655" type="line"/>
      <point x="429" y="655" type="line"/>
      <point x="429" y="605" type="line"/>
    </contour>
    <contour>
      <point x="315" y="352" type="line"/>
      <point x="493" y="0" type="line"/>
      <point x="654" y="0" type="line"/>
      <point x="401" y="460" type="line"/>
    </contour>
    <contour>
      <point x="188" y="152" type="line"/>
      <point x="602" y="655" type="line"/>
      <point x="532" y="655" type="line"/>
      <point x="188" y="229" type="line"/>
    </contour>
    <contour>
      <point x="405" y="0" type="line"/>
      <point x="701" y="0" type="line"/>
      <point x="701" y="50" type="line"/>
      <point x="563" y="65" type="line"/>
      <point x="545" y="65" type="line"/>
      <point x="405" y="50" type="line"/>
    </contour>
  </outline>
</glyph>
<glyph name="L" format="1">
  <advance width="580"/>
  <unicode hex="004C"/>
  <outline>
    <contour>
      <point x="175" y="65" type="line"/>
      <point x="32" y="50" type="line"/>
      <point x="32" y="0" type="line"/>
      <point x="188" y="0" type="line"/>
      <point x="188" y="65" type="line"/>
    </contour>
    <contour>
      <point x="175" y="590" type="line"/>
      <point x="211" y="590" type="line"/>
      <point x="349" y="605" type="line"/>
      <point x="349" y="655" type="line"/>
      <point x="32" y="655" type="line"/>
      <point x="32" y="605" type="line"/>
    </contour>
    <contour>
      <point x="115" y="345" type="curve" smooth="yes"/>
      <point x="115" y="310" type="line" smooth="yes"/>
      <point x="115" y="205"/>
      <point x="115" y="101"/>
      <point x="112" y="0" type="curve"/>
      <point x="264" y="0" type="line"/>
      <point x="261" y="103"/>
      <point x="261" y="207"/>
      <point x="261" y="310" type="curve" smooth="yes"/>
      <point x="261" y="345" type="line" smooth="yes"/>
      <point x="261" y="450"/>
      <point x="261" y="554"/>
      <point x="264" y="655" type="curve"/>
      <point x="112" y="655" type="line"/>
      <point x="115" y="552"/>
      <point x="115" y="448"/>
    </contour>
    <contour>
      <point x="481" y="194" type="line"/>
      <point x="442" y="0" type="line"/>
      <point x="516" y="55" type="line"/>
      <point x="188" y="55" type="line"/>
      <point x="188" y="0" type="line"/>
      <point x="550" y="0" type="line"/>
      <point x="560" y="194" type="line"/>
    </contour>
  </outline>
</glyph>
<glyph name="M" format="1">
  <advance width="915"/>
  <unicode hex="004D"/>
  <outline>
    <contour>
      <point x="26" y="655" type="line"/>
      <point x="26" y="605" type="line"/>
      <point x="160" y="590" type="line"/>
      <point x="91" y="642" type="line"/>
      <point x="390" y="0" type="line"/>
      <point x="430" y="0" type="line"/>
      <point x="732" y="655" type="line"/>
      <point x="673" y="655" type="line"/>
      <point x="438" y="152" type="line"/>
      <point x="469" y="152" type="line"/>
      <point x="227" y="655" type="line"/>
    </contour>
    <contour>
      <point x="654" y="310" type="line" smooth="yes"/>
      <point x="654" y="205"/>
      <point x="654" y="101"/>
      <point x="651" y="0" type="curve"/>
      <point x="803" y="0" type="line"/>
      <point x="800" y="103"/>
      <point x="800" y="207"/>
      <point x="800" y="310" type="curve" smooth="yes"/>
      <point x="800" y="345" type="line" smooth="yes"/>
      <point x="800" y="450"/>
      <point x="800" y="554"/>
      <point x="803" y="655" type="curve"/>
      <point x="697" y="655" type="line"/>
      <point x="654" y="566" type="line"/>
    </contour>
    <contour>
      <point x="120" y="65" type="line"/>
      <point x="15" y="50" type="line"/>
      <point x="15" y="0" type="line"/>
      <point x="258" y="0" type="line"/>
      <point x="258" y="50" type="line"/>
      <point x="152" y="65" type="line"/>
    </contour>
    <contour>
      <point x="714" y="65" type="line"/>
      <point x="571" y="50" type="line"/>
      <point x="571" y="0" type="line"/>
      <point x="883" y="0" type="line"/>
      <point x="883" y="50" type="line"/>
      <point x="740" y="65" type="line"/>
    </contour>
    <contour>
      <point x="714" y="590" type="line"/>
      <point x="740" y="590" type="line"/>
      <point x="883" y="605" type="line"/>
      <point x="883" y="655" type="line"/>
      <point x="714" y="655" type="line"/>
    </contour>
    <contour>
      <point x="109" y="655" type="line"/>
      <point x="109" y="0" type="line"/>
      <point x="164" y="0" type="line"/>
      <point x="164" y="655" type="line"/>
    </contour>
  </outline>
</glyph>
<glyph name="N" format="1">
  <advance width="761"/>
  <unicode hex="004E"/>
  <outline>
    <contour>
      <point x="642" y="50" type="line"/>
      <point x="642" y="655" type="line"/>
      <point x="584" y="655" type="line"/>
      <point x="584" y="50" type="line"/>
    </contour>
    <contour>
      <point x="628" y="590" type="line"/>
      <point x="735" y="605" type="line"/>
      <point x="735" y="655" type="line"/>
      <point x="469" y="655" type="line"/>
      <point x="469" y="605" type="line"/>
      <point x="602" y="590" type="line"/>
    </contour>
    <contour>
      <point x="137" y="65" type="line"/>
      <point x="26" y="50" type="line"/>
      <point x="26" y="0" type="line"/>
      <point x="292" y="0" type="line"/>
      <point x="292" y="50" type="line"/>
      <point x="163" y="65" type="line"/>
    </contour>
    <contour>
      <point x="119" y="655" type="line"/>
      <point x="119" y="0" type="line"/>
      <point x="178" y="0" type="line"/>
      <point x="178" y="655" type="line"/>
    </contour>
    <contour>
      <point x="36" y="655" type="line"/>
      <point x="36" y="604" type="line"/>
      <point x="148" y="593" type="line"/>
      <point x="94" y="610" type="line"/>
      <point x="592" y="-10" type="line"/>
      <point x="642" y="-10" type="line"/>
      <point x="642" y="139" type="line"/>
      <point x="233" y="655" type="line"/>
    </contour>
  </outline>
</glyph>
<glyph name="O" format="1">
  <advance width="708"/>
  <unicode hex="004F"/>
  <outline>
    <contour>
      <point x="185" y="327" type="curve" smooth="yes"/>
      <point x="185" y="472"/>
      <point x="232" y="615"/>
      <point x="354" y="615" type="curve" smooth="yes"/>
      <point x="476" y="615"/>
      <point x="523" y="472"/>
      <point x="523" y="327" type="curve" smooth="yes"/>
      <point x="523" y="184"/>
      <point x="476" y="40"/>
      <point x="354" y="40" type="curve" smooth="yes"/>
      <point x="232" y="40"/>
      <point x="185" y="184"/>
    </contour>
    <contour>
      <point x="354" y="670" type="curve" smooth="yes"/>
      <point x="197" y="670"/>
      <point x="32" y="556"/>
      <point x="32" y="327" type="curve" smooth="yes"/>
      <point x="32" y="99"/>
      <point x="196" y="-15"/>
      <point x="354" y="-15" type="curve" smooth="yes"/>
      <point x="512" y="-15"/>
      <point x="676" y="99"/>
      <point x="676" y="327" type="curve" smooth="yes"/>
      <point x="676" y="556"/>
      <point x="511" y="670"/>
    </contour>
  </outline>
</glyph>
<glyph name="P" format="1">
  <advance width="604"/>
  <unicode hex="0050"/>
  <outline>
    <contour>
      <point x="175" y="590" type="line"/>
      <point x="188" y="590" type="line"/>
      <point x="188" y="655" type="line"/>
      <point x="32" y="655" type="line"/>
      <point x="32" y="605" type="line"/>
    </contour>
    <contour>
      <point x="175" y="65" type="line"/>
      <point x="32" y="50" type="line"/>
      <point x="32" y="0" type="line"/>
      <point x="354" y="0" type="line"/>
      <point x="354" y="50" type="line"/>
      <point x="219" y="65" type="line"/>
    </contour>
    <contour>
      <point x="115" y="310" type="line" smooth="yes"/>
      <point x="115" y="205"/>
      <point x="115" y="101"/>
      <point x="112" y="0" type="curve"/>
      <point x="264" y="0" type="line"/>
      <point x="261" y="101"/>
      <point x="261" y="209"/>
      <point x="261" y="304" type="curve" smooth="yes"/>
      <point x="261" y="345" type="line" smooth="yes"/>
      <point x="261" y="450"/>
      <point x="261" y="554"/>
      <point x="264" y="655" type="curve"/>
      <point x="112" y="655" type="line"/>
      <point x="115" y="552"/>
      <point x="115" y="448"/>
      <point x="115" y="345" type="curve" smooth="yes"/>
    </contour>
    <contour>
      <point x="584" y="460" type="curve" smooth="yes"/>
      <point x="584" y="578"/>
      <point x="501" y="655"/>
      <point x="302" y="655" type="curve" smooth="yes"/>
      <point x="188" y="655" type="line"/>
      <point x="188" y="600" type="line"/>
      <point x="294" y="600" type="line" smooth="yes"/>
      <point x="398" y="600"/>
      <point x="446" y="548"/>
      <point x="446" y="457" type="curve" smooth="yes"/>
      <point x="446" y="369"/>
      <point x="398" y="309"/>
      <point x="292" y="309" type="curve" smooth="yes"/>
      <point x="188" y="309" type="line"/>
      <point x="188" y="254" type="line"/>
      <point x="276" y="254" type="line" smooth="yes"/>
      <point x="521" y="254"/>
      <point x="584" y="356"/>
    </contour>
  </outline>
</glyph>
<glyph name="Q" format="1">
  <advance width="708"/>
  <unicode hex="0051"/>
  <outline>
    <contour>
      <point x="490" y="-207" type="curve" smooth="yes"/>
      <point x="535" y="-207"/>
      <point x="584" y="-197"/>
      <point x="618" y="-175" type="curve"/>
      <point x="603" y="-135" type="line"/>
      <point x="577" y="-144"/>
      <point x="552" y="-147"/>
      <point x="531" y="-147" type="curve" smooth="yes"/>
      <point x="458" y="-147"/>
      <point x="404" y="-94"/>
      <point x="412" y="25" type="curve"/>
      <point x="273" y="36" type="line"/>
      <point x="273" y="7" type="line" smooth="yes"/>
      <point x="273" y="-126"/>
      <point x="368" y="-207"/>
    </contour>
    <component base="O" xOffset="-1"/>
  </outline>
</glyph>
<glyph name="R" format="1">
  <advance width="671"/>
  <unicode hex="0052"/>
  <outline>
    <contour>
      <point x="175" y="65" type="line"/>
      <point x="32" y="50" type="line"/>
      <point x="32" y="0" type="line"/>
      <point x="344" y="0" type="line"/>
      <point x="344" y="50" type="line"/>
      <point x="201" y="65" type="line"/>
    </contour>
    <contour>
      <point x="115" y="310" type="line" smooth="yes"/>
      <point x="115" y="205"/>
      <point x="115" y="101"/>
      <point x="112" y="0" type="curve"/>
      <point x="262" y="0" type="line"/>
      <point x="259" y="103"/>
      <point x="259" y="207"/>
      <point x="259" y="310" type="curve" smooth="yes"/>
      <point x="259" y="345" type="line" smooth="yes"/>
      <point x="259" y="450"/>
      <point x="259" y="554"/>
      <point x="262" y="655" type="curve"/>
      <point x="112" y="655" type="line"/>
      <point x="115" y="552"/>
      <point x="115" y="448"/>
      <point x="115" y="345" type="curve" smooth="yes"/>
    </contour>
    <contour>
      <point x="175" y="590" type="line"/>
      <point x="188" y="590" type="line"/>
      <point x="188" y="655" type="line"/>
      <point x="32" y="655" type="line"/>
      <point x="32" y="605" type="line"/>
    </contour>
    <contour>
      <point x="188" y="294" type="line"/>
      <point x="290" y="294" type="line" smooth="yes"/>
      <point x="356" y="294"/>
      <point x="387" y="272"/>
      <point x="400" y="207" type="curve" smooth="yes"/>
      <point x="426" y="74" type="line" smooth="yes"/>
      <point x="439" y="5"/>
      <point x="491" y="-10"/>
      <point x="567" y="-10" type="curve" smooth="yes"/>
      <point x="595" y="-10"/>
      <point x="624" y="-8"/>
      <point x="664" y="0" type="curve"/>
      <point x="664" y="50" type="line"/>
      <point x="529" y="65" type="line"/>
      <point x="588" y="25" type="line"/>
      <point x="554" y="187" type="line" smooth="yes"/>
      <point x="535" y="277"/>
      <point x="472" y="324"/>
      <point x="378" y="329" type="curve"/>
      <point x="378" y="311" type="line"/>
      <point x="532" y="326"/>
      <point x="582" y="415"/>
      <point x="582" y="490" type="curve" smooth="yes"/>
      <point x="582" y="592"/>
      <point x="494" y="655"/>
      <point x="344" y="655" type="curve" smooth="yes"/>
      <point x="188" y="655" type="line"/>
      <point x="188" y="600" type="line"/>
      <point x="303" y="600" type="line" smooth="yes"/>
      <point x="400" y="600"/>
      <point x="442" y="559"/>
      <point x="442" y="480" type="curve" smooth="yes"/>
      <point x="442" y="408"/>
      <point x="405" y="349"/>
      <point x="303" y="349" type="curve" smooth="yes"/>
      <point x="188" y="349" type="line"/>
    </contour>
  </outline>
</glyph>
<glyph name="S" format="1">
  <advance width="534"/>
  <unicode hex="0053"/>
  <outline>
    <contour>
      <point x="244" y="40" type="curve" smooth="yes"/>
      <point x="182" y="40"/>
      <point x="142" y="63"/>
      <point x="82" y="96" type="curve"/>
      <point x="150" y="24" type="line"/>
      <point x="124" y="184" type="line"/>
      <point x="41" y="184" type="line"/>
      <point x="35" y="37" type="line"/>
      <point x="89" y="4"/>
      <point x="170" y="-15"/>
      <point x="245" y="-15" type="curve" smooth="yes"/>
      <point x="404" y="-15"/>
      <point x="509" y="74"/>
      <point x="509" y="190" type="curve" smooth="yes"/>
      <point x="509" y="267"/>
      <point x="464" y="339"/>
      <point x="321" y="389" type="curve" smooth="yes"/>
      <point x="269" y="407" type="line" smooth="yes"/>
      <point x="201" y="431"/>
      <point x="162" y="459"/>
      <point x="162" y="515" type="curve" smooth="yes"/>
      <point x="162" y="579"/>
      <point x="214" y="615"/>
      <point x="280" y="615" type="curve" smooth="yes"/>
      <point x="334" y="615"/>
      <point x="386" y="591"/>
      <point x="439" y="554" type="curve"/>
      <point x="352" y="632" type="line"/>
      <point x="378" y="481" type="line"/>
      <point x="460" y="481" type="line"/>
      <point x="467" y="618" type="line"/>
      <point x="419" y="651"/>
      <point x="352" y="670"/>
      <point x="279" y="670" type="curve" smooth="yes"/>
      <point x="128" y="670"/>
      <point x="37" y="589"/>
      <point x="37" y="478" type="curve" smooth="yes"/>
      <point x="37" y="379"/>
      <point x="107" y="309"/>
      <point x="225" y="266" type="curve" smooth="yes"/>
      <point x="274" y="248" type="line" smooth="yes"/>
      <point x="346" y="222"/>
      <point x="377" y="197"/>
      <point x="377" y="146" type="curve" smooth="yes"/>
      <point x="377" y="82"/>
      <point x="328" y="40"/>
    </contour>
  </outline>
</glyph>
<glyph name="T" format="1">
  <advance width="644"/>
  <unicode hex="0054"/>
  <outline>
    <contour>
      <point x="299" y="65" type="line"/>
      <point x="156" y="50" type="line"/>
      <point x="156" y="0" type="line"/>
      <point x="488" y="0" type="line"/>
      <point x="488" y="50" type="line"/>
      <point x="345" y="65" type="line"/>
    </contour>
    <contour>
      <point x="249" y="310" type="line" smooth="yes"/>
      <point x="249" y="205"/>
      <point x="249" y="101"/>
      <point x="246" y="0" type="curve"/>
      <point x="398" y="0" type="line"/>
      <point x="395" y="103"/>
      <point x="395" y="207"/>
      <point x="395" y="310" type="curve" smooth="yes"/>
      <point x="395" y="345" type="line" smooth="yes"/>
      <point x="395" y="450"/>
      <point x="395" y="554"/>
      <point x="398" y="655" type="curve"/>
      <point x="246" y="655" type="line"/>
      <point x="249" y="552"/>
      <point x="249" y="448"/>
      <point x="249" y="345" type="curve" smooth="yes"/>
    </contour>
    <contour>
      <point x="585" y="600" type="line"/>
      <point x="521" y="655" type="line"/>
      <point x="549" y="471" type="line"/>
      <point x="624" y="471" type="line"/>
      <point x="619" y="655" type="line"/>
      <point x="25" y="655" type="line"/>
      <point x="20" y="471" type="line"/>
      <point x="95" y="471" type="line"/>
      <point x="123" y="655" type="line"/>
      <point x="59" y="600" type="line"/>
    </contour>
  </outline>
</glyph>
<glyph name="U" format="1">
  <advance width="750"/>
  <unicode hex="0055"/>
  <outline>
    <contour>
      <point x="625" y="594" type="line"/>
      <point x="730" y="605" type="line"/>
      <point x="730" y="655" type="line"/>
      <point x="494" y="655" type="line"/>
      <point x="494" y="605" type="line"/>
      <point x="599" y="594" type="line"/>
    </contour>
    <contour>
      <point x="175" y="590" type="line"/>
      <point x="201" y="590" type="line"/>
      <point x="344" y="605" type="line"/>
      <point x="344" y="655" type="line"/>
      <point x="32" y="655" type="line"/>
      <point x="32" y="605" type="line"/>
    </contour>
    <contour>
      <point x="262" y="283" type="curve" smooth="yes"/>
      <point x="262" y="352" type="line" smooth="yes"/>
      <point x="262" y="454"/>
      <point x="262" y="556"/>
      <point x="265" y="655" type="curve"/>
      <point x="112" y="655" type="line"/>
      <point x="115" y="554"/>
      <point x="115" y="452"/>
      <point x="115" y="352" type="curve" smooth="yes"/>
      <point x="115" y="252" type="line" smooth="yes"/>
      <point x="115" y="64"/>
      <point x="222" y="-15"/>
      <point x="377" y="-15" type="curve" smooth="yes"/>
      <point x="529" y="-15"/>
      <point x="641" y="61"/>
      <point x="641" y="283" type="curve" smooth="yes"/>
      <point x="641" y="655" type="line"/>
      <point x="581" y="655" type="line"/>
      <point x="581" y="283" type="line" smooth="yes"/>
      <point x="581" y="125"/>
      <point x="523" y="70"/>
      <point x="421" y="70" type="curve" smooth="yes"/>
      <point x="320" y="70"/>
      <point x="262" y="125"/>
    </contour>
  </outline>
</glyph>
<glyph name="V" format="1">
  <advance width="650"/>
  <unicode hex="0056"/>
  <outline>
    <contour>
      <point x="550" y="590" type="line"/>
      <point x="645" y="605" type="line"/>
      <point x="645" y="655" type="line"/>
      <point x="419" y="655" type="line"/>
      <point x="419" y="605" type="line"/>
      <point x="524" y="590" type="line"/>
    </contour>
    <contour>
      <point x="166" y="590" type="line"/>
      <point x="301" y="605" type="line"/>
      <point x="301" y="655" type="line"/>
      <point x="5" y="655" type="line"/>
      <point x="5" y="605" type="line"/>
      <point x="140" y="590" type="line"/>
    </contour>
    <contour>
      <point x="304" y="-10" type="line"/>
      <point x="354" y="-10" type="line"/>
      <point x="593" y="655" type="line"/>
      <point x="539" y="655" type="line"/>
      <point x="361" y="163" type="line"/>
      <point x="383" y="163" type="line"/>
      <point x="197" y="655" type="line"/>
      <point x="43" y="655" type="line"/>
    </contour>
  </outline>
</glyph>
<glyph name="W" format="1">
  <advance width="987"/>
  <unicode hex="0057"/>
  <outline>
    <contour>
      <point x="887" y="590" type="line"/>
      <point x="982" y="605" type="line"/>
      <point x="982" y="655" type="line"/>
      <point x="756" y="655" type="line"/>
      <point x="756" y="605" type="line"/>
      <point x="861" y="590" type="line"/>
    </contour>
    <contour>
      <point x="554" y="590" type="line"/>
      <point x="676" y="605" type="line"/>
      <point x="676" y="655" type="line"/>
      <point x="393" y="655" type="line"/>
      <point x="393" y="605" type="line"/>
      <point x="518" y="590" type="line"/>
    </contour>
    <contour>
      <point x="163" y="590" type="line"/>
      <point x="298" y="605" type="line"/>
      <point x="298" y="655" type="line"/>
      <point x="5" y="655" type="line"/>
      <point x="5" y="605" type="line"/>
      <point x="137" y="590" type="line"/>
    </contour>
    <contour>
      <point x="301" y="133" type="line"/>
      <point x="355" y="133" type="line"/>
      <point x="200" y="655" type="line"/>
      <point x="49" y="655" type="line"/>
      <point x="260" y="-10" type="line"/>
      <point x="310" y="-10" type="line"/>
      <point x="504" y="541" type="line"/>
      <point x="467" y="541" type="line"/>
      <point x="663" y="-10" type="line"/>
      <point x="714" y="-10" type="line"/>
      <point x="920" y="655" type="line"/>
      <point x="868" y="655" type="line"/>
      <point x="705" y="133" type="line"/>
      <point x="754" y="133" type="line"/>
      <point x="579" y="655" type="line"/>
      <point x="494" y="655" type="line"/>
    </contour>
  </outline>
</glyph>
<glyph name="X" format="1">
  <advance width="652"/>
  <unicode hex="0058"/>
  <outline>
    <contour>
      <point x="116" y="60" type="line"/>
      <point x="21" y="50" type="line"/>
      <point x="21" y="0" type="line"/>
      <point x="232" y="0" type="line"/>
      <point x="232" y="50" type="line"/>
      <point x="137" y="60" type="line"/>
    </contour>
    <contour>
      <point x="491" y="65" type="line"/>
      <point x="465" y="65" type="line"/>
      <point x="330" y="50" type="line"/>
      <point x="330" y="0" type="line"/>
      <point x="626" y="0" type="line"/>
      <point x="626" y="50" type="line"/>
    </contour>
    <contour>
      <point x="520" y="595" type="line"/>
      <point x="625" y="605" type="line"/>
      <point x="625" y="655" type="line"/>
      <point x="399" y="655" type="line"/>
      <point x="399" y="605" type="line"/>
      <point x="494" y="595" type="line"/>
    </contour>
    <contour>
      <point x="166" y="590" type="line"/>
      <point x="194" y="590" type="line"/>
      <point x="329" y="605" type="line"/>
      <point x="329" y="655" type="line"/>
      <point x="31" y="655" type="line"/>
      <point x="31" y="605" type="line"/>
    </contour>
    <contour>
      <point x="291" y="351" type="line"/>
      <point x="57" y="0" type="line"/>
      <point x="125" y="0" type="line"/>
      <point x="347" y="351" type="line"/>
    </contour>
    <contour>
      <point x="587" y="0" type="line"/>
      <point x="232" y="655" type="line"/>
      <point x="73" y="655" type="line"/>
      <point x="428" y="0" type="line"/>
    </contour>
    <contour>
      <point x="348" y="318" type="line"/>
      <point x="578" y="655" type="line"/>
      <point x="509" y="655" type="line"/>
      <point x="292" y="318" type="line"/>
    </contour>
  </outline>
</glyph>
<glyph name="Y" format="1">
  <advance width="606"/>
  <unicode hex="0059"/>
  <outline>
    <contour>
      <point x="280" y="65" type="line"/>
      <point x="137" y="50" type="line"/>
      <point x="137" y="0" type="line"/>
      <point x="469" y="0" type="line"/>
      <point x="469" y="50" type="line"/>
      <point x="326" y="65" type="line"/>
    </contour>
    <contour>
      <point x="147" y="590" type="line"/>
      <point x="181" y="590" type="line"/>
      <point x="309" y="605" type="line"/>
      <point x="309" y="655" type="line"/>
      <point x="2" y="655" type="line"/>
      <point x="2" y="605" type="line"/>
    </contour>
    <contour>
      <point x="519" y="590" type="line"/>
      <point x="604" y="605" type="line"/>
      <point x="604" y="655" type="line"/>
      <point x="392" y="655" type="line"/>
      <point x="392" y="605" type="line"/>
      <point x="497" y="590" type="line"/>
    </contour>
    <contour>
      <point x="230" y="225" type="line" smooth="yes"/>
      <point x="230" y="131"/>
      <point x="230" y="91"/>
      <point x="227" y="0" type="curve"/>
      <point x="379" y="0" type="line"/>
      <point x="376" y="93"/>
      <point x="376" y="132"/>
      <point x="376" y="225" type="curve" smooth="yes"/>
      <point x="376" y="298" type="line"/>
      <point x="230" y="298" type="line"/>
    </contour>
    <contour>
      <point x="345" y="233" type="line"/>
      <point x="562" y="655" type="line"/>
      <point x="502" y="655" type="line"/>
      <point x="335" y="316" type="line"/>
      <point x="356" y="316" type="line"/>
      <point x="203" y="655" type="line"/>
      <point x="38" y="655" type="line"/>
      <point x="255" y="233" type="line"/>
    </contour>
  </outline>
</glyph>
<glyph name="Z" format="1">
  <advance width="569"/>
  <unicode hex="005A"/>
  <outline>
    <contour>
      <point x="470" y="184" type="line"/>
      <point x="433" y="0" type="line"/>
      <point x="507" y="55" type="line"/>
      <point x="86" y="55" type="line"/>
      <point x="86" y="0" type="line"/>
      <point x="541" y="0" type="line"/>
      <point x="549" y="184" type="line"/>
    </contour>
    <contour>
      <point x="108" y="471" type="line"/>
      <point x="146" y="655" type="line"/>
      <point x="72" y="600" type="line"/>
      <point x="464" y="600" type="line"/>
      <point x="464" y="655" type="line"/>
      <point x="38" y="655" type="line"/>
      <point x="30" y="471" type="line"/>
    </contour>
    <contour>
      <point x="398" y="655" type="line"/>
      <point x="20" y="40" type="line"/>
      <point x="20" y="0" type="line"/>
      <point x="152" y="0" type="line"/>
      <point x="530" y="615" type="line"/>
      <point x="530" y="655" type="line"/>
    </contour>
  </outline>
</glyph>
<glyph name="bracketleft" format="1">
  <advance width="339"/>
  <unicode hex="005B"/>
  <outline>
    <contour>
      <point x="163" y="-159" type="line"/>
      <point x="319" y="-159" type="line"/>
      <point x="319" y="-109" type="line"/>
      <point x="176" y="-94" type="line"/>
      <point x="163" y="-94" type="line"/>
    </contour>
    <contour>
      <point x="163" y="650" type="line"/>
      <point x="176" y="650" type="line"/>
      <point x="319" y="665" type="line"/>
      <point x="319" y="715" type="line"/>
      <point x="163" y="715" type="line"/>
    </contour>
    <contour>
      <point x="103" y="158" type="line" smooth="yes"/>
      <point x="103" y="51"/>
      <point x="103" y="-56"/>
      <point x="100" y="-159" type="curve"/>
      <point x="226" y="-159" type="line"/>
      <point x="223" y="-54"/>
      <point x="223" y="53"/>
      <point x="223" y="158" type="curve" smooth="yes"/>
      <point x="223" y="398" type="line" smooth="yes"/>
      <point x="223" y="505"/>
      <point x="223" y="612"/>
      <point x="226" y="715" type="curve"/>
      <point x="100" y="715" type="line"/>
      <point x="103" y="610"/>
      <point x="103" y="503"/>
      <point x="103" y="398" type="curve" smooth="yes"/>
    </contour>
  </outline>
</glyph>
<glyph name="asciicircum" format="1">
  <advance width="530"/>
  <unicode hex="005E"/>
  <outline>
    <contour>
      <point x="64" y="235" type="line"/>
      <point x="127" y="186" type="line"/>
      <point x="286" y="447" type="line"/>
      <point x="244" y="447" type="line"/>
      <point x="403" y="186" type="line"/>
      <point x="466" y="235" type="line"/>
      <point x="306" y="498" type="line"/>
      <point x="224" y="498" type="line"/>
    </contour>
  </outline>
</glyph>
<glyph name="a" format="1">
  <advance width="508"/>
  <unicode hex="0061"/>
  <outline>
    <contour>
      <point x="405" y="102" type="curve" smooth="yes"/>
      <point x="405" y="317" type="line" smooth="yes"/>
      <point x="405" y="443"/>
      <point x="355" y="490"/>
      <point x="252" y="490" type="curve" smooth="yes"/>
      <point x="152" y="490"/>
      <point x="78" y="441"/>
      <point x="59" y="365" type="curve"/>
      <point x="61" y="340"/>
      <point x="77" y="323"/>
      <point x="104" y="323" type="curve" smooth="yes"/>
      <point x="131" y="323"/>
      <point x="148" y="339"/>
      <point x="157" y="368" type="curve" smooth="yes"/>
      <point x="183" y="456" type="line"/>
      <point x="141" y="427" type="line"/>
      <point x="178" y="442"/>
      <point x="208" y="445"/>
      <point x="231" y="445" type="curve" smooth="yes"/>
      <point x="297" y="445"/>
      <point x="325" y="421"/>
      <point x="325" y="323" type="curve" smooth="yes"/>
      <point x="325" y="92" type="line" smooth="yes"/>
      <point x="325" y="32"/>
      <point x="357" y="-10"/>
      <point x="422" y="-10" type="curve" smooth="yes"/>
      <point x="453" y="-10"/>
      <point x="478" y="0"/>
      <point x="501" y="41" type="curve"/>
      <point x="481" y="63" type="line"/>
      <point x="476" y="58" type="line" smooth="yes"/>
      <point x="468" y="50"/>
      <point x="455" y="41"/>
      <point x="439" y="41" type="curve" smooth="yes"/>
      <point x="416" y="41"/>
      <point x="405" y="60"/>
    </contour>
    <contour>
      <point x="131" y="126" type="curve" smooth="yes"/>
      <point x="131" y="155"/>
      <point x="141" y="194"/>
      <point x="231" y="229" type="curve" smooth="yes"/>
      <point x="261" y="241"/>
      <point x="320" y="260"/>
      <point x="365" y="269" type="curve"/>
      <point x="365" y="305" type="line"/>
      <point x="315" y="296"/>
      <point x="252" y="278"/>
      <point x="210" y="263" type="curve" smooth="yes"/>
      <point x="76" y="214"/>
      <point x="46" y="168"/>
      <point x="46" y="112" type="curve" smooth="yes"/>
      <point x="46" y="29"/>
      <point x="107" y="-15"/>
      <point x="180" y="-15" type="curve" smooth="yes"/>
      <point x="241" y="-15"/>
      <point x="275" y="15"/>
      <point x="335" y="75" type="curve" smooth="yes"/>
      <point x="364" y="104" type="line"/>
      <point x="350" y="125" type="line"/>
      <point x="330" y="110" type="line" smooth="yes"/>
      <point x="267" y="65"/>
      <point x="247" y="50"/>
      <point x="212" y="50" type="curve" smooth="yes"/>
      <point x="188" y="50"/>
      <point x="167" y="57"/>
      <point x="151" y="73" type="curve" smooth="yes"/>
      <point x="139" y="85"/>
      <point x="131" y="100"/>
    </contour>
  </outline>
</glyph>
<glyph name="b" format="1">
  <advance width="599"/>
  <unicode hex="0062"/>
  <outline>
    <contour>
      <point x="92" y="0" type="curve"/>
      <point x="131" y="64" type="line"/>
      <point x="33" y="44" type="line"/>
      <point x="33" y="0" type="line"/>
      <point x="211" y="-15" type="line"/>
      <point x="217" y="43" type="line"/>
      <point x="238" y="43" type="line"/>
      <point x="231" y="80" type="line"/>
      <point x="231" y="407" type="line"/>
      <point x="228" y="420" type="line"/>
      <point x="228" y="570" type="line"/>
      <point x="232" y="712" type="line"/>
      <point x="218" y="720" type="line"/>
      <point x="20" y="675" type="line"/>
      <point x="20" y="635" type="line"/>
      <point x="95" y="626" type="line"/>
      <point x="95" y="210" type="line" smooth="yes"/>
      <point x="95" y="148"/>
      <point x="94" y="45"/>
    </contour>
    <contour>
      <point x="424" y="241" type="curve" smooth="yes"/>
      <point x="424" y="119"/>
      <point x="375" y="62"/>
      <point x="314" y="62" type="curve" smooth="yes"/>
      <point x="265" y="62"/>
      <point x="218" y="99"/>
      <point x="170" y="146" type="curve"/>
      <point x="161" y="128" type="line"/>
      <point x="210" y="37"/>
      <point x="264" y="-15"/>
      <point x="356" y="-15" type="curve" smooth="yes"/>
      <point x="475" y="-15"/>
      <point x="569" y="83"/>
      <point x="569" y="244" type="curve" smooth="yes"/>
      <point x="569" y="412"/>
      <point x="484" y="498"/>
      <point x="371" y="498" type="curve" smooth="yes"/>
      <point x="277" y="498"/>
      <point x="221" y="443"/>
      <point x="161" y="353" type="curve"/>
      <point x="170" y="336" type="line"/>
      <point x="215" y="381"/>
      <point x="269" y="420"/>
      <point x="321" y="420" type="curve" smooth="yes"/>
      <point x="385" y="420"/>
      <point x="424" y="363"/>
    </contour>
  </outline>
</glyph>
<glyph name="c" format="1">
  <advance width="510"/>
  <unicode hex="0063"/>
  <outline>
    <contour>
      <point x="317" y="448" type="curve" smooth="yes"/>
      <point x="342" y="448"/>
      <point x="365" y="441"/>
      <point x="398" y="423" type="curve"/>
      <point x="347" y="465" type="line"/>
      <point x="351" y="391" type="line" smooth="yes"/>
      <point x="354" y="332"/>
      <point x="384" y="309"/>
      <point x="421" y="309" type="curve" smooth="yes"/>
      <point x="452" y="309"/>
      <point x="473" y="325"/>
      <point x="480" y="357" type="curve"/>
      <point x="479" y="437"/>
      <point x="400" y="498"/>
      <point x="292" y="498" type="curve" smooth="yes"/>
      <point x="152" y="498"/>
      <point x="35" y="401"/>
      <point x="35" y="240" type="curve" smooth="yes"/>
      <point x="35" y="78"/>
      <point x="130" y="-15"/>
      <point x="276" y="-15" type="curve" smooth="yes"/>
      <point x="376" y="-15"/>
      <point x="455" y="33"/>
      <point x="479" y="119" type="curve"/>
      <point x="445" y="138" type="line"/>
      <point x="414" y="87"/>
      <point x="378" y="63"/>
      <point x="325" y="63" type="curve" smooth="yes"/>
      <point x="241" y="63"/>
      <point x="180" y="125"/>
      <point x="180" y="255" type="curve" smooth="yes"/>
      <point x="180" y="381"/>
      <point x="243" y="448"/>
    </contour>
  </outline>
</glyph>
<glyph name="d" format="1">
  <advance width="592"/>
  <unicode hex="0064"/>
  <outline>
    <contour>
      <point x="180" y="242" type="curve" smooth="yes"/>
      <point x="180" y="364"/>
      <point x="234" y="421"/>
      <point x="292" y="421" type="curve" smooth="yes"/>
      <point x="339" y="421"/>
      <point x="386" y="384"/>
      <point x="434" y="337" type="curve"/>
      <point x="443" y="355" type="line"/>
      <point x="394" y="446"/>
      <point x="340" y="498"/>
      <point x="248" y="498" type="curve" smooth="yes"/>
      <point x="129" y="498"/>
      <point x="35" y="400"/>
      <point x="35" y="239" type="curve" smooth="yes"/>
      <point x="35" y="71"/>
      <point x="120" y="-15"/>
      <point x="233" y="-15" type="curve" smooth="yes"/>
      <point x="327" y="-15"/>
      <point x="383" y="40"/>
      <point x="443" y="130" type="curve"/>
      <point x="434" y="147" type="line"/>
      <point x="389" y="102"/>
      <point x="335" y="63"/>
      <point x="286" y="63" type="curve" smooth="yes"/>
      <point x="226" y="63"/>
      <point x="180" y="122"/>
    </contour>
    <contour>
      <point x="459" y="67" type="line"/>
      <point x="511" y="0" type="line"/>
      <point x="511" y="570" type="line"/>
      <point x="515" y="712" type="line"/>
      <point x="501" y="720" type="line"/>
      <point x="300" y="675" type="line"/>
      <point x="300" y="635" type="line"/>
      <point x="380" y="625" type="line"/>
      <point x="380" y="417" type="line"/>
      <point x="375" y="405" type="line"/>
      <point x="375" y="82" type="line"/>
      <point x="387" y="-10" type="line"/>
      <point x="569" y="0" type="line"/>
      <point x="569" y="44" type="line"/>
    </contour>
  </outline>
</glyph>
<glyph name="e" format="1">
  <advance width="527"/>
  <unicode hex="0065"/>
  <outline>
    <contour>
      <point x="285" y="498" type="curve" smooth="yes"/>
      <point x="143" y="498"/>
      <point x="35" y="391"/>
      <point x="35" y="240" type="curve" smooth="yes"/>
      <point x="35" y="78"/>
      <point x="132" y="-15"/>
      <point x="277" y="-15" type="curve" smooth="yes"/>
      <point x="378" y="-15"/>
      <point x="456" y="31"/>
      <point x="483" y="119" type="curve"/>
      <point x="449" y="138" type="line"/>
      <point x="419" y="90"/>
      <point x="383" y="63"/>
      <point x="325" y="63" type="curve" smooth="yes"/>
      <point x="241" y="63"/>
      <point x="180" y="121"/>
      <point x="180" y="247" type="curve" smooth="yes"/>
      <point x="180" y="400"/>
      <point x="244" y="448"/>
      <point x="292" y="448" type="curve" smooth="yes"/>
      <point x="334" y="448"/>
      <point x="364" y="410"/>
      <point x="364" y="347" type="curve" smooth="yes"/>
      <point x="364" y="305"/>
      <point x="349" y="285"/>
      <point x="301" y="285" type="curve" smooth="yes"/>
      <point x="93" y="285" type="line"/>
      <point x="93" y="235" type="line"/>
      <point x="487" y="235" type="line"/>
      <point x="491" y="251"/>
      <point x="493" y="269"/>
      <point x="493" y="287" type="curve" smooth="yes"/>
      <point x="493" y="411"/>
      <point x="413" y="498"/>
    </contour>
  </outline>
</glyph>
<glyph name="f" format="1">
  <advance width="353"/>
  <unicode hex="0066"/>
  <outline>
    <contour>
      <point x="211" y="64" type="line"/>
      <point x="133" y="64" type="line"/>
      <point x="33" y="44" type="line"/>
      <point x="33" y="0" type="line"/>
      <point x="309" y="0" type="line"/>
      <point x="309" y="44" type="line"/>
    </contour>
    <contour>
      <point x="163" y="480" type="line"/>
      <point x="163" y="416" type="line"/>
      <point x="341" y="416" type="line"/>
      <point x="341" y="480" type="line"/>
    </contour>
    <contour>
      <point x="95" y="210" type="line" smooth="yes"/>
      <point x="95" y="140"/>
      <point x="94" y="70"/>
      <point x="92" y="0" type="curve"/>
      <point x="234" y="0" type="line"/>
      <point x="232" y="70"/>
      <point x="231" y="140"/>
      <point x="231" y="210" type="curve" smooth="yes"/>
      <point x="231" y="418" type="line"/>
      <point x="223" y="542"/>
      <point x="230" y="628"/>
      <point x="267" y="674" type="curve" smooth="yes"/>
      <point x="280" y="690"/>
      <point x="297" y="702"/>
      <point x="326" y="715" type="curve"/>
      <point x="276" y="715" type="line"/>
      <point x="297" y="682" type="line" smooth="yes"/>
      <point x="324" y="640"/>
      <point x="352" y="618"/>
      <point x="382" y="618" type="curve" smooth="yes"/>
      <point x="417" y="618"/>
      <point x="443" y="647"/>
      <point x="443" y="684" type="curve"/>
      <point x="433" y="718"/>
      <point x="392" y="740"/>
      <point x="335" y="740" type="curve" smooth="yes"/>
      <point x="280" y="740"/>
      <point x="224" y="722"/>
      <point x="176" y="675" type="curve" smooth="yes"/>
      <point x="134" y="633"/>
      <point x="105" y="576"/>
      <point x="95" y="461" type="curve"/>
      <point x="142" y="486" type="line"/>
      <point x="29" y="471" type="line"/>
      <point x="29" y="416" type="line"/>
      <point x="95" y="416" type="line"/>
    </contour>
  </outline>
</glyph>
<glyph name="g" format="1">
  <advance width="544"/>
  <unicode hex="0067"/>
  <outline>
    <contour>
      <point x="250" y="-150" type="curve" smooth="yes"/>
      <point x="187" y="-150"/>
      <point x="144" y="-129"/>
      <point x="144" y="-67" type="curve" smooth="yes"/>
      <point x="144" y="-48"/>
      <point x="148" y="-29"/>
      <point x="159" y="-8" type="curve" smooth="yes"/>
      <point x="168" y="10" type="line"/>
      <point x="145" y="16" type="line"/>
      <point x="126" y="7" type="line" smooth="yes"/>
      <point x="55" y="-27"/>
      <point x="29" y="-60"/>
      <point x="29" y="-102" type="curve" smooth="yes"/>
      <point x="29" y="-166"/>
      <point x="88" y="-200"/>
      <point x="233" y="-200" type="curve" smooth="yes"/>
      <point x="429" y="-200"/>
      <point x="520" y="-121"/>
      <point x="520" y="-25" type="curve" smooth="yes"/>
      <point x="520" y="55"/>
      <point x="467" y="106"/>
      <point x="328" y="106" type="curve" smooth="yes"/>
      <point x="220" y="106" type="line" smooth="yes"/>
      <point x="185" y="106"/>
      <point x="165" y="118"/>
      <point x="165" y="144" type="curve" smooth="yes"/>
      <point x="165" y="159"/>
      <point x="171" y="169"/>
      <point x="180" y="186" type="curve" smooth="yes"/>
      <point x="187" y="199" type="line"/>
      <point x="165" y="215" type="line"/>
      <point x="149" y="205" type="line" smooth="yes"/>
      <point x="97" y="173"/>
      <point x="65" y="137"/>
      <point x="65" y="89" type="curve" smooth="yes"/>
      <point x="65" y="33"/>
      <point x="108" y="-15"/>
      <point x="217" y="-15" type="curve" smooth="yes"/>
      <point x="326" y="-15" type="line" smooth="yes"/>
      <point x="388" y="-15"/>
      <point x="407" y="-41"/>
      <point x="407" y="-68" type="curve" smooth="yes"/>
      <point x="407" y="-114"/>
      <point x="352" y="-150"/>
    </contour>
    <contour>
      <point x="56" y="335" type="curve" smooth="yes"/>
      <point x="56" y="239"/>
      <point x="135" y="171"/>
      <point x="254" y="171" type="curve" smooth="yes"/>
      <point x="373" y="171"/>
      <point x="452" y="239"/>
      <point x="452" y="335" type="curve" smooth="yes"/>
      <point x="452" y="431"/>
      <point x="373" y="498"/>
      <point x="254" y="498" type="curve" smooth="yes"/>
      <point x="135" y="498"/>
      <point x="56" y="431"/>
    </contour>
    <contour>
      <point x="254" y="453" type="curve" smooth="yes"/>
      <point x="304" y="453"/>
      <point x="332" y="409"/>
      <point x="332" y="335" type="curve" smooth="yes"/>
      <point x="332" y="261"/>
      <point x="304" y="216"/>
      <point x="254" y="216" type="curve" smooth="yes"/>
      <point x="204" y="216"/>
      <point x="177" y="261"/>
      <point x="177" y="335" type="curve" smooth="yes"/>
      <point x="177" y="409"/>
      <point x="203" y="453"/>
    </contour>
    <contour>
      <point x="386" y="458" type="line"/>
      <point x="386" y="415" type="line"/>
      <point x="525" y="415" type="line"/>
      <point x="525" y="488" type="line"/>
      <point x="510" y="498" type="line"/>
    </contour>
  </outline>
</glyph>
<glyph name="h" format="1">
  <advance width="619"/>
  <unicode hex="0068"/>
  <outline>
    <contour>
      <point x="392" y="498" type="curve" smooth="yes"/>
      <point x="310" y="498"/>
      <point x="271" y="462"/>
      <point x="195" y="370" type="curve"/>
      <point x="235" y="395" type="line"/>
      <point x="174" y="395" type="line"/>
      <point x="174" y="331" type="line"/>
      <point x="206" y="331" type="line"/>
      <point x="254" y="383"/>
      <point x="298" y="416"/>
      <point x="344" y="416" type="curve" smooth="yes"/>
      <point x="390" y="416"/>
      <point x="403" y="382"/>
      <point x="403" y="306" type="curve" smooth="yes"/>
      <point x="403" y="210" type="line" smooth="yes"/>
      <point x="403" y="146"/>
      <point x="402" y="45"/>
      <point x="400" y="0" type="curve"/>
      <point x="542" y="0" type="line"/>
      <point x="540" y="45"/>
      <point x="539" y="146"/>
      <point x="539" y="210" type="curve" smooth="yes"/>
      <point x="539" y="322" type="line" smooth="yes"/>
      <point x="539" y="442"/>
      <point x="486" y="498"/>
    </contour>
    <contour>
      <point x="439" y="64" type="line"/>
      <point x="341" y="44" type="line"/>
      <point x="341" y="0" type="line"/>
      <point x="597" y="0" type="line"/>
      <point x="597" y="44" type="line"/>
      <point x="499" y="64" type="line"/>
    </contour>
    <contour>
      <point x="191" y="64" type="line"/>
      <point x="131" y="64" type="line"/>
      <point x="33" y="44" type="line"/>
      <point x="33" y="0" type="line"/>
      <point x="289" y="0" type="line"/>
      <point x="289" y="44" type="line"/>
    </contour>
    <contour>
      <point x="95" y="210" type="line" smooth="yes"/>
      <point x="95" y="148"/>
      <point x="94" y="45"/>
      <point x="92" y="0" type="curve"/>
      <point x="234" y="0" type="line"/>
      <point x="232" y="45"/>
      <point x="231" y="148"/>
      <point x="231" y="210" type="curve" smooth="yes"/>
      <point x="231" y="368" type="line"/>
      <point x="228" y="381" type="line"/>
      <point x="228" y="570" type="line"/>
      <point x="232" y="712" type="line"/>
      <point x="218" y="720" type="line"/>
      <point x="20" y="675" type="line"/>
      <point x="20" y="635" type="line"/>
      <point x="95" y="625" type="line"/>
    </contour>
  </outline>
</glyph>
<glyph name="i" format="1">
  <advance width="309"/>
  <unicode hex="0069"/>
  <outline>
    <contour>
      <point x="166" y="581" type="curve" smooth="yes"/>
      <point x="212" y="581"/>
      <point x="249" y="615"/>
      <point x="249" y="661" type="curve" smooth="yes"/>
      <point x="249" y="707"/>
      <point x="212" y="740"/>
      <point x="166" y="740" type="curve" smooth="yes"/>
      <point x="121" y="740"/>
      <point x="83" y="707"/>
      <point x="83" y="661" type="curve" smooth="yes"/>
      <point x="83" y="615"/>
      <point x="121" y="581"/>
    </contour>
    <contour>
      <point x="239" y="0" type="line"/>
      <point x="237" y="45"/>
      <point x="236" y="148"/>
      <point x="236" y="210" type="curve" smooth="yes"/>
      <point x="236" y="345" type="line"/>
      <point x="239" y="488" type="line"/>
      <point x="224" y="498" type="line"/>
      <point x="30" y="433" type="line"/>
      <point x="30" y="395" type="line"/>
      <point x="97" y="386" type="line"/>
      <point x="99" y="346"/>
      <point x="100" y="315"/>
      <point x="100" y="260" type="curve" smooth="yes"/>
      <point x="100" y="210" type="line" smooth="yes"/>
      <point x="100" y="148"/>
      <point x="99" y="45"/>
      <point x="97" y="0" type="curve"/>
    </contour>
    <contour>
      <point x="196" y="64" type="line"/>
      <point x="136" y="64" type="line"/>
      <point x="38" y="44" type="line"/>
      <point x="38" y="0" type="line"/>
      <point x="294" y="0" type="line"/>
      <point x="294" y="44" type="line"/>
    </contour>
  </outline>
</glyph>
<glyph name="j" format="1">
  <advance width="309"/>
  <unicode hex="006A"/>
  <outline>
    <contour>
      <point x="166" y="581" type="curve" smooth="yes"/>
      <point x="212" y="581"/>
      <point x="249" y="615"/>
      <point x="249" y="661" type="curve" smooth="yes"/>
      <point x="249" y="707"/>
      <point x="212" y="740"/>
      <point x="166" y="740" type="curve" smooth="yes"/>
      <point x="121" y="740"/>
      <point x="83" y="707"/>
      <point x="83" y="661" type="curve" smooth="yes"/>
      <point x="83" y="615"/>
      <point x="121" y="581"/>
    </contour>
    <contour>
      <point x="100" y="87" type="line" smooth="yes"/>
      <point x="100" y="-40"/>
      <point x="103" y="-124"/>
      <point x="78" y="-165" type="curve" smooth="yes"/>
      <point x="65" y="-185"/>
      <point x="46" y="-195"/>
      <point x="16" y="-208" type="curve"/>
      <point x="97" y="-197" type="line"/>
      <point x="63" y="-156" type="line" smooth="yes"/>
      <point x="32" y="-120"/>
      <point x="3" y="-97"/>
      <point x="-32" y="-97" type="curve" smooth="yes"/>
      <point x="-69" y="-97"/>
      <point x="-92" y="-123"/>
      <point x="-98" y="-164" type="curve"/>
      <point x="-87" y="-197"/>
      <point x="-52" y="-230"/>
      <point x="22" y="-230" type="curve" smooth="yes"/>
      <point x="67" y="-230"/>
      <point x="113" y="-219"/>
      <point x="158" y="-172" type="curve" smooth="yes"/>
      <point x="205" y="-123"/>
      <point x="233" y="-66"/>
      <point x="233" y="61" type="curve" smooth="yes"/>
      <point x="233" y="345" type="line"/>
      <point x="236" y="488" type="line"/>
      <point x="222" y="498" type="line"/>
      <point x="30" y="433" type="line"/>
      <point x="30" y="395" type="line"/>
      <point x="97" y="386" type="line"/>
      <point x="99" y="346"/>
      <point x="100" y="315"/>
      <point x="100" y="260" type="curve" smooth="yes"/>
    </contour>
  </outline>
</glyph>
<glyph name="k" format="1">
  <advance width="590"/>
  <unicode hex="006B"/>
  <outline>
    <contour>
      <point x="452" y="421" type="line"/>
      <point x="563" y="436" type="line"/>
      <point x="563" y="480" type="line"/>
      <point x="333" y="480" type="line"/>
      <point x="333" y="436" type="line"/>
      <point x="432" y="421" type="line"/>
    </contour>
    <contour>
      <point x="463" y="480" type="line"/>
      <point x="161" y="185" type="line"/>
      <point x="161" y="124" type="line"/>
      <point x="530" y="480" type="line"/>
    </contour>
    <contour>
      <point x="20" y="675" type="line"/>
      <point x="20" y="635" type="line"/>
      <point x="95" y="625" type="line"/>
      <point x="95" y="210" type="line" smooth="yes"/>
      <point x="95" y="148"/>
      <point x="94" y="45"/>
      <point x="92" y="0" type="curve"/>
      <point x="230" y="0" type="line"/>
      <point x="228" y="45"/>
      <point x="227" y="148"/>
      <point x="227" y="210" type="curve" smooth="yes"/>
      <point x="227" y="570" type="line"/>
      <point x="231" y="712" type="line"/>
      <point x="217" y="720" type="line"/>
    </contour>
    <contour>
      <point x="191" y="64" type="line"/>
      <point x="131" y="64" type="line"/>
      <point x="33" y="44" type="line"/>
      <point x="33" y="0" type="line"/>
      <point x="289" y="0" type="line"/>
      <point x="289" y="44" type="line"/>
    </contour>
    <contour>
      <point x="548" y="16" type="line"/>
      <point x="358" y="345" type="line"/>
      <point x="264" y="254" type="line"/>
      <point x="407" y="0" type="line"/>
      <point x="595" y="0" type="line"/>
      <point x="595" y="44" type="line"/>
      <point x="468" y="73" type="line"/>
    </contour>
  </outline>
</glyph>
<glyph name="l" format="1">
  <advance width="309"/>
  <unicode hex="006C"/>
  <outline>
    <contour>
      <point x="189" y="64" type="line"/>
      <point x="131" y="64" type="line"/>
      <point x="33" y="44" type="line"/>
      <point x="33" y="0" type="line"/>
      <point x="287" y="0" type="line"/>
      <point x="287" y="44" type="line"/>
    </contour>
    <contour>
      <point x="20" y="675" type="line"/>
      <point x="20" y="635" type="line"/>
      <point x="95" y="625" type="line"/>
      <point x="95" y="210" type="line" smooth="yes"/>
      <point x="95" y="140"/>
      <point x="94" y="70"/>
      <point x="92" y="0" type="curve"/>
      <point x="232" y="0" type="line"/>
      <point x="230" y="70"/>
      <point x="229" y="140"/>
      <point x="229" y="210" type="curve" smooth="yes"/>
      <point x="229" y="570" type="line"/>
      <point x="233" y="712" type="line"/>
      <point x="219" y="720" type="line"/>
    </contour>
  </outline>
</glyph>
<glyph name="m" format="1">
  <advance width="917"/>
  <unicode hex="006D"/>
  <outline>
    <contour>
      <point x="391" y="498" type="curve" smooth="yes"/>
      <point x="312" y="498"/>
      <point x="268" y="460"/>
      <point x="203" y="370" type="curve"/>
      <point x="236" y="395" type="line"/>
      <point x="177" y="395" type="line"/>
      <point x="177" y="331" type="line"/>
      <point x="209" y="331" type="line"/>
      <point x="245" y="373"/>
      <point x="300" y="416"/>
      <point x="344" y="416" type="curve" smooth="yes"/>
      <point x="385" y="416"/>
      <point x="406" y="381"/>
      <point x="406" y="306" type="curve" smooth="yes"/>
      <point x="406" y="210" type="line" smooth="yes"/>
      <point x="406" y="146"/>
      <point x="405" y="45"/>
      <point x="403" y="0" type="curve"/>
      <point x="541" y="0" type="line"/>
      <point x="539" y="45"/>
      <point x="538" y="146"/>
      <point x="538" y="210" type="curve" smooth="yes"/>
      <point x="538" y="322" type="line" smooth="yes"/>
      <point x="538" y="442"/>
      <point x="492" y="498"/>
    </contour>
    <contour>
      <point x="696" y="498" type="curve" smooth="yes"/>
      <point x="610" y="498"/>
      <point x="566" y="461"/>
      <point x="500" y="370" type="curve"/>
      <point x="530" y="395" type="line"/>
      <point x="477" y="395" type="line"/>
      <point x="477" y="331" type="line"/>
      <point x="509" y="331" type="line"/>
      <point x="542" y="370"/>
      <point x="598" y="416"/>
      <point x="644" y="416" type="curve" smooth="yes"/>
      <point x="684" y="416"/>
      <point x="705" y="381"/>
      <point x="705" y="306" type="curve" smooth="yes"/>
      <point x="705" y="210" type="line" smooth="yes"/>
      <point x="705" y="146"/>
      <point x="704" y="45"/>
      <point x="702" y="0" type="curve"/>
      <point x="840" y="0" type="line"/>
      <point x="838" y="45"/>
      <point x="837" y="146"/>
      <point x="837" y="210" type="curve" smooth="yes"/>
      <point x="837" y="322" type="line" smooth="yes"/>
      <point x="837" y="442"/>
      <point x="791" y="498"/>
    </contour>
    <contour>
      <point x="239" y="0" type="line"/>
      <point x="237" y="45"/>
      <point x="236" y="148"/>
      <point x="236" y="210" type="curve" smooth="yes"/>
      <point x="236" y="375" type="line"/>
      <point x="226" y="488" type="line"/>
      <point x="211" y="498" type="line"/>
      <point x="30" y="433" type="line"/>
      <point x="30" y="395" type="line"/>
      <point x="99" y="386" type="line"/>
      <point x="101" y="346"/>
      <point x="102" y="323"/>
      <point x="102" y="268" type="curve" smooth="yes"/>
      <point x="102" y="210" type="line" smooth="yes"/>
      <point x="102" y="148"/>
      <point x="101" y="45"/>
      <point x="99" y="0" type="curve"/>
    </contour>
    <contour>
      <point x="196" y="64" type="line"/>
      <point x="136" y="64" type="line"/>
      <point x="40" y="44" type="line"/>
      <point x="40" y="0" type="line"/>
      <point x="292" y="0" type="line"/>
      <point x="292" y="44" type="line"/>
    </contour>
    <contour>
      <point x="440" y="64" type="line"/>
      <point x="344" y="44" type="line"/>
      <point x="344" y="0" type="line"/>
      <point x="596" y="0" type="line"/>
      <point x="596" y="44" type="line"/>
      <point x="500" y="64" type="line"/>
    </contour>
    <contour>
      <point x="739" y="64" type="line"/>
      <point x="643" y="44" type="line"/>
      <point x="643" y="0" type="line"/>
      <point x="895" y="0" type="line"/>
      <point x="895" y="44" type="line"/>
      <point x="799" y="64" type="line"/>
    </contour>
  </outline>
</glyph>
<glyph name="n" format="1">
  <advance width="624"/>
  <unicode hex="006E"/>
  <outline>
    <contour>
      <point x="239" y="0" type="line"/>
      <point x="237" y="45"/>
      <point x="236" y="148"/>
      <point x="236" y="210" type="curve" smooth="yes"/>
      <point x="236" y="375" type="line"/>
      <point x="226" y="488" type="line"/>
      <point x="211" y="498" type="line"/>
      <point x="30" y="433" type="line"/>
      <point x="30" y="395" type="line"/>
      <point x="97" y="386" type="line"/>
      <point x="99" y="346"/>
      <point x="100" y="322"/>
      <point x="100" y="267" type="curve" smooth="yes"/>
      <point x="100" y="210" type="line" smooth="yes"/>
      <point x="100" y="148"/>
      <point x="99" y="45"/>
      <point x="97" y="0" type="curve"/>
    </contour>
    <contour>
      <point x="196" y="64" type="line"/>
      <point x="136" y="64" type="line"/>
      <point x="38" y="44" type="line"/>
      <point x="38" y="0" type="line"/>
      <point x="294" y="0" type="line"/>
      <point x="294" y="44" type="line"/>
    </contour>
    <contour>
      <point x="444" y="64" type="line"/>
      <point x="346" y="44" type="line"/>
      <point x="346" y="0" type="line"/>
      <point x="602" y="0" type="line"/>
      <point x="602" y="44" type="line"/>
      <point x="504" y="64" type="line"/>
    </contour>
    <contour>
      <point x="396" y="498" type="curve" smooth="yes"/>
      <point x="315" y="498"/>
      <point x="276" y="462"/>
      <point x="200" y="370" type="curve"/>
      <point x="240" y="395" type="line"/>
      <point x="179" y="395" type="line"/>
      <point x="179" y="331" type="line"/>
      <point x="211" y="331" type="line"/>
      <point x="259" y="383"/>
      <point x="303" y="416"/>
      <point x="349" y="416" type="curve" smooth="yes"/>
      <point x="395" y="416"/>
      <point x="408" y="382"/>
      <point x="408" y="306" type="curve" smooth="yes"/>
      <point x="408" y="210" type="line" smooth="yes"/>
      <point x="408" y="146"/>
      <point x="407" y="45"/>
      <point x="405" y="0" type="curve"/>
      <point x="547" y="0" type="line"/>
      <point x="545" y="45"/>
      <point x="544" y="146"/>
      <point x="544" y="210" type="curve" smooth="yes"/>
      <point x="544" y="322" type="line" smooth="yes"/>
      <point x="544" y="442"/>
      <point x="491" y="498"/>
    </contour>
  </outline>
</glyph>
<glyph name="o" format="1">
  <advance width="566"/>
  <unicode hex="006F"/>
  <outline>
    <contour>
      <point x="283" y="448" type="curve" smooth="yes"/>
      <point x="353" y="448"/>
      <point x="388" y="379"/>
      <point x="388" y="241" type="curve" smooth="yes"/>
      <point x="388" y="101"/>
      <point x="353" y="35"/>
      <point x="283" y="35" type="curve" smooth="yes"/>
      <point x="214" y="35"/>
      <point x="178" y="101"/>
      <point x="178" y="241" type="curve" smooth="yes"/>
      <point x="178" y="379"/>
      <point x="214" y="448"/>
    </contour>
    <contour>
      <point x="283" y="498" type="curve" smooth="yes"/>
      <point x="149" y="498"/>
      <point x="30" y="399"/>
      <point x="30" y="240" type="curve" smooth="yes"/>
      <point x="30" y="81"/>
      <point x="139" y="-15"/>
      <point x="283" y="-15" type="curve" smooth="yes"/>
      <point x="428" y="-15"/>
      <point x="536" y="81"/>
      <point x="536" y="240" type="curve" smooth="yes"/>
      <point x="536" y="399"/>
      <point x="416" y="498"/>
    </contour>
  </outline>
</glyph>
<glyph name="p" format="1">
  <advance width="609"/>
  <unicode hex="0070"/>
  <outline>
    <contour>
      <point x="429" y="241" type="curve" smooth="yes"/>
      <point x="429" y="119"/>
      <point x="380" y="62"/>
      <point x="319" y="62" type="curve" smooth="yes"/>
      <point x="270" y="62"/>
      <point x="223" y="99"/>
      <point x="175" y="146" type="curve"/>
      <point x="166" y="128" type="line"/>
      <point x="215" y="37"/>
      <point x="269" y="-15"/>
      <point x="361" y="-15" type="curve" smooth="yes"/>
      <point x="480" y="-15"/>
      <point x="574" y="83"/>
      <point x="574" y="244" type="curve" smooth="yes"/>
      <point x="574" y="412"/>
      <point x="489" y="498"/>
      <point x="376" y="498" type="curve" smooth="yes"/>
      <point x="282" y="498"/>
      <point x="226" y="443"/>
      <point x="166" y="353" type="curve"/>
      <point x="175" y="336" type="line"/>
      <point x="220" y="381"/>
      <point x="274" y="420"/>
      <point x="326" y="420" type="curve" smooth="yes"/>
      <point x="390" y="420"/>
      <point x="429" y="363"/>
    </contour>
    <contour>
      <point x="210" y="-156" type="line"/>
      <point x="136" y="-156" type="line"/>
      <point x="38" y="-176" type="line"/>
      <point x="38" y="-220" type="line"/>
      <point x="308" y="-220" type="line"/>
      <point x="308" y="-176" type="line"/>
    </contour>
    <contour>
      <point x="100" y="0" type="line" smooth="yes"/>
      <point x="100" y="-65"/>
      <point x="99" y="-173"/>
      <point x="97" y="-220" type="curve"/>
      <point x="236" y="-220" type="line"/>
      <point x="234" y="-173"/>
      <point x="233" y="-65"/>
      <point x="233" y="0" type="curve" smooth="yes"/>
      <point x="233" y="69" type="line"/>
      <point x="236" y="80" type="line"/>
      <point x="236" y="397" type="line"/>
      <point x="231" y="404" type="line"/>
      <point x="223" y="488" type="line"/>
      <point x="211" y="498" type="line"/>
      <point x="30" y="433" type="line"/>
      <point x="30" y="395" type="line"/>
      <point x="97" y="386" type="line"/>
      <point x="99" y="346"/>
      <point x="100" y="322"/>
      <point x="100" y="267" type="curve" smooth="yes"/>
    </contour>
  </outline>
</glyph>
<glyph name="q" format="1">
  <advance width="585"/>
  <unicode hex="0071"/>
  <outline>
    <contour>
      <point x="180" y="242" type="curve" smooth="yes"/>
      <point x="180" y="364"/>
      <point x="234" y="421"/>
      <point x="292" y="421" type="curve" smooth="yes"/>
      <point x="339" y="421"/>
      <point x="386" y="384"/>
      <point x="434" y="337" type="curve"/>
      <point x="443" y="355" type="line"/>
      <point x="394" y="446"/>
      <point x="340" y="498"/>
      <point x="248" y="498" type="curve" smooth="yes"/>
      <point x="129" y="498"/>
      <point x="35" y="400"/>
      <point x="35" y="239" type="curve" smooth="yes"/>
      <point x="35" y="71"/>
      <point x="120" y="-15"/>
      <point x="233" y="-15" type="curve" smooth="yes"/>
      <point x="327" y="-15"/>
      <point x="383" y="40"/>
      <point x="443" y="130" type="curve"/>
      <point x="434" y="147" type="line"/>
      <point x="389" y="102"/>
      <point x="335" y="63"/>
      <point x="286" y="63" type="curve" smooth="yes"/>
      <point x="226" y="63"/>
      <point x="180" y="122"/>
    </contour>
    <contour>
      <point x="401" y="-156" type="line"/>
      <point x="303" y="-176" type="line"/>
      <point x="303" y="-220" type="line"/>
      <point x="573" y="-220" type="line"/>
      <point x="573" y="-176" type="line"/>
      <point x="475" y="-156" type="line"/>
    </contour>
    <contour>
      <point x="511" y="-10" type="curve" smooth="yes"/>
      <point x="511" y="353" type="line"/>
      <point x="514" y="488" type="line"/>
      <point x="489" y="498" type="line"/>
      <point x="358" y="425" type="line"/>
      <point x="375" y="417" type="line"/>
      <point x="375" y="84" type="line"/>
      <point x="378" y="70" type="line"/>
      <point x="378" y="-10" type="line" smooth="yes"/>
      <point x="378" y="-80"/>
      <point x="377" y="-150"/>
      <point x="375" y="-220" type="curve"/>
      <point x="514" y="-220" type="line"/>
      <point x="512" y="-150"/>
      <point x="511" y="-80"/>
    </contour>
  </outline>
</glyph>
<glyph name="r" format="1">
  <advance width="457"/>
  <unicode hex="0072"/>
  <outline>
    <contour>
      <point x="329" y="428" type="curve"/>
      <point x="275" y="428" type="line"/>
      <point x="298" y="403" type="line" smooth="yes"/>
      <point x="324" y="375"/>
      <point x="348" y="362"/>
      <point x="375" y="362" type="curve" smooth="yes"/>
      <point x="417" y="362"/>
      <point x="445" y="392"/>
      <point x="445" y="436" type="curve"/>
      <point x="435" y="484"/>
      <point x="399" y="498"/>
      <point x="371" y="498" type="curve" smooth="yes"/>
      <point x="312" y="498"/>
      <point x="244" y="431"/>
      <point x="208" y="329" type="curve"/>
      <point x="235" y="356" type="line"/>
      <point x="168" y="356" type="line"/>
      <point x="168" y="304" type="line"/>
      <point x="231" y="304" type="line"/>
      <point x="251" y="363"/>
      <point x="290" y="407"/>
    </contour>
    <contour>
      <point x="213" y="64" type="line"/>
      <point x="138" y="64" type="line"/>
      <point x="38" y="44" type="line"/>
      <point x="38" y="0" type="line"/>
      <point x="313" y="0" type="line"/>
      <point x="313" y="44" type="line"/>
    </contour>
    <contour>
      <point x="239" y="0" type="line"/>
      <point x="237" y="45"/>
      <point x="236" y="148"/>
      <point x="236" y="210" type="curve"/>
      <point x="236" y="385" type="line"/>
      <point x="226" y="488" type="line"/>
      <point x="211" y="498" type="line"/>
      <point x="30" y="433" type="line"/>
      <point x="30" y="395" type="line"/>
      <point x="97" y="386" type="line"/>
      <point x="99" y="346"/>
      <point x="100" y="323"/>
      <point x="100" y="268" type="curve" smooth="yes"/>
      <point x="100" y="210" type="line" smooth="yes"/>
      <point x="100" y="148"/>
      <point x="99" y="45"/>
      <point x="97" y="0" type="curve"/>
    </contour>
  </outline>
</glyph>
<glyph name="s" format="1">
  <advance width="464"/>
  <unicode hex="0073"/>
  <outline>
    <contour>
      <point x="218" y="-15" type="curve" smooth="yes"/>
      <point x="348" y="-15"/>
      <point x="431" y="49"/>
      <point x="431" y="144" type="curve" smooth="yes"/>
      <point x="431" y="207"/>
      <point x="403" y="259"/>
      <point x="298" y="296" type="curve" smooth="yes"/>
      <point x="264" y="308" type="line" smooth="yes"/>
      <point x="183" y="336"/>
      <point x="165" y="354"/>
      <point x="165" y="384" type="curve" smooth="yes"/>
      <point x="165" y="423"/>
      <point x="197" y="446"/>
      <point x="245" y="446" type="curve" smooth="yes"/>
      <point x="290" y="446"/>
      <point x="312" y="429"/>
      <point x="345" y="414" type="curve"/>
      <point x="300" y="468" type="line"/>
      <point x="321" y="350" type="line"/>
      <point x="397" y="350" type="line"/>
      <point x="403" y="460" type="line"/>
      <point x="354" y="484"/>
      <point x="310" y="498"/>
      <point x="251" y="498" type="curve" smooth="yes"/>
      <point x="114" y="498"/>
      <point x="47" y="438"/>
      <point x="47" y="351" type="curve" smooth="yes"/>
      <point x="47" y="281"/>
      <point x="89" y="233"/>
      <point x="168" y="202" type="curve" smooth="yes"/>
      <point x="214" y="184" type="line" smooth="yes"/>
      <point x="291" y="154"/>
      <point x="311" y="139"/>
      <point x="311" y="102" type="curve" smooth="yes"/>
      <point x="311" y="58"/>
      <point x="282" y="37"/>
      <point x="218" y="37" type="curve" smooth="yes"/>
      <point x="177" y="37"/>
      <point x="143" y="52"/>
      <point x="88" y="90" type="curve"/>
      <point x="141" y="18" type="line"/>
      <point x="122" y="148" type="line"/>
      <point x="45" y="148" type="line"/>
      <point x="45" y="33" type="line"/>
      <point x="100" y="1"/>
      <point x="149" y="-15"/>
    </contour>
  </outline>
</glyph>
<glyph name="t" format="1">
  <advance width="356"/>
  <unicode hex="0074"/>
  <outline>
    <contour>
      <point x="149" y="480" type="line"/>
      <point x="149" y="416" type="line"/>
      <point x="331" y="416" type="line"/>
      <point x="331" y="480" type="line"/>
    </contour>
    <contour>
      <point x="217" y="141" type="curve" smooth="yes"/>
      <point x="217" y="440" type="line"/>
      <point x="217" y="620" type="line"/>
      <point x="121" y="620" type="line"/>
      <point x="86" y="448" type="line"/>
      <point x="130" y="486" type="line"/>
      <point x="14" y="471" type="line"/>
      <point x="14" y="416" type="line"/>
      <point x="81" y="416" type="line"/>
      <point x="81" y="218" type="line" smooth="yes"/>
      <point x="81" y="179"/>
      <point x="80" y="154"/>
      <point x="80" y="113" type="curve" smooth="yes"/>
      <point x="80" y="29"/>
      <point x="131" y="-10"/>
      <point x="212" y="-10" type="curve" smooth="yes"/>
      <point x="283" y="-10"/>
      <point x="332" y="22"/>
      <point x="357" y="61" type="curve"/>
      <point x="328" y="95" type="line"/>
      <point x="304" y="75"/>
      <point x="282" y="71"/>
      <point x="269" y="71" type="curve" smooth="yes"/>
      <point x="238" y="71"/>
      <point x="217" y="92"/>
    </contour>
  </outline>
</glyph>
<glyph name="u" format="1">
  <advance width="602"/>
  <unicode hex="0075"/>
  <outline>
    <contour>
      <point x="579" y="0" type="line"/>
      <point x="579" y="44" type="line"/>
      <point x="469" y="67" type="line"/>
      <point x="521" y="15" type="line"/>
      <point x="521" y="338" type="line"/>
      <point x="524" y="480" type="line"/>
      <point x="512" y="488" type="line"/>
      <point x="334" y="468" type="line"/>
      <point x="334" y="430" type="line"/>
      <point x="417" y="415" type="line"/>
      <point x="389" y="439" type="line"/>
      <point x="385" y="107" type="line"/>
      <point x="395" y="-10" type="line"/>
    </contour>
    <contour>
      <point x="217" y="338" type="line"/>
      <point x="222" y="480" type="line"/>
      <point x="210" y="488" type="line"/>
      <point x="30" y="470" type="line"/>
      <point x="30" y="430" type="line"/>
      <point x="113" y="415" type="line"/>
      <point x="85" y="438" type="line"/>
      <point x="81" y="165" type="line" smooth="yes"/>
      <point x="79" y="33"/>
      <point x="136" y="-15"/>
      <point x="220" y="-15" type="curve" smooth="yes"/>
      <point x="297" y="-15"/>
      <point x="361" y="31"/>
      <point x="420" y="113" type="curve"/>
      <point x="382" y="88" type="line"/>
      <point x="443" y="88" type="line"/>
      <point x="443" y="152" type="line"/>
      <point x="410" y="152" type="line"/>
      <point x="370" y="107"/>
      <point x="320" y="67"/>
      <point x="278" y="67" type="curve" smooth="yes"/>
      <point x="242" y="67"/>
      <point x="217" y="96"/>
      <point x="217" y="184" type="curve" smooth="yes"/>
    </contour>
  </outline>
</glyph>
<glyph name="v" format="1">
  <advance width="535"/>
  <unicode hex="0076"/>
  <outline>
    <contour>
      <point x="439" y="421" type="line"/>
      <point x="525" y="436" type="line"/>
      <point x="525" y="480" type="line"/>
      <point x="341" y="480" type="line"/>
      <point x="341" y="436" type="line"/>
      <point x="429" y="421" type="line"/>
    </contour>
    <contour>
      <point x="27" y="480" type="line"/>
      <point x="227" y="-10" type="line"/>
      <point x="284" y="-10" type="line"/>
      <point x="484" y="480" type="line"/>
      <point x="424" y="480" type="line"/>
      <point x="246" y="11" type="line"/>
      <point x="309" y="114" type="line"/>
      <point x="176" y="480" type="line"/>
    </contour>
    <contour>
      <point x="170" y="416" type="line"/>
      <point x="268" y="436" type="line"/>
      <point x="268" y="480" type="line"/>
      <point x="-5" y="480" type="line"/>
      <point x="-5" y="436" type="line"/>
      <point x="93" y="416" type="line"/>
    </contour>
  </outline>
</glyph>
<glyph name="w" format="1">
  <advance width="813"/>
  <unicode hex="0077"/>
  <outline>
    <contour>
      <point x="421" y="421" type="line"/>
      <point x="447" y="421" type="line"/>
      <point x="543" y="436" type="line"/>
      <point x="543" y="480" type="line"/>
      <point x="315" y="480" type="line"/>
      <point x="315" y="436" type="line"/>
    </contour>
    <contour>
      <point x="135" y="421" type="line"/>
      <point x="245" y="436" type="line"/>
      <point x="245" y="480" type="line"/>
      <point x="-5" y="480" type="line"/>
      <point x="-5" y="436" type="line"/>
      <point x="95" y="421" type="line"/>
    </contour>
    <contour>
      <point x="716" y="421" type="line"/>
      <point x="803" y="436" type="line"/>
      <point x="803" y="480" type="line"/>
      <point x="609" y="480" type="line"/>
      <point x="609" y="436" type="line"/>
      <point x="698" y="421" type="line"/>
    </contour>
    <contour>
      <point x="395" y="480" type="line"/>
      <point x="262" y="134" type="line"/>
      <point x="287" y="134" type="line"/>
      <point x="168" y="480" type="line"/>
      <point x="28" y="480" type="line"/>
      <point x="205" y="-10" type="line"/>
      <point x="261" y="-10" type="line"/>
      <point x="410" y="379" type="line"/>
      <point x="366" y="379" type="line"/>
      <point x="508" y="-10" type="line"/>
      <point x="564" y="-10" type="line"/>
      <point x="757" y="480" type="line"/>
      <point x="696" y="480" type="line"/>
      <point x="567" y="129" type="line"/>
      <point x="598" y="129" type="line"/>
      <point x="465" y="480" type="line"/>
    </contour>
  </outline>
</glyph>
<glyph name="x" format="1">
  <advance width="538"/>
  <unicode hex="0078"/>
  <outline>
    <contour>
      <point x="34" y="480" type="line"/>
      <point x="214" y="211" type="line"/>
      <point x="349" y="0" type="line"/>
      <point x="503" y="0" type="line"/>
      <point x="310" y="284" type="line"/>
      <point x="183" y="480" type="line"/>
    </contour>
    <contour>
      <point x="95" y="58" type="line"/>
      <point x="10" y="44" type="line"/>
      <point x="10" y="0" type="line"/>
      <point x="202" y="0" type="line"/>
      <point x="202" y="44" type="line"/>
      <point x="122" y="58" type="line"/>
    </contour>
    <contour>
      <point x="173" y="421" type="line"/>
      <point x="264" y="436" type="line"/>
      <point x="264" y="480" type="line"/>
      <point x="11" y="480" type="line"/>
      <point x="11" y="436" type="line"/>
      <point x="114" y="421" type="line"/>
    </contour>
    <contour>
      <point x="383" y="64" type="line"/>
      <point x="266" y="44" type="line"/>
      <point x="266" y="0" type="line"/>
      <point x="528" y="0" type="line"/>
      <point x="528" y="44" type="line"/>
      <point x="419" y="64" type="line"/>
    </contour>
    <contour>
      <point x="417" y="422" type="line"/>
      <point x="495" y="436" type="line"/>
      <point x="495" y="480" type="line"/>
      <point x="333" y="480" type="line"/>
      <point x="333" y="436" type="line"/>
      <point x="407" y="422" type="line"/>
    </contour>
    <contour>
      <point x="106" y="0" type="line"/>
      <point x="287" y="261" type="line"/>
      <point x="254" y="284" type="line"/>
      <point x="47" y="0" type="line"/>
    </contour>
    <contour>
      <point x="412" y="480" type="line"/>
      <point x="243" y="236" type="line"/>
      <point x="270" y="210" type="line"/>
      <point x="470" y="480" type="line"/>
    </contour>
  </outline>
</glyph>
<glyph name="y" format="1">
  <advance width="527"/>
  <unicode hex="0079"/>
  <outline>
    <contour>
      <point x="431" y="421" type="line"/>
      <point x="519" y="436" type="line"/>
      <point x="519" y="480" type="line"/>
      <point x="336" y="480" type="line"/>
      <point x="336" y="436" type="line"/>
      <point x="419" y="421" type="line"/>
    </contour>
    <contour>
      <point x="166" y="416" type="line"/>
      <point x="263" y="436" type="line"/>
      <point x="263" y="480" type="line"/>
      <point x="-10" y="480" type="line"/>
      <point x="-10" y="436" type="line"/>
      <point x="88" y="416" type="line"/>
    </contour>
    <contour>
      <point x="313" y="95" type="line"/>
      <point x="172" y="480" type="line"/>
      <point x="24" y="480" type="line"/>
      <point x="247" y="-69" type="line"/>
    </contour>
    <contour>
      <point x="127" y="-174" type="curve"/>
      <point x="192" y="-174" type="line"/>
      <point x="146" y="-133" type="line" smooth="yes"/>
      <point x="119" y="-109"/>
      <point x="97" y="-103"/>
      <point x="74" y="-103" type="curve" smooth="yes"/>
      <point x="41" y="-103"/>
      <point x="18" y="-116"/>
      <point x="7" y="-150" type="curve"/>
      <point x="7" y="-194"/>
      <point x="55" y="-220"/>
      <point x="109" y="-220" type="curve" smooth="yes"/>
      <point x="196" y="-220"/>
      <point x="243" y="-152"/>
      <point x="294" y="-13" type="curve" smooth="yes"/>
      <point x="475" y="480" type="line"/>
      <point x="420" y="480" type="line"/>
      <point x="253" y="7" type="line" smooth="yes"/>
      <point x="218" y="-93"/>
      <point x="183" y="-141"/>
    </contour>
  </outline>
</glyph>
<glyph name="z" format="1">
  <advance width="477"/>
  <unicode hex="007A"/>
  <outline>
    <contour>
      <point x="39" y="480" type="line"/>
      <point x="31" y="328" type="line"/>
      <point x="102" y="324" type="line"/>
      <point x="140" y="480" type="line"/>
      <point x="83" y="435" type="line"/>
      <point x="321" y="435" type="line"/>
      <point x="321" y="480" type="line"/>
      <point x="25" y="40" type="line"/>
      <point x="25" y="0" type="line"/>
      <point x="442" y="0" type="line"/>
      <point x="452" y="166" type="line"/>
      <point x="381" y="166" type="line"/>
      <point x="340" y="0" type="line"/>
      <point x="405" y="45" type="line"/>
      <point x="156" y="45" type="line"/>
      <point x="156" y="0" type="line"/>
      <point x="445" y="440" type="line"/>
      <point x="445" y="480" type="line"/>
    </contour>
  </outline>
</glyph>
<glyph name="braceleft" format="1">
  <advance width="339"/>
  <unicode hex="007B"/>
  <outline>
    <contour>
      <point x="40" y="253" type="line"/>
      <point x="124" y="243"/>
      <point x="150" y="216"/>
      <point x="150" y="169" type="curve" smooth="yes"/>
      <point x="150" y="105"/>
      <point x="99" y="45"/>
      <point x="99" y="-29" type="curve" smooth="yes"/>
      <point x="99" y="-117"/>
      <point x="169" y="-159"/>
      <point x="272" y="-159" type="curve" smooth="yes"/>
      <point x="309" y="-159" type="line"/>
      <point x="309" y="-105" type="line"/>
      <point x="282" y="-102" type="line" smooth="yes"/>
      <point x="234" y="-97"/>
      <point x="214" y="-75"/>
      <point x="214" y="-34" type="curve" smooth="yes"/>
      <point x="214" y="43"/>
      <point x="230" y="97"/>
      <point x="230" y="147" type="curve" smooth="yes"/>
      <point x="230" y="232"/>
      <point x="181" y="288"/>
      <point x="75" y="288" type="curve"/>
      <point x="75" y="268" type="line"/>
      <point x="181" y="268"/>
      <point x="230" y="324"/>
      <point x="230" y="409" type="curve" smooth="yes"/>
      <point x="230" y="459"/>
      <point x="214" y="513"/>
      <point x="214" y="590" type="curve" smooth="yes"/>
      <point x="214" y="631"/>
      <point x="234" y="653"/>
      <point x="282" y="658" type="curve" smooth="yes"/>
      <point x="309" y="661" type="line"/>
      <point x="309" y="715" type="line"/>
      <point x="272" y="715" type="line" smooth="yes"/>
      <point x="169" y="715"/>
      <point x="99" y="673"/>
      <point x="99" y="585" type="curve" smooth="yes"/>
      <point x="99" y="511"/>
      <point x="150" y="451"/>
      <point x="150" y="387" type="curve" smooth="yes"/>
      <point x="150" y="340"/>
      <point x="124" y="313"/>
      <point x="40" y="303" type="curve"/>
    </contour>
  </outline>
</glyph>
<glyph name="bar" format="1">
  <advance width="250"/>
  <unicode hex="007C"/>
  <outline>
    <contour>
      <point x="97" y="-250" type="line"/>
      <point x="153" y="-250" type="line"/>
      <point x="153" y="750" type="line"/>
      <point x="97" y="750" type="line"/>
    </contour>
  </outline>
</glyph>
<glyph name="asciitilde" format="1">
  <advance width="530"/>
  <unicode hex="007E"/>
  <outline>
    <contour>
      <point x="285" y="380" type="curve" smooth="yes"/>
      <point x="241" y="415"/>
      <point x="205" y="434"/>
      <point x="161" y="434" type="curve" smooth="yes"/>
      <point x="97" y="434"/>
      <point x="45" y="397"/>
      <point x="38" y="269" type="curve"/>
      <point x="106" y="261" type="line"/>
      <point x="117" y="340"/>
      <point x="141" y="354"/>
      <point x="166" y="354" type="curve" smooth="yes"/>
      <point x="188" y="354"/>
      <point x="203" y="344"/>
      <point x="245" y="310" type="curve" smooth="yes"/>
      <point x="289" y="275"/>
      <point x="325" y="256"/>
      <point x="369" y="256" type="curve" smooth="yes"/>
      <point x="433" y="256"/>
      <point x="485" y="293"/>
      <point x="492" y="421" type="curve"/>
      <point x="424" y="429" type="line"/>
      <point x="413" y="350"/>
      <point x="389" y="336"/>
      <point x="363" y="336" type="curve" smooth="yes"/>
      <point x="342" y="336"/>
      <point x="327" y="346"/>
    </contour>
  </outline>
</glyph>
<glyph name="cent" format="1">
  <advance width="528"/>
  <unicode hex="00A2"/>
  <outline>
    <contour>
      <point x="326" y="-45" type="line"/>
      <point x="326" y="655" type="line"/>
      <point x="271" y="655" type="line"/>
      <point x="271" y="-45" type="line"/>
    </contour>
    <contour>
      <point x="321" y="518" type="curve" smooth="yes"/>
      <point x="362" y="518"/>
      <point x="386" y="511"/>
      <point x="421" y="493" type="curve"/>
      <point x="372" y="535" type="line"/>
      <point x="377" y="461" type="line" smooth="yes"/>
      <point x="381" y="399"/>
      <point x="410" y="377"/>
      <point x="444" y="377" type="curve" smooth="yes"/>
      <point x="474" y="377"/>
      <point x="500" y="394"/>
      <point x="506" y="427" type="curve"/>
      <point x="506" y="507"/>
      <point x="423" y="568"/>
      <point x="310" y="568" type="curve" smooth="yes"/>
      <point x="165" y="568"/>
      <point x="44" y="471"/>
      <point x="44" y="310" type="curve" smooth="yes"/>
      <point x="44" y="148"/>
      <point x="140" y="55"/>
      <point x="288" y="55" type="curve" smooth="yes"/>
      <point x="393" y="55"/>
      <point x="476" y="103"/>
      <point x="501" y="189" type="curve"/>
      <point x="465" y="208" type="line"/>
      <point x="433" y="157"/>
      <point x="395" y="133"/>
      <point x="319" y="133" type="curve" smooth="yes"/>
      <point x="252" y="133"/>
      <point x="189" y="195"/>
      <point x="189" y="325" type="curve" smooth="yes"/>
      <point x="189" y="451"/>
      <point x="256" y="518"/>
    </contour>
  </outline>
</glyph>
<glyph name="sterling" format="1">
  <advance width="528"/>
  <unicode hex="00A3"/>
  <outline>
    <contour>
      <point x="55" y="280" type="line"/>
      <point x="377" y="280" type="line"/>
      <point x="377" y="335" type="line"/>
      <point x="55" y="335" type="line"/>
    </contour>
    <contour>
      <point x="49" y="0" type="line"/>
      <point x="479" y="0" type="line"/>
      <point x="479" y="120" type="line"/>
      <point x="142" y="120" type="line"/>
      <point x="142" y="81" type="line"/>
      <point x="209" y="127"/>
      <point x="242" y="187"/>
      <point x="242" y="261" type="curve" smooth="yes"/>
      <point x="242" y="348"/>
      <point x="216" y="396"/>
      <point x="216" y="486" type="curve" smooth="yes"/>
      <point x="216" y="560"/>
      <point x="247" y="603"/>
      <point x="311" y="603" type="curve" smooth="yes"/>
      <point x="332" y="603"/>
      <point x="357" y="597"/>
      <point x="391" y="578" type="curve"/>
      <point x="340" y="620" type="line"/>
      <point x="346" y="549" type="line" smooth="yes"/>
      <point x="351" y="489"/>
      <point x="376" y="468"/>
      <point x="410" y="468" type="curve" smooth="yes"/>
      <point x="443" y="468"/>
      <point x="461" y="485"/>
      <point x="467" y="516" type="curve"/>
      <point x="467" y="589"/>
      <point x="389" y="653"/>
      <point x="293" y="653" type="curve" smooth="yes"/>
      <point x="173" y="653"/>
      <point x="91" y="576"/>
      <point x="91" y="483" type="curve" smooth="yes"/>
      <point x="91" y="379"/>
      <point x="152" y="342"/>
      <point x="152" y="232" type="curve" smooth="yes"/>
      <point x="152" y="175"/>
      <point x="115" y="102"/>
      <point x="49" y="60" type="curve"/>
    </contour>
  </outline>
</glyph>
<glyph name="currency" format="1">
  <advance width="528"/>
  <unicode hex="00A4"/>
  <outline>
    <contour>
      <point x="382" y="423" type="line"/>
      <point x="436" y="452" type="line" smooth="yes"/>
      <point x="466" y="468"/>
      <point x="503" y="488"/>
      <point x="503" y="522" type="curve" smooth="yes"/>
      <point x="503" y="546"/>
      <point x="484" y="564"/>
      <point x="461" y="564" type="curve" smooth="yes"/>
      <point x="430" y="564"/>
      <point x="411" y="533"/>
      <point x="390" y="496" type="curve" smooth="yes"/>
      <point x="361" y="444" type="line"/>
    </contour>
    <contour>
      <point x="169" y="327" type="curve" smooth="yes"/>
      <point x="169" y="385"/>
      <point x="212" y="425"/>
      <point x="264" y="425" type="curve" smooth="yes"/>
      <point x="315" y="425"/>
      <point x="357" y="385"/>
      <point x="357" y="327" type="curve" smooth="yes"/>
      <point x="357" y="269"/>
      <point x="315" y="230"/>
      <point x="264" y="230" type="curve" smooth="yes"/>
      <point x="212" y="229"/>
      <point x="169" y="269"/>
    </contour>
    <contour>
      <point x="87" y="327" type="curve" smooth="yes"/>
      <point x="87" y="224"/>
      <point x="168" y="155"/>
      <point x="264" y="155" type="curve" smooth="yes"/>
      <point x="359" y="154"/>
      <point x="440" y="225"/>
      <point x="439" y="327" type="curve" smooth="yes"/>
      <point x="440" y="430"/>
      <point x="359" y="500"/>
      <point x="264" y="500" type="curve" smooth="yes"/>
      <point x="168" y="500"/>
      <point x="87" y="430"/>
    </contour>
    <contour>
      <point x="168" y="445" type="line"/>
      <point x="139" y="499" type="line" smooth="yes"/>
      <point x="123" y="529"/>
      <point x="103" y="566"/>
      <point x="69" y="566" type="curve" smooth="yes"/>
      <point x="45" y="566"/>
      <point x="27" y="547"/>
      <point x="27" y="524" type="curve" smooth="yes"/>
      <point x="27" y="493"/>
      <point x="58" y="474"/>
      <point x="95" y="453" type="curve" smooth="yes"/>
      <point x="147" y="424" type="line"/>
    </contour>
    <contour>
      <point x="146" y="231" type="line"/>
      <point x="92" y="202" type="line" smooth="yes"/>
      <point x="62" y="186"/>
      <point x="25" y="166"/>
      <point x="25" y="132" type="curve" smooth="yes"/>
      <point x="25" y="108"/>
      <point x="44" y="90"/>
      <point x="67" y="90" type="curve" smooth="yes"/>
      <point x="98" y="90"/>
      <point x="117" y="121"/>
      <point x="138" y="158" type="curve" smooth="yes"/>
      <point x="167" y="210" type="line"/>
    </contour>
    <contour>
      <point x="360" y="209" type="line"/>
      <point x="389" y="155" type="line" smooth="yes"/>
      <point x="405" y="125"/>
      <point x="425" y="88"/>
      <point x="459" y="88" type="curve" smooth="yes"/>
      <point x="483" y="88"/>
      <point x="501" y="107"/>
      <point x="501" y="130" type="curve" smooth="yes"/>
      <point x="501" y="161"/>
      <point x="470" y="180"/>
      <point x="433" y="201" type="curve" smooth="yes"/>
      <point x="381" y="230" type="line"/>
    </contour>
  </outline>
</glyph>
<glyph name="yen" format="1">
  <advance width="528"/>
  <unicode hex="00A5"/>
  <outline>
    <contour>
      <point x="56" y="167" type="line"/>
      <point x="477" y="167" type="line"/>
      <point x="477" y="222" type="line"/>
      <point x="56" y="222" type="line"/>
    </contour>
    <contour>
      <point x="56" y="289" type="line"/>
      <point x="477" y="289" type="line"/>
      <point x="477" y="344" type="line"/>
      <point x="56" y="344" type="line"/>
    </contour>
    <contour>
      <point x="242" y="63" type="line"/>
      <point x="103" y="49" type="line"/>
      <point x="103" y="0" type="line"/>
      <point x="426" y="0" type="line"/>
      <point x="426" y="49" type="line"/>
      <point x="287" y="63" type="line"/>
    </contour>
    <contour>
      <point x="113" y="575" type="line"/>
      <point x="129" y="575" type="line"/>
      <point x="264" y="589" type="line"/>
      <point x="264" y="638" type="line"/>
      <point x="-19" y="638" type="line"/>
      <point x="-19" y="589" type="line"/>
    </contour>
    <contour>
      <point x="439" y="575" type="line"/>
      <point x="465" y="575" type="line"/>
      <point x="547" y="589" type="line"/>
      <point x="547" y="638" type="line"/>
      <point x="337" y="638" type="line"/>
      <point x="337" y="589" type="line"/>
    </contour>
    <contour>
      <point x="198" y="206" type="line" smooth="yes"/>
      <point x="198" y="129"/>
      <point x="198" y="85"/>
      <point x="195" y="0" type="curve"/>
      <point x="333" y="0" type="line"/>
      <point x="330" y="86"/>
      <point x="330" y="130"/>
      <point x="330" y="206" type="curve" smooth="yes"/>
      <point x="330" y="326" type="line"/>
      <point x="198" y="326" type="line"/>
    </contour>
    <contour>
      <point x="311" y="263" type="line"/>
      <point x="506" y="638" type="line"/>
      <point x="448" y="638" type="line"/>
      <point x="294" y="336" type="line"/>
      <point x="309" y="336" type="line"/>
      <point x="157" y="638" type="line"/>
      <point x="16" y="638" type="line"/>
      <point x="217" y="263" type="line"/>
    </contour>
  </outline>
</glyph>
<glyph name="section" format="1">
  <advance width="518"/>
  <unicode hex="00A7"/>
  <outline>
    <contour>
      <point x="274" y="670" type="curve" smooth="yes"/>
      <point x="166" y="670"/>
      <point x="98" y="607"/>
      <point x="98" y="522" type="curve" smooth="yes"/>
      <point x="98" y="412"/>
      <point x="200" y="370"/>
      <point x="269" y="343" type="curve" smooth="yes"/>
      <point x="335" y="317"/>
      <point x="381" y="295"/>
      <point x="381" y="231" type="curve" smooth="yes"/>
      <point x="381" y="191"/>
      <point x="363" y="163"/>
      <point x="331" y="136" type="curve"/>
      <point x="351" y="108" type="line"/>
      <point x="414" y="146"/>
      <point x="473" y="194"/>
      <point x="473" y="280" type="curve" smooth="yes"/>
      <point x="473" y="380"/>
      <point x="391" y="418"/>
      <point x="309" y="450" type="curve" smooth="yes"/>
      <point x="231" y="480"/>
      <point x="183" y="499"/>
      <point x="183" y="552" type="curve" smooth="yes"/>
      <point x="183" y="598"/>
      <point x="218" y="620"/>
      <point x="260" y="620" type="curve" smooth="yes"/>
      <point x="286" y="620"/>
      <point x="315" y="612"/>
      <point x="353" y="596" type="curve"/>
      <point x="290" y="628" type="line"/>
      <point x="324" y="559" type="line" smooth="yes"/>
      <point x="345" y="520"/>
      <point x="367" y="507"/>
      <point x="395" y="507" type="curve" smooth="yes"/>
      <point x="427" y="507"/>
      <point x="449" y="524"/>
      <point x="449" y="570" type="curve"/>
      <point x="427" y="627"/>
      <point x="363" y="670"/>
    </contour>
    <contour>
      <point x="245" y="-100" type="curve" smooth="yes"/>
      <point x="350" y="-100"/>
      <point x="419" y="-36"/>
      <point x="419" y="55" type="curve" smooth="yes"/>
      <point x="419" y="171"/>
      <point x="299" y="217"/>
      <point x="254" y="234" type="curve" smooth="yes"/>
      <point x="193" y="257"/>
      <point x="137" y="281"/>
      <point x="137" y="353" type="curve" smooth="yes"/>
      <point x="137" y="392"/>
      <point x="153" y="413"/>
      <point x="187" y="439" type="curve"/>
      <point x="167" y="467" type="line"/>
      <point x="105" y="430"/>
      <point x="45" y="387"/>
      <point x="45" y="305" type="curve" smooth="yes"/>
      <point x="45" y="200"/>
      <point x="145" y="158"/>
      <point x="210" y="134" type="curve" smooth="yes"/>
      <point x="280" y="108"/>
      <point x="334" y="86"/>
      <point x="334" y="21" type="curve" smooth="yes"/>
      <point x="334" y="-27"/>
      <point x="305" y="-50"/>
      <point x="251" y="-50" type="curve" smooth="yes"/>
      <point x="221" y="-50"/>
      <point x="200" y="-43"/>
      <point x="157" y="-26" type="curve"/>
      <point x="220" y="-58" type="line"/>
      <point x="186" y="11" type="line" smooth="yes"/>
      <point x="166" y="51"/>
      <point x="143" y="63"/>
      <point x="116" y="63" type="curve" smooth="yes"/>
      <point x="84" y="63"/>
      <point x="61" y="46"/>
      <point x="61" y="0" type="curve"/>
      <point x="86" y="-61"/>
      <point x="163" y="-100"/>
    </contour>
  </outline>
</glyph>
<glyph name="copyright" format="1">
  <advance width="748"/>
  <unicode hex="00A9"/>
  <outline>
    <contour>
      <point x="91" y="330" type="curve" smooth="yes"/>
      <point x="91" y="506"/>
      <point x="220" y="624"/>
      <point x="374" y="624" type="curve" smooth="yes"/>
      <point x="528" y="624"/>
      <point x="657" y="505"/>
      <point x="657" y="330" type="curve" smooth="yes"/>
      <point x="657" y="154"/>
      <point x="528" y="31"/>
      <point x="374" y="31" type="curve" smooth="yes"/>
      <point x="220" y="31"/>
      <point x="91" y="153"/>
    </contour>
    <contour>
      <point x="34" y="330" type="curve" smooth="yes"/>
      <point x="34" y="119"/>
      <point x="192" y="-15"/>
      <point x="374" y="-15" type="curve" smooth="yes"/>
      <point x="556" y="-15"/>
      <point x="714" y="119"/>
      <point x="714" y="330" type="curve" smooth="yes"/>
      <point x="714" y="539"/>
      <point x="556" y="670"/>
      <point x="374" y="670" type="curve" smooth="yes"/>
      <point x="192" y="670"/>
      <point x="34" y="539"/>
    </contour>
    <contour>
      <point x="408" y="180" type="curve" smooth="yes"/>
      <point x="338" y="180"/>
      <point x="295" y="231"/>
      <point x="295" y="325" type="curve" smooth="yes"/>
      <point x="295" y="418"/>
      <point x="344" y="469"/>
      <point x="403" y="469" type="curve" smooth="yes"/>
      <point x="427" y="469"/>
      <point x="465" y="464"/>
      <point x="495" y="439" type="curve"/>
      <point x="441" y="497" type="line"/>
      <point x="456" y="400" type="line"/>
      <point x="508" y="400" type="line"/>
      <point x="506" y="496" type="line"/>
      <point x="468" y="518"/>
      <point x="434" y="523"/>
      <point x="395" y="523" type="curve" smooth="yes"/>
      <point x="280" y="523"/>
      <point x="194" y="438"/>
      <point x="194" y="325" type="curve" smooth="yes"/>
      <point x="194" y="208"/>
      <point x="276" y="125"/>
      <point x="396" y="125" type="curve" smooth="yes"/>
      <point x="437" y="125"/>
      <point x="476" y="134"/>
      <point x="511" y="152" type="curve"/>
      <point x="514" y="248" type="line"/>
      <point x="461" y="248" type="line"/>
      <point x="446" y="151" type="line"/>
      <point x="500" y="209" type="line"/>
      <point x="471" y="184"/>
      <point x="426" y="180"/>
    </contour>
  </outline>
</glyph>
<glyph name="logicalnot" format="1">
  <advance width="530"/>
  <unicode hex="00AC"/>
  <outline>
    <contour>
      <point x="30" y="325" type="line"/>
      <point x="441" y="325" type="line"/>
      <point x="410" y="359" type="line"/>
      <point x="410" y="148" type="line"/>
      <point x="500" y="148" type="line"/>
      <point x="500" y="405" type="line"/>
      <point x="30" y="405" type="line"/>
    </contour>
  </outline>
</glyph>
<glyph name="registered" format="1">
  <advance width="458"/>
  <unicode hex="00AE"/>
  <outline>
    <contour>
      <point x="64" y="516" type="curve" smooth="yes"/>
      <point x="64" y="618"/>
      <point x="139" y="682"/>
      <point x="229" y="682" type="curve" smooth="yes"/>
      <point x="319" y="682"/>
      <point x="394" y="618"/>
      <point x="394" y="516" type="curve" smooth="yes"/>
      <point x="394" y="414"/>
      <point x="319" y="348"/>
      <point x="229" y="348" type="curve" smooth="yes"/>
      <point x="139" y="348"/>
      <point x="64" y="414"/>
    </contour>
    <contour>
      <point x="166" y="419" type="line"/>
      <point x="208" y="419" type="line"/>
      <point x="208" y="620" type="line"/>
      <point x="166" y="620" type="line"/>
    </contour>
    <contour>
      <point x="181" y="439" type="line"/>
      <point x="137" y="434" type="line"/>
      <point x="137" y="419" type="line"/>
      <point x="237" y="419" type="line"/>
      <point x="237" y="434" type="line"/>
      <point x="189" y="439" type="line"/>
    </contour>
    <contour>
      <point x="181" y="599" type="line"/>
      <point x="187" y="599" type="line"/>
      <point x="187" y="620" type="line"/>
      <point x="137" y="620" type="line"/>
      <point x="137" y="604" type="line"/>
    </contour>
    <contour>
      <point x="30" y="516" type="curve" smooth="yes"/>
      <point x="30" y="393"/>
      <point x="119" y="318"/>
      <point x="229" y="318" type="curve" smooth="yes"/>
      <point x="337" y="318"/>
      <point x="428" y="393"/>
      <point x="428" y="516" type="curve" smooth="yes"/>
      <point x="428" y="639"/>
      <point x="335" y="712"/>
      <point x="229" y="712" type="curve" smooth="yes"/>
      <point x="123" y="712"/>
      <point x="30" y="639"/>
    </contour>
    <contour>
      <point x="336" y="434" type="line"/>
      <point x="289" y="439" type="line"/>
      <point x="314" y="426" type="line"/>
      <point x="303" y="478" type="line" smooth="yes"/>
      <point x="297" y="506"/>
      <point x="270" y="519"/>
      <point x="234" y="519" type="curve"/>
      <point x="218" y="512" type="line"/>
      <point x="285" y="512"/>
      <point x="307" y="542"/>
      <point x="307" y="569" type="curve" smooth="yes"/>
      <point x="307" y="599"/>
      <point x="279" y="620"/>
      <point x="231" y="620" type="curve" smooth="yes"/>
      <point x="187" y="620" type="line"/>
      <point x="187" y="603" type="line"/>
      <point x="222" y="603" type="line" smooth="yes"/>
      <point x="249" y="603"/>
      <point x="262" y="590"/>
      <point x="262" y="565" type="curve" smooth="yes"/>
      <point x="262" y="543"/>
      <point x="251" y="525"/>
      <point x="222" y="525" type="curve" smooth="yes"/>
      <point x="187" y="525" type="line"/>
      <point x="187" y="508" type="line"/>
      <point x="223" y="508" type="line" smooth="yes"/>
      <point x="242" y="508"/>
      <point x="255" y="501"/>
      <point x="258" y="484" type="curve" smooth="yes"/>
      <point x="267" y="441" type="line" smooth="yes"/>
      <point x="271" y="420"/>
      <point x="281" y="415"/>
      <point x="306" y="415" type="curve" smooth="yes"/>
      <point x="317" y="415"/>
      <point x="323" y="416"/>
      <point x="336" y="419" type="curve"/>
    </contour>
  </outline>
</glyph>
<glyph name="degree" format="1">
  <advance width="356"/>
  <unicode hex="00B0"/>
  <outline>
    <contour>
      <point x="178" y="434" type="curve" smooth="yes"/>
      <point x="129" y="434"/>
      <point x="94" y="472"/>
      <point x="94" y="527" type="curve" smooth="yes"/>
      <point x="94" y="584"/>
      <point x="129" y="622"/>
      <point x="178" y="622" type="curve" smooth="yes"/>
      <point x="227" y="622"/>
      <point x="262" y="584"/>
      <point x="262" y="527" type="curve" smooth="yes"/>
      <point x="262" y="472"/>
      <point x="227" y="434"/>
    </contour>
    <contour>
      <point x="178" y="386" type="curve" smooth="yes"/>
      <point x="255" y="386"/>
      <point x="321" y="441"/>
      <point x="321" y="527" type="curve" smooth="yes"/>
      <point x="321" y="615"/>
      <point x="255" y="670"/>
      <point x="178" y="670" type="curve" smooth="yes"/>
      <point x="101" y="670"/>
      <point x="35" y="615"/>
      <point x="35" y="527" type="curve" smooth="yes"/>
      <point x="35" y="441"/>
      <point x="101" y="386"/>
    </contour>
  </outline>
</glyph>
<glyph name="plusminus" format="1">
  <advance width="530"/>
  <unicode hex="00B1"/>
  <outline>
    <contour>
      <point x="223" y="142" type="line"/>
      <point x="307" y="142" type="line"/>
      <point x="307" y="573" type="line"/>
      <point x="223" y="573" type="line"/>
    </contour>
    <contour>
      <point x="500" y="325" type="line"/>
      <point x="500" y="405" type="line"/>
      <point x="30" y="405" type="line"/>
      <point x="30" y="325" type="line"/>
    </contour>
    <contour>
      <point x="500" y="0" type="line"/>
      <point x="500" y="80" type="line"/>
      <point x="30" y="80" type="line"/>
      <point x="30" y="0" type="line"/>
    </contour>
  </outline>
</glyph>
<glyph name="two.sups" format="1">
  <advance width="370"/>
  <unicode hex="00B2"/>
  <outline>
    <contour>
      <point x="55" y="426" type="line"/>
      <point x="322" y="426" type="line"/>
      <point x="322" y="495" type="line"/>
      <point x="98" y="495" type="line"/>
      <point x="84" y="455" type="line"/>
      <point x="179" y="543" type="line" smooth="yes"/>
      <point x="269" y="627"/>
      <point x="307" y="671"/>
      <point x="307" y="728" type="curve" smooth="yes"/>
      <point x="307" y="781"/>
      <point x="273" y="832"/>
      <point x="186" y="832" type="curve" smooth="yes"/>
      <point x="116" y="832"/>
      <point x="54" y="799"/>
      <point x="49" y="731" type="curve"/>
      <point x="57" y="717"/>
      <point x="69" y="708"/>
      <point x="85" y="708" type="curve" smooth="yes"/>
      <point x="103" y="708"/>
      <point x="115" y="719"/>
      <point x="124" y="757" type="curve" smooth="yes"/>
      <point x="138" y="813" type="line"/>
      <point x="98" y="785" type="line"/>
      <point x="122" y="795"/>
      <point x="143" y="798"/>
      <point x="160" y="798" type="curve" smooth="yes"/>
      <point x="208" y="798"/>
      <point x="236" y="771"/>
      <point x="236" y="720" type="curve" smooth="yes"/>
      <point x="236" y="669"/>
      <point x="207" y="622"/>
      <point x="148" y="565" type="curve" smooth="yes"/>
      <point x="55" y="475" type="line"/>
    </contour>
  </outline>
</glyph>
<glyph name="mu.math" format="1">
  <advance width="609"/>
  <unicode hex="00B5"/>
  <outline>
    <contour>
      <point x="279" y="-15" type="curve" smooth="yes"/>
      <point x="341" y="-15"/>
      <point x="394" y="18"/>
      <point x="429" y="104" type="curve"/>
      <point x="419" y="99" type="line"/>
      <point x="470" y="99" type="line"/>
      <point x="470" y="150" type="line"/>
      <point x="449" y="190" type="line"/>
      <point x="390" y="139"/>
      <point x="344" y="110"/>
      <point x="283" y="110" type="curve" smooth="yes"/>
      <point x="217" y="110"/>
      <point x="160" y="146"/>
      <point x="160" y="240" type="curve" smooth="yes"/>
      <point x="160" y="249" type="line"/>
      <point x="130" y="249" type="line"/>
      <point x="130" y="175" type="line" smooth="yes"/>
      <point x="130" y="51"/>
      <point x="189" y="-15"/>
    </contour>
    <contour>
      <point x="417" y="267" type="line"/>
      <point x="417" y="112" type="line" smooth="yes"/>
      <point x="417" y="50"/>
      <point x="449" y="-10"/>
      <point x="512" y="-10" type="curve" smooth="yes"/>
      <point x="541" y="-10"/>
      <point x="566" y="-2"/>
      <point x="594" y="25" type="curve"/>
      <point x="575" y="112" type="line"/>
      <point x="556" y="105" type="line" smooth="yes"/>
      <point x="550" y="103"/>
      <point x="542" y="100"/>
      <point x="525" y="100" type="curve" smooth="yes"/>
      <point x="503" y="100"/>
      <point x="487" y="118"/>
      <point x="487" y="153" type="curve" smooth="yes"/>
      <point x="487" y="375" type="line"/>
      <point x="492" y="488" type="line"/>
      <point x="477" y="498" type="line"/>
      <point x="408" y="480" type="line"/>
    </contour>
    <contour>
      <point x="90" y="107" type="line"/>
      <point x="71" y="37" type="line" smooth="yes"/>
      <point x="53" y="-30"/>
      <point x="29" y="-109"/>
      <point x="29" y="-158" type="curve" smooth="yes"/>
      <point x="29" y="-210"/>
      <point x="55" y="-230"/>
      <point x="86" y="-230" type="curve" smooth="yes"/>
      <point x="114" y="-230"/>
      <point x="131" y="-222"/>
      <point x="145" y="-207" type="curve"/>
      <point x="148" y="83" type="line"/>
      <point x="160" y="88" type="line"/>
      <point x="160" y="375" type="line"/>
      <point x="165" y="488" type="line"/>
      <point x="150" y="498" type="line"/>
      <point x="81" y="480" type="line"/>
      <point x="90" y="267" type="line"/>
    </contour>
  </outline>
</glyph>
<glyph name="paragraph" format="1">
  <advance width="652"/>
  <unicode hex="00B6"/>
  <outline>
    <contour>
      <point x="458" y="655" type="line"/>
      <point x="458" y="590" type="line"/>
      <point x="469" y="590" type="line"/>
      <point x="612" y="605" type="line"/>
      <point x="612" y="655" type="line"/>
    </contour>
    <contour>
      <point x="401" y="190" type="line" smooth="yes"/>
      <point x="401" y="85"/>
      <point x="401" y="-19"/>
      <point x="398" y="-120" type="curve"/>
      <point x="528" y="-120" type="line"/>
      <point x="525" y="-17"/>
      <point x="525" y="87"/>
      <point x="525" y="190" type="curve" smooth="yes"/>
      <point x="525" y="345" type="line" smooth="yes"/>
      <point x="525" y="450"/>
      <point x="525" y="554"/>
      <point x="528" y="655" type="curve"/>
      <point x="401" y="655" type="line"/>
    </contour>
    <contour>
      <point x="336" y="600" type="line"/>
      <point x="458" y="600" type="line"/>
      <point x="458" y="655" type="line"/>
      <point x="377" y="655" type="line" smooth="yes"/>
      <point x="172" y="655"/>
      <point x="25" y="569"/>
      <point x="25" y="396" type="curve" smooth="yes"/>
      <point x="25" y="215"/>
      <point x="158" y="122"/>
      <point x="336" y="120" type="curve"/>
    </contour>
  </outline>
</glyph>
<glyph name="AE" format="1">
  <advance width="913"/>
  <unicode hex="00C6"/>
  <outline>
    <contour>
      <point x="430" y="244" type="line" smooth="yes"/>
      <point x="430" y="155"/>
      <point x="429" y="77"/>
      <point x="427" y="0" type="curve"/>
      <point x="579" y="0" type="line"/>
      <point x="576" y="103"/>
      <point x="576" y="207"/>
      <point x="576" y="320" type="curve" smooth="yes"/>
      <point x="576" y="345" type="line" smooth="yes"/>
      <point x="576" y="450"/>
      <point x="576" y="554"/>
      <point x="579" y="655" type="curve"/>
      <point x="430" y="655" type="line"/>
    </contour>
    <contour>
      <point x="112" y="65" type="line"/>
      <point x="10" y="50" type="line"/>
      <point x="10" y="0" type="line"/>
      <point x="235" y="0" type="line"/>
      <point x="235" y="50" type="line"/>
      <point x="131" y="65" type="line"/>
    </contour>
    <contour>
      <point x="702" y="333" type="line"/>
      <point x="717" y="224" type="line"/>
      <point x="771" y="224" type="line"/>
      <point x="771" y="456" type="line"/>
      <point x="717" y="456" type="line"/>
      <point x="702" y="352" type="line"/>
    </contour>
    <contour>
      <point x="813" y="174" type="line"/>
      <point x="783" y="0" type="line"/>
      <point x="847" y="54" type="line"/>
      <point x="503" y="54" type="line"/>
      <point x="503" y="0" type="line"/>
      <point x="881" y="0" type="line"/>
      <point x="888" y="174" type="line"/>
    </contour>
    <contour>
      <point x="793" y="481" type="line"/>
      <point x="868" y="481" type="line"/>
      <point x="861" y="655" type="line"/>
      <point x="503" y="655" type="line"/>
      <point x="503" y="600" type="line"/>
      <point x="827" y="600" type="line"/>
      <point x="763" y="655" type="line"/>
    </contour>
    <contour>
      <point x="490" y="65" type="line"/>
      <point x="347" y="50" type="line"/>
      <point x="347" y="0" type="line"/>
      <point x="503" y="0" type="line"/>
      <point x="503" y="65" type="line"/>
    </contour>
    <contour>
      <point x="410" y="590" type="line"/>
      <point x="503" y="590" type="line"/>
      <point x="503" y="655" type="line"/>
      <point x="267" y="655" type="line"/>
      <point x="267" y="605" type="line"/>
    </contour>
    <contour>
      <point x="388" y="655" type="line"/>
      <point x="52" y="0" type="line"/>
      <point x="119" y="0" type="line"/>
      <point x="453" y="655" type="line"/>
    </contour>
    <contour>
      <point x="503" y="238" type="line"/>
      <point x="503" y="293" type="line"/>
      <point x="236" y="293" type="line"/>
      <point x="208" y="238" type="line"/>
    </contour>
    <contour>
      <point x="733" y="367" type="line"/>
      <point x="503" y="367" type="line"/>
      <point x="503" y="312" type="line"/>
      <point x="733" y="312" type="line"/>
    </contour>
  </outline>
</glyph>
<glyph name="Eth" format="1">
  <advance width="692"/>
  <unicode hex="00D0"/>
  <outline>
    <contour>
      <point x="392" y="311" type="line"/>
      <point x="392" y="366" type="line"/>
      <point x="32" y="366" type="line"/>
      <point x="32" y="311" type="line"/>
    </contour>
    <component base="D"/>
  </outline>
</glyph>
<glyph name="multiply" format="1">
  <advance width="530"/>
  <unicode hex="00D7"/>
  <outline>
    <contour>
      <point x="440" y="96" type="line"/>
      <point x="494" y="150" type="line"/>
      <point x="90" y="554" type="line"/>
      <point x="36" y="500" type="line"/>
    </contour>
    <contour>
      <point x="494" y="500" type="line"/>
      <point x="440" y="554" type="line"/>
      <point x="36" y="150" type="line"/>
      <point x="90" y="96" type="line"/>
    </contour>
  </outline>
</glyph>
<glyph name="Oslash" format="1">
  <advance width="708.0"/>
  <unicode hex="00D8"/>
  <outline>
    <contour>
      <point x="645" y="620" type="line"/>
      <point x="587" y="670" type="line"/>
      <point x="36" y="30" type="line"/>
      <point x="94" y="-20" type="line"/>
    </contour>
    <component base="O"/>
  </outline>
</glyph>
<glyph name="Thorn" format="1">
  <advance width="614"/>
  <unicode hex="00DE"/>
  <outline>
    <contour>
      <point x="175" y="590" type="line"/>
      <point x="211" y="590" type="line"/>
      <point x="354" y="605" type="line"/>
      <point x="354" y="655" type="line"/>
      <point x="32" y="655" type="line"/>
      <point x="32" y="605" type="line"/>
    </contour>
    <contour>
      <point x="175" y="65" type="line"/>
      <point x="32" y="50" type="line"/>
      <point x="32" y="0" type="line"/>
      <point x="354" y="0" type="line"/>
      <point x="354" y="50" type="line"/>
      <point x="219" y="65" type="line"/>
    </contour>
    <contour>
      <point x="115" y="310" type="line" smooth="yes"/>
      <point x="115" y="205"/>
      <point x="115" y="101"/>
      <point x="112" y="0" type="curve"/>
      <point x="264" y="0" type="line"/>
      <point x="262" y="56"/>
      <point x="261" y="112"/>
      <point x="261" y="168" type="curve" smooth="yes"/>
      <point x="261" y="502" type="line" smooth="yes"/>
      <point x="261" y="554"/>
      <point x="263" y="605"/>
      <point x="264" y="655" type="curve"/>
      <point x="112" y="655" type="line"/>
      <point x="115" y="552"/>
      <point x="115" y="448"/>
      <point x="115" y="345" type="curve" smooth="yes"/>
    </contour>
    <contour>
      <point x="594" y="345" type="curve" smooth="yes"/>
      <point x="594" y="462"/>
      <point x="511" y="535"/>
      <point x="312" y="535" type="curve" smooth="yes"/>
      <point x="188" y="535" type="line"/>
      <point x="188" y="480" type="line"/>
      <point x="304" y="480" type="line" smooth="yes"/>
      <point x="408" y="480"/>
      <point x="456" y="430"/>
      <point x="456" y="342" type="curve" smooth="yes"/>
      <point x="456" y="257"/>
      <point x="408" y="199"/>
      <point x="302" y="199" type="curve" smooth="yes"/>
      <point x="188" y="199" type="line"/>
      <point x="188" y="144" type="line"/>
      <point x="286" y="144" type="line" smooth="yes"/>
      <point x="531" y="144"/>
      <point x="594" y="233"/>
    </contour>
  </outline>
</glyph>
<glyph name="germandbls" format="1">
  <advance width="628"/>
  <unicode hex="00DF"/>
  <outline>
    <contour>
      <point x="154" y="64" type="curve"/>
      <point x="124" y="64" type="line"/>
      <point x="24" y="44" type="line"/>
      <point x="24" y="0" type="line"/>
      <point x="154" y="0" type="line"/>
      <point x="154" y="0"/>
      <point x="154" y="64"/>
    </contour>
    <contour>
      <point x="86" y="210" type="line" smooth="yes"/>
      <point x="86" y="140"/>
      <point x="85" y="70"/>
      <point x="83" y="0" type="curve"/>
      <point x="225" y="0" type="line"/>
      <point x="223" y="70"/>
      <point x="222" y="140"/>
      <point x="222" y="210" type="curve" smooth="yes"/>
      <point x="222" y="412" type="line" smooth="yes"/>
      <point x="222" y="492"/>
      <point x="220" y="559"/>
      <point x="230" y="602" type="curve" smooth="yes"/>
      <point x="244" y="664"/>
      <point x="289" y="690"/>
      <point x="342" y="690" type="curve" smooth="yes"/>
      <point x="403" y="690"/>
      <point x="439" y="648"/>
      <point x="439" y="592" type="curve" smooth="yes"/>
      <point x="439" y="556"/>
      <point x="426" y="515"/>
      <point x="390" y="479" type="curve" smooth="yes"/>
      <point x="335" y="424"/>
      <point x="311" y="399"/>
      <point x="311" y="348" type="curve" smooth="yes"/>
      <point x="311" y="288"/>
      <point x="348" y="260"/>
      <point x="421" y="209" type="curve" smooth="yes"/>
      <point x="477" y="170"/>
      <point x="492" y="142"/>
      <point x="492" y="106" type="curve" smooth="yes"/>
      <point x="492" y="63"/>
      <point x="468" y="37"/>
      <point x="427" y="37" type="curve" smooth="yes"/>
      <point x="393" y="37"/>
      <point x="351" y="54"/>
      <point x="306" y="84" type="curve"/>
      <point x="365" y="28" type="line"/>
      <point x="349" y="142" type="line"/>
      <point x="275" y="142" type="line"/>
      <point x="275" y="27" type="line"/>
      <point x="324" y="0"/>
      <point x="373" y="-15"/>
      <point x="425" y="-15" type="curve" smooth="yes"/>
      <point x="525" y="-15"/>
      <point x="608" y="41"/>
      <point x="608" y="155" type="curve" smooth="yes"/>
      <point x="608" y="210"/>
      <point x="592" y="253"/>
      <point x="516" y="305" type="curve" smooth="yes"/>
      <point x="443" y="355"/>
      <point x="426" y="367"/>
      <point x="426" y="397" type="curve" smooth="yes"/>
      <point x="426" y="423"/>
      <point x="439" y="446"/>
      <point x="478" y="475" type="curve" smooth="yes"/>
      <point x="527" y="512"/>
      <point x="553" y="545"/>
      <point x="553" y="596" type="curve" smooth="yes"/>
      <point x="553" y="685"/>
      <point x="477" y="740"/>
      <point x="356" y="740" type="curve" smooth="yes"/>
      <point x="254" y="740"/>
      <point x="169" y="705"/>
      <point x="125" y="618" type="curve" smooth="yes"/>
      <point x="102" y="573"/>
      <point x="86" y="516"/>
      <point x="86" y="429" type="curve" smooth="yes"/>
    </contour>
  </outline>
</glyph>
<glyph name="ae" format="1">
  <advance width="804"/>
  <unicode hex="00E6"/>
  <outline>
    <contour>
      <point x="175" y="136" type="curve" smooth="yes"/>
      <point x="175" y="178"/>
      <point x="195" y="214"/>
      <point x="253" y="237" type="curve" smooth="yes"/>
      <point x="283" y="249"/>
      <point x="341" y="265"/>
      <point x="389" y="278" type="curve"/>
      <point x="389" y="319" type="line"/>
      <point x="341" y="308"/>
      <point x="272" y="289"/>
      <point x="230" y="275" type="curve" smooth="yes"/>
      <point x="78" y="225"/>
      <point x="45" y="167"/>
      <point x="45" y="105" type="curve" smooth="yes"/>
      <point x="45" y="27"/>
      <point x="101" y="-15"/>
      <point x="189" y="-15" type="curve" smooth="yes"/>
      <point x="249" y="-15"/>
      <point x="280" y="4"/>
      <point x="337" y="52" type="curve" smooth="yes"/>
      <point x="393" y="100" type="line"/>
      <point x="367" y="127" type="line"/>
      <point x="328" y="97" type="line" smooth="yes"/>
      <point x="294" y="71"/>
      <point x="274" y="63"/>
      <point x="250" y="63" type="curve" smooth="yes"/>
      <point x="228" y="63"/>
      <point x="209" y="69"/>
      <point x="194" y="84" type="curve" smooth="yes"/>
      <point x="183" y="95"/>
      <point x="175" y="110"/>
    </contour>
    <contour>
      <point x="554" y="-15" type="curve" smooth="yes"/>
      <point x="655" y="-15"/>
      <point x="733" y="31"/>
      <point x="760" y="119" type="curve"/>
      <point x="726" y="138" type="line"/>
      <point x="696" y="90"/>
      <point x="660" y="63"/>
      <point x="602" y="63" type="curve" smooth="yes"/>
      <point x="518" y="63"/>
      <point x="457" y="121"/>
      <point x="457" y="247" type="curve" smooth="yes"/>
      <point x="457" y="400"/>
      <point x="521" y="448"/>
      <point x="568" y="448" type="curve" smooth="yes"/>
      <point x="606" y="448"/>
      <point x="641" y="417"/>
      <point x="641" y="348" type="curve" smooth="yes"/>
      <point x="641" y="305"/>
      <point x="626" y="285"/>
      <point x="578" y="285" type="curve" smooth="yes"/>
      <point x="385" y="285" type="line"/>
      <point x="385" y="235" type="line"/>
      <point x="764" y="235" type="line"/>
      <point x="768" y="251"/>
      <point x="770" y="269"/>
      <point x="770" y="287" type="curve" smooth="yes"/>
      <point x="770" y="411"/>
      <point x="690" y="498"/>
      <point x="565" y="498" type="curve" smooth="yes"/>
      <point x="496" y="498"/>
      <point x="435" y="470"/>
      <point x="391" y="403" type="curve"/>
      <point x="367" y="387" type="line"/>
      <point x="335" y="349"/>
      <point x="312" y="297"/>
      <point x="312" y="233" type="curve" smooth="yes"/>
      <point x="312" y="78"/>
      <point x="409" y="-15"/>
    </contour>
    <contour>
      <point x="453" y="235" type="line"/>
      <point x="453" y="325" type="line" smooth="yes"/>
      <point x="453" y="419"/>
      <point x="408" y="498"/>
      <point x="269" y="498" type="curve" smooth="yes"/>
      <point x="146" y="498"/>
      <point x="71" y="439"/>
      <point x="62" y="360" type="curve"/>
      <point x="69" y="333"/>
      <point x="86" y="312"/>
      <point x="122" y="312" type="curve" smooth="yes"/>
      <point x="163" y="312"/>
      <point x="186" y="339"/>
      <point x="193" y="394" type="curve" smooth="yes"/>
      <point x="203" y="469" type="line"/>
      <point x="143" y="436" type="line"/>
      <point x="183" y="444"/>
      <point x="209" y="448"/>
      <point x="239" y="448" type="curve" smooth="yes"/>
      <point x="292" y="448"/>
      <point x="317" y="420"/>
      <point x="317" y="331" type="curve" smooth="yes"/>
      <point x="317" y="235" type="line"/>
    </contour>
  </outline>
</glyph>
<glyph name="eth" format="1">
  <advance width="545"/>
  <unicode hex="00F0"/>
  <outline>
    <contour>
      <point x="151" y="508" type="line"/>
      <point x="484" y="679" type="line"/>
      <point x="453" y="740" type="line"/>
      <point x="120" y="569" type="line"/>
    </contour>
    <contour>
      <point x="274" y="430" type="curve" smooth="yes"/>
      <point x="336" y="430"/>
      <point x="372" y="363"/>
      <point x="372" y="235" type="curve" smooth="yes"/>
      <point x="372" y="103"/>
      <point x="336" y="35"/>
      <point x="274" y="35" type="curve" smooth="yes"/>
      <point x="212" y="35"/>
      <point x="176" y="103"/>
      <point x="176" y="231" type="curve" smooth="yes"/>
      <point x="176" y="363"/>
      <point x="212" y="430"/>
    </contour>
    <contour>
      <point x="264" y="-15" type="curve" smooth="yes"/>
      <point x="396" y="-15"/>
      <point x="508" y="76"/>
      <point x="508" y="278" type="curve" smooth="yes"/>
      <point x="508" y="502"/>
      <point x="357" y="667"/>
      <point x="148" y="740" type="curve"/>
      <point x="123" y="689" type="line"/>
      <point x="277" y="611"/>
      <point x="329" y="543"/>
      <point x="373" y="377" type="curve"/>
      <point x="405" y="377" type="line"/>
      <point x="381" y="446"/>
      <point x="329" y="480"/>
      <point x="263" y="480" type="curve" smooth="yes"/>
      <point x="150" y="480"/>
      <point x="36" y="392"/>
      <point x="36" y="227" type="curve" smooth="yes"/>
      <point x="36" y="67"/>
      <point x="150" y="-15"/>
    </contour>
  </outline>
</glyph>
<glyph name="divide" format="1">
  <advance width="530"/>
  <unicode hex="00F7"/>
  <outline>
    <contour>
      <point x="265" y="61" type="curve" smooth="yes"/>
      <point x="305" y="61"/>
      <point x="337" y="90"/>
      <point x="337" y="130" type="curve" smooth="yes"/>
      <point x="337" y="170"/>
      <point x="305" y="199"/>
      <point x="265" y="199" type="curve" smooth="yes"/>
      <point x="225" y="199"/>
      <point x="193" y="170"/>
      <point x="193" y="130" type="curve" smooth="yes"/>
      <point x="193" y="90"/>
      <point x="225" y="61"/>
    </contour>
    <contour>
      <point x="265" y="461" type="curve" smooth="yes"/>
      <point x="305" y="461"/>
      <point x="337" y="490"/>
      <point x="337" y="530" type="curve" smooth="yes"/>
      <point x="337" y="570"/>
      <point x="305" y="599"/>
      <point x="265" y="599" type="curve" smooth="yes"/>
      <point x="225" y="599"/>
      <point x="193" y="570"/>
      <point x="193" y="530" type="curve" smooth="yes"/>
      <point x="193" y="490"/>
      <point x="225" y="461"/>
    </contour>
    <component base="minus"/>
  </outline>
</glyph>
<glyph name="oslash" format="1">
	<unicode hex="00F8"/>
	<advance width="548"/>
	<outline>
		<contour>
			<point x="486" y="475" type="line"/>
			<point x="454" y="500" type="line"/>
			<point x="54" y="5" type="line"/>
			<point x="86" y="-20" type="line"/>
		</contour>
		<component base="o"/>
		<contour>
			<point name="aboveLC" x="274" y="506" type="move"/>
		</contour>
	</outline>
</glyph>
<glyph name="thorn" format="1">
  <advance width="582"/>
  <unicode hex="00FE"/>
  <outline>
    <contour>
      <point x="402" y="241" type="curve" smooth="yes"/>
      <point x="402" y="119"/>
      <point x="353" y="62"/>
      <point x="292" y="62" type="curve" smooth="yes"/>
      <point x="243" y="62"/>
      <point x="196" y="99"/>
      <point x="148" y="146" type="curve"/>
      <point x="139" y="128" type="line"/>
      <point x="188" y="37"/>
      <point x="242" y="-15"/>
      <point x="334" y="-15" type="curve" smooth="yes"/>
      <point x="453" y="-15"/>
      <point x="547" y="83"/>
      <point x="547" y="244" type="curve" smooth="yes"/>
      <point x="547" y="412"/>
      <point x="462" y="498"/>
      <point x="349" y="498" type="curve" smooth="yes"/>
      <point x="255" y="498"/>
      <point x="199" y="443"/>
      <point x="139" y="353" type="curve"/>
      <point x="148" y="336" type="line"/>
      <point x="193" y="381"/>
      <point x="247" y="420"/>
      <point x="298" y="420" type="curve" smooth="yes"/>
      <point x="363" y="420"/>
      <point x="402" y="363"/>
    </contour>
    <contour>
      <point x="190" y="-156" type="line"/>
      <point x="116" y="-156" type="line"/>
      <point x="18" y="-176" type="line"/>
      <point x="18" y="-220" type="line"/>
      <point x="288" y="-220" type="line"/>
      <point x="288" y="-176" type="line"/>
    </contour>
    <contour>
      <point x="216" y="407" type="line"/>
      <point x="213" y="420" type="line"/>
      <point x="213" y="570" type="line"/>
      <point x="217" y="712" type="line"/>
      <point x="203" y="720" type="line"/>
      <point x="5" y="675" type="line"/>
      <point x="5" y="635" type="line"/>
      <point x="80" y="626" type="line"/>
      <point x="80" y="0" type="line" smooth="yes"/>
      <point x="80" y="-65"/>
      <point x="79" y="-173"/>
      <point x="77" y="-220" type="curve"/>
      <point x="214" y="-220" type="line"/>
      <point x="212" y="-173"/>
      <point x="211" y="-65"/>
      <point x="211" y="0" type="curve" smooth="yes"/>
      <point x="211" y="49" type="line"/>
      <point x="216" y="60" type="line"/>
    </contour>
  </outline>
</glyph>
<glyph name="aogonek" format="1">
  <advance width="534"/>
  <unicode hex="0105"/>
  <outline>
    <contour>
      <point x="453" y="91" type="curve" smooth="yes"/>
      <point x="453" y="297" type="line" smooth="yes"/>
      <point x="453" y="446"/>
      <point x="402" y="498"/>
      <point x="277" y="498" type="curve" smooth="yes"/>
      <point x="150" y="498"/>
      <point x="71" y="440"/>
      <point x="62" y="362" type="curve"/>
      <point x="68" y="331"/>
      <point x="92" y="311"/>
      <point x="123" y="311" type="curve" smooth="yes"/>
      <point x="158" y="311"/>
      <point x="185" y="336"/>
      <point x="192" y="388" type="curve" smooth="yes"/>
      <point x="203" y="469" type="line"/>
      <point x="141" y="434" type="line"/>
      <point x="182" y="444"/>
      <point x="208" y="448"/>
      <point x="231" y="448" type="curve" smooth="yes"/>
      <point x="295" y="448"/>
      <point x="317" y="415"/>
      <point x="317" y="331" type="curve" smooth="yes"/>
      <point x="317" y="87" type="line" smooth="yes"/>
      <point x="317" y="33"/>
      <point x="361" y="-10"/>
      <point x="423" y="-10" type="curve"/>
      <point x="437" y="4" type="line"/>
      <point x="371" y="-23"/>
      <point x="314" y="-72"/>
      <point x="314" y="-136" type="curve" smooth="yes"/>
      <point x="314" y="-191"/>
      <point x="356" y="-230"/>
      <point x="423" y="-230" type="curve" smooth="yes"/>
      <point x="467" y="-230"/>
      <point x="518" y="-212"/>
      <point x="549" y="-185" type="curve"/>
      <point x="535" y="-147" type="line"/>
      <point x="517" y="-152"/>
      <point x="500" y="-155"/>
      <point x="484" y="-155" type="curve" smooth="yes"/>
      <point x="444" y="-155"/>
      <point x="409" y="-133"/>
      <point x="409" y="-92" type="curve" smooth="yes"/>
      <point x="409" y="-53"/>
      <point x="440" y="-33"/>
      <point x="482" y="-2" type="curve" smooth="yes"/>
      <point x="506" y="16"/>
      <point x="520" y="30"/>
      <point x="539" y="63" type="curve"/>
      <point x="513" y="82" type="line"/>
      <point x="508" y="76" type="line" smooth="yes"/>
      <point x="498" y="64"/>
      <point x="491" y="55"/>
      <point x="478" y="55" type="curve" smooth="yes"/>
      <point x="461" y="55"/>
      <point x="453" y="70"/>
    </contour>
    <contour>
      <point x="175" y="136" type="curve" smooth="yes"/>
      <point x="175" y="178"/>
      <point x="195" y="214"/>
      <point x="253" y="237" type="curve" smooth="yes"/>
      <point x="283" y="249"/>
      <point x="341" y="265"/>
      <point x="389" y="278" type="curve"/>
      <point x="389" y="319" type="line"/>
      <point x="341" y="308"/>
      <point x="272" y="289"/>
      <point x="230" y="275" type="curve" smooth="yes"/>
      <point x="78" y="225"/>
      <point x="45" y="167"/>
      <point x="45" y="105" type="curve" smooth="yes"/>
      <point x="45" y="27"/>
      <point x="101" y="-15"/>
      <point x="180" y="-15" type="curve" smooth="yes"/>
      <point x="251" y="-15"/>
      <point x="287" y="13"/>
      <point x="341" y="64" type="curve" smooth="yes"/>
      <point x="383" y="104" type="line"/>
      <point x="367" y="127" type="line"/>
      <point x="328" y="97" type="line" smooth="yes"/>
      <point x="294" y="71"/>
      <point x="274" y="63"/>
      <point x="250" y="63" type="curve" smooth="yes"/>
      <point x="228" y="63"/>
      <point x="209" y="69"/>
      <point x="194" y="84" type="curve" smooth="yes"/>
      <point x="183" y="95"/>
      <point x="175" y="110"/>
    </contour>
  </outline>
</glyph>
<glyph name="dcroat" format="1">
  <advance width="592"/>
  <unicode hex="0111"/>
  <outline>
    <contour>
      <point x="194" y="531" type="line"/>
      <point x="569" y="531" type="line"/>
      <point x="569" y="586" type="line"/>
      <point x="194" y="586" type="line"/>
    </contour>
    <contour>
      <point x="180" y="233" type="curve" smooth="yes"/>
      <point x="180" y="349"/>
      <point x="234" y="403"/>
      <point x="291" y="403" type="curve" smooth="yes"/>
      <point x="339" y="403"/>
      <point x="386" y="365"/>
      <point x="434" y="318" type="curve"/>
      <point x="443" y="336" type="line"/>
      <point x="394" y="427"/>
      <point x="340" y="480"/>
      <point x="248" y="480" type="curve" smooth="yes"/>
      <point x="129" y="480"/>
      <point x="35" y="386"/>
      <point x="35" y="230" type="curve" smooth="yes"/>
      <point x="35" y="68"/>
      <point x="120" y="-15"/>
      <point x="233" y="-15" type="curve" smooth="yes"/>
      <point x="327" y="-15"/>
      <point x="383" y="41"/>
      <point x="443" y="131" type="curve"/>
      <point x="434" y="148" type="line"/>
      <point x="389" y="103"/>
      <point x="335" y="63"/>
      <point x="285" y="63" type="curve" smooth="yes"/>
      <point x="226" y="63"/>
      <point x="180" y="119"/>
    </contour>
    <contour>
      <point x="459" y="67" type="line"/>
      <point x="511" y="0" type="line"/>
      <point x="511" y="570" type="line"/>
      <point x="515" y="712" type="line"/>
      <point x="501" y="720" type="line"/>
      <point x="300" y="675" type="line"/>
      <point x="300" y="635" type="line"/>
      <point x="380" y="625" type="line"/>
      <point x="380" y="407" type="line"/>
      <point x="375" y="395" type="line"/>
      <point x="375" y="82" type="line"/>
      <point x="385" y="-10" type="line"/>
      <point x="569" y="0" type="line"/>
      <point x="569" y="44" type="line"/>
    </contour>
  </outline>
</glyph>
<glyph name="eogonek" format="1">
  <advance width="527"/>
  <unicode hex="0119"/>
  <outline>
    <contour>
      <point x="356" y="-230" type="curve" smooth="yes"/>
      <point x="398" y="-230"/>
      <point x="449" y="-212"/>
      <point x="480" y="-185" type="curve"/>
      <point x="466" y="-147" type="line"/>
      <point x="448" y="-152"/>
      <point x="431" y="-155"/>
      <point x="414" y="-155" type="curve" smooth="yes"/>
      <point x="375" y="-155"/>
      <point x="340" y="-133"/>
      <point x="340" y="-84" type="curve" smooth="yes"/>
      <point x="340" y="-44"/>
      <point x="370" y="-13"/>
      <point x="415" y="24" type="curve" smooth="yes"/>
      <point x="448" y="51"/>
      <point x="470" y="80"/>
      <point x="483" y="119" type="curve"/>
      <point x="449" y="138" type="line"/>
      <point x="419" y="90"/>
      <point x="383" y="63"/>
      <point x="325" y="63" type="curve" smooth="yes"/>
      <point x="241" y="63"/>
      <point x="180" y="121"/>
      <point x="180" y="247" type="curve" smooth="yes"/>
      <point x="180" y="400"/>
      <point x="244" y="448"/>
      <point x="291" y="448" type="curve" smooth="yes"/>
      <point x="334" y="448"/>
      <point x="364" y="410"/>
      <point x="364" y="347" type="curve" smooth="yes"/>
      <point x="364" y="305"/>
      <point x="349" y="285"/>
      <point x="301" y="285" type="curve" smooth="yes"/>
      <point x="93" y="285" type="line"/>
      <point x="93" y="235" type="line"/>
      <point x="487" y="235" type="line"/>
      <point x="491" y="252"/>
      <point x="493" y="268"/>
      <point x="493" y="287" type="curve" smooth="yes"/>
      <point x="493" y="411"/>
      <point x="413" y="498"/>
      <point x="285" y="498" type="curve" smooth="yes"/>
      <point x="143" y="498"/>
      <point x="35" y="391"/>
      <point x="35" y="240" type="curve" smooth="yes"/>
      <point x="35" y="78"/>
      <point x="132" y="-15"/>
      <point x="277" y="-15" type="curve" smooth="yes"/>
      <point x="298" y="-15"/>
      <point x="319" y="-13"/>
      <point x="338" y="-9" type="curve"/>
      <point x="331" y="4" type="line"/>
      <point x="282" y="-26"/>
      <point x="245" y="-76"/>
      <point x="245" y="-131" type="curve" smooth="yes"/>
      <point x="245" y="-191"/>
      <point x="287" y="-230"/>
    </contour>
  </outline>
</glyph>
<glyph name="dotlessi" format="1">
  <advance width="297"/>
  <unicode hex="0131"/>
  <outline>
    <contour>
      <point x="196" y="0" type="line"/>
      <point x="194" y="45"/>
      <point x="193" y="148"/>
      <point x="193" y="210" type="curve"/>
      <point x="193" y="345" type="line"/>
      <point x="196" y="480" type="line"/>
      <point x="181" y="490" type="line"/>
      <point x="30" y="430" type="line"/>
      <point x="30" y="395" type="line"/>
      <point x="110" y="386" type="line"/>
      <point x="112" y="346"/>
      <point x="113" y="315"/>
      <point x="113" y="260" type="curve" smooth="yes"/>
      <point x="113" y="210" type="line" smooth="yes"/>
      <point x="113" y="148"/>
      <point x="112" y="45"/>
      <point x="110" y="0" type="curve"/>
    </contour>
    <contour>
      <point x="165" y="55" type="line"/>
      <point x="145" y="55" type="line"/>
      <point x="35" y="35" type="line"/>
      <point x="35" y="0" type="line"/>
      <point x="265" y="0" type="line"/>
      <point x="265" y="35" type="line"/>
    </contour>
  </outline>
</glyph>
<glyph name="Lslash" format="1">
  <advance width="580"/>
  <unicode hex="0141"/>
  <outline>
    <contour>
      <point x="396" y="460" type="line"/>
      <point x="188" y="341" type="line"/>
      <point x="188" y="264" type="line"/>
      <point x="396" y="383" type="line"/>
    </contour>
    <contour>
      <point x="188" y="354" type="line"/>
      <point x="32" y="264" type="line"/>
      <point x="32" y="188" type="line"/>
      <point x="188" y="277" type="line"/>
    </contour>
    <component base="L" yOffset="-1"/>
  </outline>
</glyph>
<glyph name="lslash" format="1">
  <advance width="309"/>
  <unicode hex="0142"/>
  <outline>
    <contour>
      <point x="163" y="436" type="line"/>
      <point x="20" y="362" type="line"/>
      <point x="20" y="284" type="line"/>
      <point x="163" y="358" type="line"/>
    </contour>
    <contour>
      <point x="306" y="495" type="line"/>
      <point x="163" y="423" type="line"/>
      <point x="163" y="345" type="line"/>
      <point x="306" y="419" type="line"/>
    </contour>
    <component base="l" yOffset="-1"/>
  </outline>
</glyph>
<glyph name="OE" format="1">
  <advance width="938"/>
  <unicode hex="0152"/>
  <outline>
    <contour>
      <point x="153" y="335" type="curve" smooth="yes"/>
      <point x="153" y="489"/>
      <point x="214" y="635"/>
      <point x="373" y="635" type="curve" smooth="yes"/>
      <point x="418" y="635"/>
      <point x="464" y="623"/>
      <point x="519" y="599" type="curve"/>
      <point x="519" y="670" type="line"/>
      <point x="461" y="681"/>
      <point x="414" y="685"/>
      <point x="381" y="685" type="curve" smooth="yes"/>
      <point x="199" y="685"/>
      <point x="48" y="557"/>
      <point x="48" y="335" type="curve" smooth="yes"/>
      <point x="48" y="113"/>
      <point x="199" y="-15"/>
      <point x="381" y="-15" type="curve" smooth="yes"/>
      <point x="414" y="-15"/>
      <point x="461" y="-11"/>
      <point x="519" y="0" type="curve"/>
      <point x="519" y="71" type="line"/>
      <point x="464" y="47"/>
      <point x="418" y="35"/>
      <point x="373" y="35" type="curve" smooth="yes"/>
      <point x="214" y="35"/>
      <point x="153" y="181"/>
    </contour>
    <contour>
      <point x="474" y="310" type="line" smooth="yes"/>
      <point x="474" y="205"/>
      <point x="474" y="101"/>
      <point x="471" y="0" type="curve"/>
      <point x="567" y="0" type="line"/>
      <point x="564" y="103"/>
      <point x="564" y="207"/>
      <point x="564" y="322" type="curve" smooth="yes"/>
      <point x="564" y="360" type="line" smooth="yes"/>
      <point x="564" y="465"/>
      <point x="564" y="569"/>
      <point x="567" y="670" type="curve"/>
      <point x="471" y="670" type="line"/>
      <point x="474" y="567"/>
      <point x="474" y="463"/>
      <point x="474" y="360" type="curve" smooth="yes"/>
    </contour>
    <contour>
      <point x="712" y="335" type="line"/>
      <point x="727" y="224" type="line"/>
      <point x="772" y="224" type="line"/>
      <point x="772" y="461" type="line"/>
      <point x="727" y="461" type="line"/>
      <point x="712" y="355" type="line"/>
    </contour>
    <contour>
      <point x="847" y="178" type="line"/>
      <point x="816" y="0" type="line"/>
      <point x="861" y="50" type="line"/>
      <point x="519" y="50" type="line"/>
      <point x="519" y="0" type="line"/>
      <point x="896" y="0" type="line"/>
      <point x="903" y="178" type="line"/>
    </contour>
    <contour>
      <point x="827" y="492" type="line"/>
      <point x="883" y="492" type="line"/>
      <point x="876" y="670" type="line"/>
      <point x="519" y="670" type="line"/>
      <point x="519" y="620" type="line"/>
      <point x="841" y="620" type="line"/>
      <point x="796" y="670" type="line"/>
    </contour>
    <contour>
      <point x="744" y="365" type="line"/>
      <point x="519" y="365" type="line"/>
      <point x="519" y="319" type="line"/>
      <point x="744" y="319" type="line"/>
    </contour>
  </outline>
</glyph>
<glyph name="oe" format="1">
  <advance width="867"/>
  <unicode hex="0153"/>
  <outline>
    <contour>
      <point x="283" y="448" type="curve" smooth="yes"/>
      <point x="353" y="448"/>
      <point x="388" y="379"/>
      <point x="388" y="241" type="curve" smooth="yes"/>
      <point x="388" y="101"/>
      <point x="353" y="35"/>
      <point x="283" y="35" type="curve" smooth="yes"/>
      <point x="213" y="35"/>
      <point x="178" y="101"/>
      <point x="178" y="241" type="curve" smooth="yes"/>
      <point x="178" y="379"/>
      <point x="213" y="448"/>
    </contour>
    <contour>
      <point x="498" y="114" type="curve"/>
      <point x="409" y="114" type="line"/>
      <point x="450" y="24"/>
      <point x="526" y="-15"/>
      <point x="618" y="-15" type="curve" smooth="yes"/>
      <point x="715" y="-15"/>
      <point x="795" y="29"/>
      <point x="823" y="119" type="curve"/>
      <point x="790" y="138" type="line"/>
      <point x="760" y="90"/>
      <point x="721" y="63"/>
      <point x="667" y="63" type="curve" smooth="yes"/>
      <point x="576" y="63"/>
      <point x="520" y="121"/>
      <point x="520" y="247" type="curve" smooth="yes"/>
      <point x="520" y="397"/>
      <point x="581" y="448"/>
      <point x="631" y="448" type="curve" smooth="yes"/>
      <point x="673" y="448"/>
      <point x="704" y="412"/>
      <point x="704" y="346" type="curve" smooth="yes"/>
      <point x="704" y="303"/>
      <point x="690" y="285"/>
      <point x="641" y="285" type="curve" smooth="yes"/>
      <point x="422" y="285" type="line"/>
      <point x="422" y="235" type="line"/>
      <point x="827" y="235" type="line"/>
      <point x="831" y="251"/>
      <point x="833" y="269"/>
      <point x="833" y="287" type="curve" smooth="yes"/>
      <point x="833" y="413"/>
      <point x="754" y="498"/>
      <point x="627" y="498" type="curve" smooth="yes"/>
      <point x="543" y="498"/>
      <point x="461" y="462"/>
      <point x="421" y="371" type="curve"/>
      <point x="486" y="371" type="line"/>
      <point x="447" y="467"/>
      <point x="363" y="498"/>
      <point x="285" y="498" type="curve" smooth="yes"/>
      <point x="150" y="498"/>
      <point x="30" y="399"/>
      <point x="30" y="240" type="curve" smooth="yes"/>
      <point x="30" y="81"/>
      <point x="135" y="-15"/>
      <point x="272" y="-15" type="curve" smooth="yes"/>
      <point x="368" y="-15"/>
      <point x="450" y="23"/>
    </contour>
  </outline>
</glyph>
<glyph name="Uogonek" format="1">
  <advance width="750"/>
  <unicode hex="0172"/>
  <outline>
    <contour>
      <point x="625" y="594" type="line"/>
      <point x="730" y="605" type="line"/>
      <point x="730" y="655" type="line"/>
      <point x="494" y="655" type="line"/>
      <point x="494" y="605" type="line"/>
      <point x="599" y="594" type="line"/>
    </contour>
    <contour>
      <point x="175" y="590" type="line"/>
      <point x="201" y="590" type="line"/>
      <point x="344" y="605" type="line"/>
      <point x="344" y="655" type="line"/>
      <point x="32" y="655" type="line"/>
      <point x="32" y="605" type="line"/>
    </contour>
    <contour>
      <point x="466" y="-83" type="curve" smooth="yes"/>
      <point x="466" y="-45"/>
      <point x="488" y="-14"/>
      <point x="544" y="32" type="curve" smooth="yes"/>
      <point x="600" y="78"/>
      <point x="641" y="150"/>
      <point x="641" y="283" type="curve" smooth="yes"/>
      <point x="641" y="655" type="line"/>
      <point x="581" y="655" type="line"/>
      <point x="581" y="283" type="line" smooth="yes"/>
      <point x="581" y="125"/>
      <point x="523" y="70"/>
      <point x="421" y="70" type="curve" smooth="yes"/>
      <point x="320" y="70"/>
      <point x="262" y="125"/>
      <point x="262" y="283" type="curve" smooth="yes"/>
      <point x="262" y="352" type="line" smooth="yes"/>
      <point x="262" y="454"/>
      <point x="262" y="556"/>
      <point x="265" y="655" type="curve"/>
      <point x="112" y="655" type="line"/>
      <point x="115" y="554"/>
      <point x="115" y="452"/>
      <point x="115" y="352" type="curve" smooth="yes"/>
      <point x="115" y="252" type="line" smooth="yes"/>
      <point x="115" y="64"/>
      <point x="222" y="-15"/>
      <point x="388" y="-15" type="curve" smooth="yes"/>
      <point x="410" y="-15"/>
      <point x="432" y="-13"/>
      <point x="452" y="-9" type="curve"/>
      <point x="447" y="0" type="line"/>
      <point x="404" y="-27"/>
      <point x="371" y="-76"/>
      <point x="371" y="-130" type="curve" smooth="yes"/>
      <point x="371" y="-190"/>
      <point x="413" y="-229"/>
      <point x="482" y="-229" type="curve" smooth="yes"/>
      <point x="524" y="-229"/>
      <point x="575" y="-211"/>
      <point x="606" y="-184" type="curve"/>
      <point x="592" y="-146" type="line"/>
      <point x="574" y="-151"/>
      <point x="557" y="-154"/>
      <point x="540" y="-154" type="curve" smooth="yes"/>
      <point x="501" y="-154"/>
      <point x="466" y="-132"/>
    </contour>
  </outline>
</glyph>
<glyph name="uogonek" format="1">
  <advance width="602"/>
  <unicode hex="0173"/>
  <outline>
    <contour>
      <point x="367" y="-136" type="curve" smooth="yes"/>
      <point x="367" y="-193"/>
      <point x="409" y="-230"/>
      <point x="478" y="-230" type="curve" smooth="yes"/>
      <point x="520" y="-230"/>
      <point x="571" y="-212"/>
      <point x="602" y="-185" type="curve"/>
      <point x="588" y="-147" type="line"/>
      <point x="570" y="-152"/>
      <point x="553" y="-155"/>
      <point x="536" y="-155" type="curve" smooth="yes"/>
      <point x="497" y="-155"/>
      <point x="462" y="-135"/>
      <point x="462" y="-89" type="curve" smooth="yes"/>
      <point x="462" y="-53"/>
      <point x="486" y="-18"/>
      <point x="532" y="9" type="curve"/>
      <point x="485" y="9" type="line"/>
      <point x="421" y="-17"/>
      <point x="367" y="-73"/>
    </contour>
    <component base="u"/>
  </outline>
</glyph>
<glyph name="florin" format="1">
  <advance width="528"/>
  <unicode hex="0192"/>
  <outline>
    <contour>
      <point x="108" y="350" type="line"/>
      <point x="450" y="350" type="line"/>
      <point x="450" y="405" type="line"/>
      <point x="108" y="405" type="line"/>
    </contour>
    <contour>
      <point x="334" y="357" type="line" smooth="yes"/>
      <point x="344" y="471"/>
      <point x="343" y="535"/>
      <point x="371" y="581" type="curve" smooth="yes"/>
      <point x="383" y="601"/>
      <point x="402" y="619"/>
      <point x="433" y="631" type="curve"/>
      <point x="384" y="627" type="line"/>
      <point x="409" y="573" type="line" smooth="yes"/>
      <point x="426" y="537"/>
      <point x="455" y="527"/>
      <point x="477" y="527" type="curve" smooth="yes"/>
      <point x="510" y="527"/>
      <point x="536" y="552"/>
      <point x="536" y="585" type="curve"/>
      <point x="523" y="623"/>
      <point x="489" y="653"/>
      <point x="422" y="653" type="curve" smooth="yes"/>
      <point x="377" y="653"/>
      <point x="321" y="637"/>
      <point x="282" y="595" type="curve" smooth="yes"/>
      <point x="240" y="551"/>
      <point x="222" y="484"/>
      <point x="211" y="364" type="curve" smooth="yes"/>
      <point x="197" y="217" type="line" smooth="yes"/>
      <point x="185" y="91"/>
      <point x="187" y="22"/>
      <point x="158" y="-28" type="curve" smooth="yes"/>
      <point x="145" y="-49"/>
      <point x="126" y="-67"/>
      <point x="95" y="-78" type="curve"/>
      <point x="143" y="-71" type="line"/>
      <point x="119" y="-20" type="line" smooth="yes"/>
      <point x="102" y="16"/>
      <point x="73" y="26"/>
      <point x="51" y="26" type="curve" smooth="yes"/>
      <point x="18" y="26"/>
      <point x="-8" y="0"/>
      <point x="-8" y="-32" type="curve"/>
      <point x="5" y="-71"/>
      <point x="39" y="-101"/>
      <point x="106" y="-100" type="curve" smooth="yes"/>
      <point x="151" y="-101"/>
      <point x="207" y="-85"/>
      <point x="246" y="-42" type="curve" smooth="yes"/>
      <point x="293" y="9"/>
      <point x="310" y="86"/>
      <point x="323" y="233" type="curve" smooth="yes"/>
    </contour>
  </outline>
</glyph>
<glyph name="gravecmb" format="1">
  <advance width="0"/>
  <unicode hex="0300"/>
  <outline>
    <contour>
      <point x="102" y="570" type="line"/>
      <point x="44" y="671" type="line" smooth="yes"/>
      <point x="5" y="739"/>
      <point x="-18" y="763"/>
      <point x="-51" y="763" type="curve" smooth="yes"/>
      <point x="-79" y="763"/>
      <point x="-102" y="745"/>
      <point x="-102" y="715" type="curve" smooth="yes"/>
      <point x="-102" y="690"/>
      <point x="-86" y="667"/>
      <point x="-27" y="620" type="curve" smooth="yes"/>
      <point x="68" y="543" type="line"/>
    </contour>
  </outline>
</glyph>
<glyph name="acutecmb" format="1">
  <advance width="0"/>
  <unicode hex="0301"/>
  <outline>
    <contour>
      <point x="-104" y="570" type="line"/>
      <point x="-70" y="543" type="line"/>
      <point x="25" y="620" type="line" smooth="yes"/>
      <point x="84" y="667"/>
      <point x="100" y="689"/>
      <point x="100" y="715" type="curve" smooth="yes"/>
      <point x="100" y="745"/>
      <point x="78" y="763"/>
      <point x="50" y="763" type="curve" smooth="yes"/>
      <point x="17" y="763"/>
      <point x="-7" y="739"/>
      <point x="-46" y="671" type="curve" smooth="yes"/>
    </contour>
  </outline>
</glyph>
<glyph name="circumflexcmb" format="1">
  <advance width="0"/>
  <unicode hex="0302"/>
  <outline>
    <contour>
      <point x="125" y="556" type="line"/>
      <point x="148" y="577" type="line"/>
      <point x="16" y="753" type="line"/>
      <point x="-16" y="753" type="line"/>
      <point x="-148" y="577" type="line"/>
      <point x="-125" y="556" type="line"/>
      <point x="42" y="699" type="line"/>
      <point x="-42" y="699" type="line"/>
    </contour>
  </outline>
</glyph>
<glyph name="tildecmb" format="1">
  <advance width="0"/>
  <unicode hex="0303"/>
  <outline>
    <contour>
      <point x="63" y="560" type="curve" smooth="yes"/>
      <point x="126" y="560"/>
      <point x="165" y="607"/>
      <point x="165" y="668" type="curve" smooth="yes"/>
      <point x="165" y="680"/>
      <point x="164" y="694"/>
      <point x="161" y="708" type="curve"/>
      <point x="117" y="708" type="line"/>
      <point x="117" y="655"/>
      <point x="102" y="638"/>
      <point x="82" y="638" type="curve" smooth="yes"/>
      <point x="59" y="638"/>
      <point x="47" y="659"/>
      <point x="32" y="674" type="curve" smooth="yes"/>
      <point x="-2" y="708"/>
      <point x="-25" y="724"/>
      <point x="-63" y="724" type="curve" smooth="yes"/>
      <point x="-126" y="724"/>
      <point x="-165" y="677"/>
      <point x="-165" y="615" type="curve" smooth="yes"/>
      <point x="-165" y="603"/>
      <point x="-164" y="591"/>
      <point x="-161" y="576" type="curve"/>
      <point x="-117" y="576" type="line"/>
      <point x="-117" y="629"/>
      <point x="-102" y="646"/>
      <point x="-81" y="646" type="curve" smooth="yes"/>
      <point x="-58" y="646"/>
      <point x="-47" y="625"/>
      <point x="-32" y="609" type="curve" smooth="yes"/>
      <point x="2" y="576"/>
      <point x="25" y="560"/>
    </contour>
  </outline>
</glyph>
<glyph name="macroncmb" format="1">
  <advance width="0"/>
  <unicode hex="0304"/>
  <outline>
    <contour>
      <point x="-150" y="603" type="line"/>
      <point x="150" y="603" type="line"/>
      <point x="150" y="685" type="line"/>
      <point x="-150" y="685" type="line"/>
    </contour>
  </outline>
</glyph>
<glyph name="brevecmb" format="1">
  <advance width="0"/>
  <unicode hex="0306"/>
  <outline>
    <contour>
      <point x="0" y="575" type="curve" smooth="yes"/>
      <point x="105" y="575"/>
      <point x="154" y="658"/>
      <point x="160" y="729" type="curve"/>
      <point x="118" y="743" type="line"/>
      <point x="99" y="695"/>
      <point x="56" y="656"/>
      <point x="0" y="656" type="curve" smooth="yes"/>
      <point x="-56" y="656"/>
      <point x="-98" y="694"/>
      <point x="-118" y="743" type="curve"/>
      <point x="-160" y="729" type="line"/>
      <point x="-154" y="658"/>
      <point x="-105" y="575"/>
    </contour>
  </outline>
</glyph>
<glyph name="dotaccentcmb" format="1">
  <advance width="0"/>
  <unicode hex="0307"/>
  <outline>
    <contour>
      <point x="0" y="581" type="curve" smooth="yes"/>
      <point x="46" y="581"/>
      <point x="83" y="615"/>
      <point x="83" y="661" type="curve" smooth="yes"/>
      <point x="83" y="707"/>
      <point x="46" y="740"/>
      <point x="0" y="740" type="curve" smooth="yes"/>
      <point x="-45" y="740"/>
      <point x="-83" y="707"/>
      <point x="-83" y="661" type="curve" smooth="yes"/>
      <point x="-83" y="615"/>
      <point x="-45" y="581"/>
    </contour>
  </outline>
</glyph>
<glyph name="dieresiscmb" format="1">
  <advance width="0"/>
  <unicode hex="0308"/>
  <outline>
    <contour>
      <point x="114" y="581" type="curve" smooth="yes"/>
      <point x="151" y="581"/>
      <point x="183" y="608"/>
      <point x="183" y="645" type="curve" smooth="yes"/>
      <point x="183" y="682"/>
      <point x="151" y="711"/>
      <point x="114" y="711" type="curve" smooth="yes"/>
      <point x="77" y="711"/>
      <point x="46" y="682"/>
      <point x="46" y="645" type="curve" smooth="yes"/>
      <point x="46" y="608"/>
      <point x="77" y="581"/>
    </contour>
    <contour>
      <point x="-114" y="581" type="curve" smooth="yes"/>
      <point x="-77" y="581"/>
      <point x="-46" y="608"/>
      <point x="-46" y="645" type="curve" smooth="yes"/>
      <point x="-46" y="682"/>
      <point x="-77" y="711"/>
      <point x="-114" y="711" type="curve" smooth="yes"/>
      <point x="-151" y="711"/>
      <point x="-183" y="682"/>
      <point x="-183" y="645" type="curve" smooth="yes"/>
      <point x="-183" y="608"/>
      <point x="-151" y="581"/>
    </contour>
  </outline>
</glyph>
<glyph name="ringcmb" format="1">
  <advance width="0"/>
  <unicode hex="030A"/>
  <outline>
    <contour>
      <point x="0" y="587" type="curve" smooth="yes"/>
      <point x="-39" y="587"/>
      <point x="-60" y="619"/>
      <point x="-60" y="650" type="curve" smooth="yes"/>
      <point x="-60" y="682"/>
      <point x="-38" y="713"/>
      <point x="0" y="713" type="curve" smooth="yes"/>
      <point x="39" y="713"/>
      <point x="60" y="682"/>
      <point x="60" y="650" type="curve" smooth="yes"/>
      <point x="60" y="619"/>
      <point x="38" y="587"/>
    </contour>
    <contour>
      <point x="0" y="539" type="curve" smooth="yes"/>
      <point x="63" y="539"/>
      <point x="117" y="581"/>
      <point x="117" y="650" type="curve" smooth="yes"/>
      <point x="117" y="722"/>
      <point x="63" y="761"/>
      <point x="0" y="761" type="curve" smooth="yes"/>
      <point x="-63" y="761"/>
      <point x="-117" y="719"/>
      <point x="-117" y="650" type="curve" smooth="yes"/>
      <point x="-117" y="579"/>
      <point x="-63" y="539"/>
    </contour>
  </outline>
</glyph>
<glyph name="hungarumlautcmb" format="1">
  <advance width="0"/>
  <unicode hex="030B"/>
  <outline>
    <contour>
      <point x="-155" y="567" type="line"/>
      <point x="-117" y="546" type="line"/>
      <point x="-21" y="668" type="line" smooth="yes"/>
      <point x="1" y="696"/>
      <point x="11" y="714"/>
      <point x="11" y="732" type="curve" smooth="yes"/>
      <point x="11" y="757"/>
      <point x="-8" y="771"/>
      <point x="-29" y="771" type="curve" smooth="yes"/>
      <point x="-51" y="771"/>
      <point x="-74" y="755"/>
      <point x="-94" y="708" type="curve" smooth="yes"/>
    </contour>
    <contour>
      <point x="-16" y="567" type="line"/>
      <point x="23" y="546" type="line"/>
      <point x="120" y="668" type="line" smooth="yes"/>
      <point x="142" y="696"/>
      <point x="150" y="714"/>
      <point x="150" y="732" type="curve" smooth="yes"/>
      <point x="150" y="757"/>
      <point x="133" y="771"/>
      <point x="111" y="771" type="curve" smooth="yes"/>
      <point x="89" y="771"/>
      <point x="67" y="756"/>
      <point x="46" y="708" type="curve" smooth="yes"/>
    </contour>
  </outline>
</glyph>
<glyph name="caroncmb" format="1">
  <advance width="0"/>
  <unicode hex="030C"/>
  <outline>
    <contour>
      <point x="-118" y="760" type="line"/>
      <point x="-152" y="732" type="line"/>
      <point x="-41" y="568" type="line"/>
      <point x="41" y="568" type="line"/>
      <point x="152" y="732" type="line"/>
      <point x="118" y="760" type="line"/>
      <point x="-44" y="608" type="line"/>
      <point x="44" y="608" type="line"/>
    </contour>
  </outline>
</glyph>
<glyph name="commabelowcmb" format="1">
  <advance width="0"/>
  <unicode hex="0326"/>
  <outline>
    <contour>
      <point x="63" y="-123" type="curve" smooth="yes"/>
      <point x="63" y="-107"/>
      <point x="60" y="-86"/>
      <point x="51" y="-67" type="curve"/>
      <point x="32" y="-50"/>
      <point x="14" y="-45"/>
      <point x="-3" y="-45" type="curve" smooth="yes"/>
      <point x="-43" y="-45"/>
      <point x="-69" y="-75"/>
      <point x="-69" y="-108" type="curve" smooth="yes"/>
      <point x="-69" y="-149"/>
      <point x="-29" y="-175"/>
      <point x="12" y="-185" type="curve"/>
      <point x="17" y="-132" type="line"/>
      <point x="-9" y="-186"/>
      <point x="-43" y="-210"/>
      <point x="-97" y="-231" type="curve"/>
      <point x="-82" y="-270" type="line"/>
      <point x="-6" y="-245"/>
      <point x="63" y="-197"/>
    </contour>
  </outline>
</glyph>
<glyph name="cedillacmb" format="1">
  <advance width="0"/>
  <unicode hex="0327"/>
  <outline>
    <contour>
      <point x="-30" y="-95" type="line"/>
      <point x="12" y="-99"/>
      <point x="37" y="-109"/>
      <point x="37" y="-140" type="curve" smooth="yes"/>
      <point x="37" y="-166"/>
      <point x="20" y="-182"/>
      <point x="-15" y="-182" type="curve" smooth="yes"/>
      <point x="-36" y="-182"/>
      <point x="-52" y="-180"/>
      <point x="-69" y="-177" type="curve"/>
      <point x="-79" y="-220" type="line"/>
      <point x="-60" y="-225"/>
      <point x="-37" y="-230"/>
      <point x="-6" y="-230" type="curve" smooth="yes"/>
      <point x="72" y="-230"/>
      <point x="119" y="-197"/>
      <point x="119" y="-139" type="curve" smooth="yes"/>
      <point x="119" y="-87"/>
      <point x="76" y="-57"/>
      <point x="-6" y="-50" type="curve"/>
      <point x="21" y="-75" type="line"/>
      <point x="30" y="8" type="line"/>
      <point x="-16" y="8" type="line"/>
    </contour>
  </outline>
</glyph>
